<svg id="fb6cc8fc-23a8-42e2-9f95-7dcb5155a0e2" data-name="Layer 1" xmlns="http://www.w3.org/2000/svg" viewBox="0 0 938 938"><defs><style>.adddcc7a-2083-40e6-befb-acf548a030dc,.f619e004-cc6c-4c27-8db5-339225b50f48{fill:#fcc7b4;}.f619e004-cc6c-4c27-8db5-339225b50f48{stroke:#a67167;stroke-width:0.5px;}.afb6a05a-7435-4a4b-b781-8dab5c70c885,.b8f7ffe8-5106-4f22-8b36-a6bc457aa018,.f619e004-cc6c-4c27-8db5-339225b50f48,.f6a434ad-acec-433f-8629-14868043df8a,.f8ea3f7c-b062-4d08-bff1-560a59314113{stroke-miterlimit:10;}.a9df71d7-8667-4921-ac5f-afcf2e434ee6{fill:#e59c95;}.a983c1e0-0b3e-4677-8ff7-b66ab3e56bd3{fill:#0e7987;}.ab678e89-bde2-4b50-95e9-b72e7197006b{fill:#7cafc4;}.b8f7ffe8-5106-4f22-8b36-a6bc457aa018,.ee377336-18f1-49cd-912e-4941eed2c0db{fill:#fff;}.b8f7ffe8-5106-4f22-8b36-a6bc457aa018,.f6a434ad-acec-433f-8629-14868043df8a{stroke:#808285;}.f6a434ad-acec-433f-8629-14868043df8a{fill:#4d4d4f;}.aa9a457a-7de6-4aac-9670-b2c42993d8a4{fill:#848689;}.ebee1605-4511-49ef-97ce-15785bd4d502{fill:#ef9d0c;}.a11400e7-9230-43ed-81b2-499259aa45de{fill:#9d2324;opacity:0.46;}.ec4a26c2-e4af-496d-9dfd-573f10639ada{fill:#b3705b;opacity:0.6;}.a50318ad-c45f-4ae2-b89a-9b7dfa3570ea{fill:#a67167;}.afb6a05a-7435-4a4b-b781-8dab5c70c885,.f8ea3f7c-b062-4d08-bff1-560a59314113{fill:none;}.f8ea3f7c-b062-4d08-bff1-560a59314113{stroke:#6fbe44;}.afb6a05a-7435-4a4b-b781-8dab5c70c885{stroke:#e59c95;}.bf9795b5-3d73-46f5-be86-21e64ff75131{fill:#6b3d35;}</style></defs><path class="f619e004-cc6c-4c27-8db5-339225b50f48" d="M120.33,551.29c7.33,25.21,13.14,54.45,15.84,66.32,4.05,17.81,1.89,35.88-5.4,46.14s-20,33.19-18.08,58.56c.68,9.12,1,27.83,1.24,48.06.33,36,.11,76.87.11,76.87l18.89,8.64,13.49-9.18s-5.93-34-.8-69.35c.2-1.38.44-2.83.71-4.33,6.63-36.94,33.39-108.42,36-114.13,2.7-5.93,10.53-11.06,10.53-29.14,6.47-13.22,8.09-24.56,8.09-55.59,0-14.08.84-27.81,1.75-38.63l-5.77,1.1Z"/><path class="a9df71d7-8667-4921-ac5f-afcf2e434ee6" d="M136.17,617.61c4.05,17.81,1.89,35.88-5.4,46.14s-20,33.19-18.08,58.56c.68,9.12,1,27.83,1.24,48.06,0,1.82,0,3.66,0,5.5h0s.53-70.24,17.26-99.35,13.1-31.26,12.49-48l-14-79-9.35,1.79C127.66,576.5,133.47,605.74,136.17,617.61Z"/><path class="f619e004-cc6c-4c27-8db5-339225b50f48" d="M319.94,492.92c-5.77-9.15-15.2-16.89-22.92-22.59-16.95-12.5-36.28-23.49-56-30.7-9.45-3.44-13.39-4.66-18.12,5.39a117.65,117.65,0,0,0-10.28,31.42c-1.62,10.08-5.35,17.83-9.83,27.19,7.43,2,14.15,6,20.75,9.89,7.24,4.31,14.36,9.05,21.81,13,1.25.66,13.35,5.93,13.74,5.51-.27.29-23,24.36-17.39,57.15-3.18,7.18-6.45,14.11-9.66,20.67A469.25,469.25,0,0,0,207.73,671s21,25.44,21.67,26.41,22.19-2.67,23.53-2.9H253l-8.48-17.72s7.55-26.16,20.38-49.48c1.41-2.57,2.88-5.1,4.42-7.56,15.49-24.8,37-52.82,40.27-73.9.62-4,6.65-10.17,8.59-14a77.14,77.14,0,0,0,6.34-16.3C326.55,507.42,324.27,499.78,319.94,492.92Zm-44.7,38.93.23.1Z"/><path class="a9df71d7-8667-4921-ac5f-afcf2e434ee6" d="M255.9,526.8,228,502.92l-.82,12.81c6,3.67,12,7.5,18.16,10.76,1.25.66,13.35,5.93,13.74,5.51-.27.29-23,24.36-17.39,57.15-3.18,7.18-6.45,14.11-9.66,20.67-3.72,7.61-7.09,15.22-10.06,22.37l24.65-41s-.38-42.1,17.42-57.48c9.7-4,17.8-6.88,17.8-6.88Z"/><path class="a983c1e0-0b3e-4677-8ff7-b66ab3e56bd3" d="M275.24,531.85l.23.1Z"/><path class="ab678e89-bde2-4b50-95e9-b72e7197006b" d="M298.12,462.44l-59.44,67.19-33.84-14.81.41,31.81-91,10.93s-11.29-57.38-17.58-73.82-6.7-54.49,8.27-72.3,115-2.89,115-2.89l6.34,16.25Z"/><polygon class="a983c1e0-0b3e-4677-8ff7-b66ab3e56bd3" points="243.28 520.92 243.28 520.92 205.25 508.18 189.77 462.44 198.42 506.97 202.68 546.94 205.25 546.63 204.84 514.82 238.68 529.63 243.28 520.92"/><path class="f619e004-cc6c-4c27-8db5-339225b50f48" d="M837.77,506.43c-7.56-7-10.25-14-31.57-26.45l-10.71-6.24-52.25,76.54L693,557.91c5.27,22.2,12.55,52.59,14.71,60.23l4.86,15.66s7.83,14,2.16,27-22.94,23.75-25.37,96.61c-.58,4-1.21,8-1.85,12.09-6.16,38.55-14.34,77.22-14.34,77.22l29.49-1.41c.77-3.69,8.1-38,18.86-69.52,3.06-8.95,6.4-17.68,9.94-25.4,16.73-36.43,24.56-42.1,27.26-71,10.52-17.81,16.73-31.84,13.22-45.06-2.43-6.21-2.43-8.1-2.43-8.1s69.35-59.1,74.21-78.79S845.33,513.44,837.77,506.43Z"/><path class="ab678e89-bde2-4b50-95e9-b72e7197006b" d="M795.49,473.74C781,465.25,773,460.56,773,460.56s-13.64-26.48-17.58-44.75c-9.2,5-25.18,7.9-37.2,4.2-18.42-5.67-32.38-6.68-51-6.48a64.35,64.35,0,0,1-27.79-6.19c-1.81,5-4.17,10-5.88,14.81-1,2.79-2,4.88-2.14,7.86-.15,2.41-.21,4.84-.18,7.26a115.31,115.31,0,0,0,7.11,37.32c10.8,30.22,48.85,58.82,48.85,58.82s2.5,10.66,5.79,24.5l50.25-7.63Z"/><path class="b8f7ffe8-5106-4f22-8b36-a6bc457aa018" d="M244.2,734.61c10.42,7.18,38.23,18.39,41.66,2.62-5.84-5.3-18.07-29.47-25.95-43.89a102.86,102.86,0,0,1-10.3-30s-5.62,4-11.7,3.63c-9.67-.54-22.81-16.65-24.06-20.82s-6.07,1.31-6.07,1.31-6.05,9.51-10.56,15.2c-2.08,2.62-5.17,5.42-7.54,8.36,4.27,7,12.7,20,20.07,26.74C220.12,707.22,232.73,726.7,244.2,734.61Z"/><path class="b8f7ffe8-5106-4f22-8b36-a6bc457aa018" d="M285.86,737.23c-3.43,15.77-31.24,4.56-41.66-2.62-11.47-7.91-24.08-27.39-34.45-36.85C202.38,691,194,678,189.68,671c-2.78,3.44-4.58,7.08-2.6,10.88,3.66,7.05,29.46,31.68,29.46,31.68s13.65,23.95,32.45,33.08c25.72,12.87,42.79-4.26,37-9.3Z"/><path class="f6a434ad-acec-433f-8629-14868043df8a" d="M244.2,734.61c10.42,7.18,38.23,18.39,41.66,2.62-5.84-5.3-18.07-29.47-25.95-43.89a102.86,102.86,0,0,1-10.3-30s-5.62,4-11.7,3.63c-9.67-.54-22.81-16.65-24.06-20.82s-6.07,1.31-6.07,1.31-6.05,9.51-10.56,15.2c-2.08,2.62-5.17,5.42-7.54,8.36,4.27,7,12.7,20,20.07,26.74C220.12,707.22,232.73,726.7,244.2,734.61Z"/><path class="aa9a457a-7de6-4aac-9670-b2c42993d8a4" d="M285.86,737.23c-3.43,15.77-31.24,4.56-41.66-2.62-11.47-7.91-24.08-27.39-34.45-36.85C202.38,691,194,678,189.68,671c-2.78,3.44-4.58,7.08-2.6,10.88,3.66,7.05,29.46,31.68,29.46,31.68s13.65,23.95,32.45,33.08c25.72,12.87,42.79-4.26,37-9.3Z"/><path class="b8f7ffe8-5106-4f22-8b36-a6bc457aa018" d="M118.09,874.23c23.21,13.92,63,25.45,76.58,8.32a13,13,0,0,0-2.64-3.73c-12.68-13-29.68-15.39-37.78-39.4-2.43-14.57-5.13-21-5.13-21s-5.12-4-12.14,6.21-22.67-11.07-22.67-11.07-3.78-5.12-6.47,1.35-5.13,13.49-11.07,27.53c-1.44,3.42-3.2,6.88-4.09,10.4C96.5,858.1,103.9,865.71,118.09,874.23Z"/><path class="b8f7ffe8-5106-4f22-8b36-a6bc457aa018" d="M118.09,874.23c-14.19-8.52-21.59-16.13-25.41-21.44-1.5,5.9-.55,11.94,8.41,18.2,14.3,10,34.27,21,55.86,26.18,19.47,4.62,42.65-3.49,37.72-14.62C181.07,899.68,141.3,888.15,118.09,874.23Z"/><path class="f6a434ad-acec-433f-8629-14868043df8a" d="M118.09,874.23c23.21,13.92,63,25.45,76.58,8.32a13,13,0,0,0-2.64-3.73c-12.68-13-29.68-15.39-37.78-39.4-2.43-14.57-5.13-21-5.13-21s-5.12-4-12.14,6.21-22.67-11.07-22.67-11.07-3.78-5.12-6.47,1.35-5.13,13.49-11.07,27.53c-1.44,3.42-3.2,6.88-4.09,10.4C96.5,858.1,103.9,865.71,118.09,874.23Z"/><path class="aa9a457a-7de6-4aac-9670-b2c42993d8a4" d="M118.09,874.23c-14.19-8.52-21.59-16.13-25.41-21.44-1.5,5.9-.55,11.94,8.41,18.2,14.3,10,34.27,21,55.86,26.18,19.47,4.62,42.65-3.49,37.72-14.62C181.07,899.68,141.3,888.15,118.09,874.23Z"/><path class="f619e004-cc6c-4c27-8db5-339225b50f48" d="M214.16,191.52S226,198,230.89,201s10,12.15,10.25,22.4S234.93,249,234.93,249l-13.76-18.08-5.39-25.1Z"/><path class="f619e004-cc6c-4c27-8db5-339225b50f48" d="M199.31,153.2l1.08,25.64v5.39l8.91,7S216,220.93,215.78,229s-25.64,31-40.75,21.58S155.6,205,146.15,193.68,129.69,177,129.69,177l1.08-1.35,18.62-14,18.81-30.63,21.13,2Z"/><path class="ebee1605-4511-49ef-97ce-15785bd4d502" d="M100.84,411.8a78.26,78.26,0,0,0,6.65-13.73c3-8.54,5.34-17.72,4.93-26.83-.81-18.08-4.85-57.48-4.85-57.48l-3.51-39.67S142.65,293,151,253.85s-25.09-73.66-25.09-73.66l4.85-4.59S148,189.36,158.3,205.28s28.87,31.84,43.17,25.37,11.07-30-1.35-47.77a9.2,9.2,0,0,0,.54-3l14.58,11.6s14,31.57,21,49.92c4.05,12.14,3.24,27.25-4.58,42.91s-9.18,48-10.26,60.44-4.59,33.46-3.51,40.75c.85,5.73.24,11.88,1.83,17.49,1.31,4.58,4.18,8.4-.58,12.4-2.51,2.11-5.91,2.82-9.19,3-9.33.47-18.4-2.82-27.65-4.17-8.47-1.24-17.1-.84-25.65-.32q-30.24,1.88-60.32,5.84C97.83,417,99.36,414.38,100.84,411.8Z"/><path class="a11400e7-9230-43ed-81b2-499259aa45de" d="M145.88,281.78c13-19.83,11.34-46.95,11.34-46.95l-.24-.26c-1.34,13.2-4.55,25.5-8.94,33.05a28.62,28.62,0,0,1-23.74,14.57L103,273c-1.58,13.12-1.28,27.89,3.11,40.43,7.85,22.47,10.85,48.78,6.31,72.53a94.54,94.54,0,0,1-4.78,16.57c1.15,1.17,3-.26,4-1.62,23.48-33.71,18.56-70.45,12.83-108.61C124.43,292.31,132.93,301.62,145.88,281.78Z"/><path class="f619e004-cc6c-4c27-8db5-339225b50f48" d="M125.92,180.19s-15.11,5.93-22.4,11.33-24.56,16.73-28.6,51c-6.21,23.21-8.1,25.1-12.42,30s-7.55,42.1-8.36,48.3-3.78,37.78,4,41.29,24.28,6.21,37,5.67,19.7-5.4,47.23-10.53,27.79-7.82,35.35-7.82,18.08,4.32,27.25-6.48c4.05-2.43,23.21-14.57,25.64-16.73s-4.32-2.43-4.32-2.43,11.87-3.77,8.9-10c3.51-1.35,4.59-5.67-.27-7.29.81-3.77-4.58-6.74-11.33-6.74a95.21,95.21,0,0,0-14.3,1.35s5.94-5.4,3.51-10.26-7.83,3.78-11.88,4.86-13.76,4.86-16.73,11.06-6.74,15.92-20,18.35-35.35,4.32-46.95.81-13.22-5.66-13.22-5.66,17-19.7,18.89-34.55l1.08-6.2s27.25-1.62,28.06-34.27S140,194.76,125.92,180.19Z"/><polygon class="ec4a26c2-e4af-496d-9dfd-573f10639ada" points="124.03 279.49 125.65 267.88 138.6 256.55 129.16 271.93 128.62 279.49 124.03 279.49"/><path class="adddcc7a-2083-40e6-befb-acf548a030dc" d="M209.84,300s-4.05,2.7-12.68,2.43"/><path class="a50318ad-c45f-4ae2-b89a-9b7dfa3570ea" d="M210,300.2a14.27,14.27,0,0,1-3.08,1.26,27.39,27.39,0,0,1-3.21.69,32.81,32.81,0,0,1-3.27.29c-1.09.05-2.18,0-3.26,0,1.08,0,2.17,0,3.26-.11a31.5,31.5,0,0,0,3.22-.42,24.22,24.22,0,0,0,3.15-.8,14.44,14.44,0,0,0,2.91-1.31Z"/><path class="adddcc7a-2083-40e6-befb-acf548a030dc" d="M234.12,306.47s-17.81-.54-29.68,4.59"/><path class="a50318ad-c45f-4ae2-b89a-9b7dfa3570ea" d="M234.12,306.72a106.65,106.65,0,0,0-15.05.76c-2.5.33-5,.75-7.43,1.31a50.54,50.54,0,0,0-7.2,2.27,49.83,49.83,0,0,1,7.17-2.39c2.45-.6,4.93-1.07,7.42-1.44a105.82,105.82,0,0,1,15.1-1Z"/><path class="adddcc7a-2083-40e6-befb-acf548a030dc" d="M235.2,313.76s-19.69,0-30.49,6.74"/><path class="a50318ad-c45f-4ae2-b89a-9b7dfa3570ea" d="M235.2,314c-2.61,0-5.24.16-7.85.4s-5.22.56-7.8,1a45.31,45.31,0,0,0-14.84,5.05,45.39,45.39,0,0,1,14.79-5.29c2.58-.52,5.2-.89,7.81-1.18s5.25-.47,7.89-.52Z"/><path class="adddcc7a-2083-40e6-befb-acf548a030dc" d="M226.3,323.74s-13.22,4.05-21.05,8.37"/><path class="a50318ad-c45f-4ae2-b89a-9b7dfa3570ea" d="M226.37,324q-5.42,1.63-10.73,3.61a89.38,89.38,0,0,0-10.39,4.52,88.82,88.82,0,0,1,10.3-4.75q5.26-2.1,10.68-3.86Z"/><path class="a9df71d7-8667-4921-ac5f-afcf2e434ee6" d="M103.52,191.52c-7.29,5.4-24.56,16.73-28.6,51-6.21,23.21-8.1,25.1-12.42,30s-7.55,42.1-8.36,48.3-3.78,37.78,4,41.29,24.29,6.21,37,5.67,19.7-5.4,47.23-10.53,27.79-7.82,35.35-7.82c.8,0,1.63.05,2.49.12l.21-.39-7.29-5.67s-19.7,9.45-50.19,13.76-49.92,4.86-62.61-3c-2.42-8.64-.27-37.24,1.89-49.66S74.11,265.73,80,258.17l-.54-9.44,5.4,15.92s-2.43-24.56.27-37.24S90.84,202.85,103.52,191.52Z"/><path class="f619e004-cc6c-4c27-8db5-339225b50f48" d="M149.05,163.49c4.69-10.65,4.93-26.41,4.93-26.75a54.19,54.19,0,0,1-6.55-11.05c-6.73-14.78-7.86-31.24.29-45.69A48.84,48.84,0,0,1,191.5,54.75C203.32,55,214.16,60,221.3,69.5c6.82,9.09,12.2,17.23,12,29-.41,20.34,1.66,39.54-4.77,59.16a25.34,25.34,0,0,1-3.56,7.54c-3.61,4.76-9.79,6.8-15.7,7.71-3.2.5-6.61.71-9.52-.7"/><path class="a9df71d7-8667-4921-ac5f-afcf2e434ee6" d="M154,136.74h0a54.19,54.19,0,0,1-6.55-11.05c-6.73-14.78-7.86-31.24.29-45.69a48.89,48.89,0,0,1,38.73-25.07c-16.82,5.3-35.92,18-39.74,38.56s13.23,45.09,13.23,45.09l-9,24.9h-1.92C153.74,152.84,154,137.08,154,136.74Z"/><polygon class="a9df71d7-8667-4921-ac5f-afcf2e434ee6" points="199.85 172.63 180.97 161.84 170.71 143.49 176.11 163.99 199.85 176.95 199.85 172.63"/><path class="f619e004-cc6c-4c27-8db5-339225b50f48" d="M711.21,118.93l10,20.24,1.08,25.63v5.4l17.81,4.52c-1.55,6,4.23,12.42,5.51,18.34,1.65,7.65,1.17,15.69.69,23.43-.49,8-1.73,17.16-8.55,21.28-4.46,2.71-10.06,2.35-15.26,1.91-9.84-.84-24.19-1.55-31.94-8.36-9.81-8.63-11-24-19.27-33.93-9.44-11.34-21.31-25-21.31-25l1.08-1.35,20.24-23.55"/><path class="f619e004-cc6c-4c27-8db5-339225b50f48" d="M670.93,149.46c4.69-10.65,4.93-26.41,4.93-26.75a54.19,54.19,0,0,1-6.55-11c-5.83-12.8-8.12-29.2-1.47-42.22,5.85-11.46,20.39-15.32,32-18.28,5.16-1.32,10.46-2.61,15.78-2.13,4.81.42,9.37,2.27,13.85,4.1,6.8,2.78,15.67,5.61,19.16,12.34,3.68,7.11,4.83,17,5.74,24.83,2,17.13,2.31,36-2.67,52.61-1.4,4.66-3.35,9.41-7.08,12.52a19.71,19.71,0,0,1-11.8,4.1,58.45,58.45,0,0,1-12.63-1.26"/><path class="a9df71d7-8667-4921-ac5f-afcf2e434ee6" d="M675.86,122.71h0a54.19,54.19,0,0,1-6.55-11c-6.73-14.78-7.85-31.24.29-45.7A48.91,48.91,0,0,1,708.33,40.9c-16.82,5.3-35.92,18-39.74,38.56s13.23,45.09,13.23,45.09l-9,24.9h-1.92C675.62,138.81,675.86,123.05,675.86,122.71Z"/><polygon class="a9df71d7-8667-4921-ac5f-afcf2e434ee6" points="721.74 158.6 702.85 147.8 692.59 129.45 697.99 149.96 721.74 162.91 721.74 158.6"/><path class="adddcc7a-2083-40e6-befb-acf548a030dc" d="M724.7,610.05l26.72,30.76s-15.38,1.62-19,26.72c-6.48,15.38-20.24,24.69-23.08,24.69s-18.21-21.86-18.21-21.86Z"/><path class="a9df71d7-8667-4921-ac5f-afcf2e434ee6" d="M724.7,610.05s5.27-20.24,17.41-37.64S791,548.49,791,548.49l-47.8,1,3.73,3.91-36.43,74.88,2,5.54"/><path class="a9df71d7-8667-4921-ac5f-afcf2e434ee6" d="M769.5,626.24l-10.79,8.69c-4.78,3.86-10.62,7.19-14.54,11.9a66.53,66.53,0,0,0-6.75,10.6c-2.17,3.92-5.35,7.43-4.2,11.68.55,2,3.75,4.93,3.63,6.9,0-.76,1.53-22,19-33.58,9.31-6.48,15-10,15-10Z"/><path class="f8ea3f7c-b062-4d08-bff1-560a59314113" d="M703,845.28h-.33c0,.22-.07.34-.07.34Z"/><path class="f619e004-cc6c-4c27-8db5-339225b50f48" d="M741.7,174.79s24,11.87,29.42,22.13,5.93,30.76,5.93,30.76L780.29,252s9.45,18.89,8.37,38c5.39-6.47,21.32-7.55,21.32-7.55l15.65-26.72s-2.7-22.67,0-30.22,7.55-14.84,7.82-22.67,8.1-5.66,8.1,3-5.67,18.35-5.67,18.35,8.37-8.9,14.3-12.41,8.91-8.1,11.34-14.3,8.36-15.66,11.33-11.07-2.16,11.34-2.16,11.34,4.32-9.45,8.37-10,2.16,11.33,2.16,11.33,6.74.81,2.42,15.12c1.89,5.66,2.16,12.14-3.5,21.31s-14.31,24-19.7,27a29.93,29.93,0,0,1-11.61,3.24s-12.68,28.06-19.43,41-31,39.67-41.82,41.29S753,331.84,753,331.84V227.41s-5.13-23.75-5.67-27.53S739.82,178,739.82,178Z"/><line class="a9df71d7-8667-4921-ac5f-afcf2e434ee6" x1="873.66" y1="192.6" x2="862.06" y2="217.42"/><line class="a9df71d7-8667-4921-ac5f-afcf2e434ee6" x1="881.22" y1="199.07" x2="872.85" y2="216.34"/><path class="afb6a05a-7435-4a4b-b781-8dab5c70c885" d="M883.37,215.53s-5.93-2.42-6.47,2.7a42.81,42.81,0,0,0-.27,7.83l-4.86,7.55"/><path class="a9df71d7-8667-4921-ac5f-afcf2e434ee6" d="M788.66,290s-3.24,11.2-10.12,18.08"/><path class="a9df71d7-8667-4921-ac5f-afcf2e434ee6" d="M835.61,284.62c-2.83,4.85-17,29.54-25.9,39.26s-21.86,19-30,14.57-25.09-31.57-25.09-31.57L753,305.42v26.42s23.74,17.81,34.54,16.19,35.08-28.33,41.82-41.29,19.43-41,19.43-41S838.44,279.76,835.61,284.62Z"/><polygon class="a983c1e0-0b3e-4677-8ff7-b66ab3e56bd3" points="773.01 460.56 727.13 438.83 744.94 444.5 773.01 460.56"/><path class="aa9a457a-7de6-4aac-9670-b2c42993d8a4" d="M737.63,750c-15.8-8.42-42.2-32.09-51.7-44.72-6.81-9.06-16.59-17.75-19-28.75-2.49,3.08-4,6.43-3.19,9.84,2,8.47,21.22,27.25,37.64,43.79s51,36.15,54.54,26c.27-.8.55-1.6.81-2.39C752.25,754.54,745.71,754.3,737.63,750Z"/><path class="f6a434ad-acec-433f-8629-14868043df8a" d="M751.41,725.89c-11.5-10.38-14.26-29.87-14.28-42.12s1.64-20.1-8.61-21.22-14.61,9.55-22.94,1.56a20,20,0,0,1-6.33-11.92,2.07,2.07,0,0,0-3.53-1.17c-4.29,4.33-11.42,11.32-15.55,14.3-3.7,2.67-9.57,6.64-13.27,11.2,2.44,11,12.22,19.69,19,28.75,9.5,12.63,35.9,36.3,51.7,44.72,8.08,4.31,14.62,4.55,19.07,3.76C759.84,744.45,762,735.45,751.41,725.89Z"/><path class="aa9a457a-7de6-4aac-9670-b2c42993d8a4" d="M746.36,892.38c-17.81-1.83-51.2-13.77-64.76-21.86-9.74-5.81-22.08-10.17-28.49-19.42-1.15,3.79-1.28,7.46.76,10.31,5.06,7.08,30,17.2,51.41,26.31s60.91,14.17,60.31,3.44l-.15-2.52C761.61,891.06,755.47,893.31,746.36,892.38Z"/><path class="f6a434ad-acec-433f-8629-14868043df8a" d="M750,864.85c-14.57-5.26-24.49-22.26-29.14-33.59s-6.07-19.23-16-16.4S695,829.23,684.23,825a20.11,20.11,0,0,1-10.38-8.64,2.06,2.06,0,0,0-3.7.25c-2.34,5.63-6.3,14.8-9,19.12-2.42,3.87-6.36,9.76-8,15.39,6.41,9.25,18.75,13.61,28.49,19.42,13.56,8.09,46.95,20,64.76,21.86,9.11.93,15.25-1.32,19.08-3.74C764.83,878.85,763.43,869.7,750,864.85Z"/><path class="ebee1605-4511-49ef-97ce-15785bd4d502" d="M718.23,420c12,3.7,28,.76,37.2-4.2a43.77,43.77,0,0,1-1-7.61s5.12-53.15,5.66-66.92c.22-5.46.39-13.7.52-21.63a78.15,78.15,0,0,1,10-36.63l.77-1.44c7.95-15.1-.67-61.62-6.58-73.1-4.1-7.95-11.24-14.58-16.32-21.55-6.87-9.43-10.1-13.12-10.1-13.12l-11.77-3s18.36,26.65,10.81,51.74-47-9.44-63.42-34c-14-13.22-22.93-18.08-22.93-18.08l-7.83,6.21a60,60,0,0,1,22.67,33.46c5.66,22.4,1.62,55.59-7,70.43a28.62,28.62,0,0,1-23.74,14.57L613.8,286s5.39,22.4,14.57,39.67,15.38,27.26,14.84,51.81a173.87,173.87,0,0,1-1.31,20.65,46.54,46.54,0,0,1-2.46,9.25,64.35,64.35,0,0,0,27.79,6.19C685.85,413.33,699.81,414.34,718.23,420Z"/><path class="a11400e7-9230-43ed-81b2-499259aa45de" d="M656.7,294.73c13-19.83,11.34-47,11.34-47l-.24-.26c-1.35,13.21-4.55,25.5-8.94,33a28.62,28.62,0,0,1-23.74,14.57L613.8,286s5.39,22.4,14.57,39.67,15.38,27.26,14.84,51.81a173.87,173.87,0,0,1-1.31,20.65,46.54,46.54,0,0,1-2.46,9.25,65.66,65.66,0,0,0,11.48,4.15c2.14-14.91.41-30.92.12-47.14-.41-22.66-15.79-59.09-15.79-59.09S643.75,314.57,656.7,294.73Z"/><path class="f619e004-cc6c-4c27-8db5-339225b50f48" d="M634.58,294.33s-19.43,41.83-36.7,54.24c2.43,43.71,4.31,62.87,3.5,90.94.81,18.35,7.56,30.76,7.56,30.76s16.19,19.16,18.35,27S628.64,518,628.64,518s-6.48,1.89-8.64-6.47-4.31-10-4.31-10,.27,8.64-1.35,15.11-.81,32.38-3,36.7-7.83-5.39-7.83-5.39-1.08,14.3-3.5,14.84-5.13-11.34-5.13-11.34-5.67,11.88-8.37-3.77-6.74-31.31-5.66-40.48,4.85-23.75,2.7-30.22-5.13-15.66-4.05-22.4c-5.4-15.65-15.65-42.64-17.27-64.76s-3-41.29,1.08-47.5S572,284.89,577.1,272.2s11.06-14,12.95-26.17,14.57-49.92,40.48-54C640,183.42,644.29,177,644.29,177s19.7,14.84,22.94,40.2S667.23,298.92,634.58,294.33Z"/><path class="a9df71d7-8667-4921-ac5f-afcf2e434ee6" d="M640.51,270.85,634,295.41l3.77-.54,4.32-17.54,8.91,9.44,1.62-2.42-9.45-12.42s6.75-7.28,7-12.68C650.5,259.52,640.51,270.85,640.51,270.85Z"/><path class="ec4a26c2-e4af-496d-9dfd-573f10639ada" d="M603.58,548.45s-.15-16.89-1-24-1.34-9.63-1.34-9.63"/><path class="ec4a26c2-e4af-496d-9dfd-573f10639ada" d="M594.84,552.3s-.3-11.11-1.48-20.59-2.07-15.11-2.07-15.11"/><path class="a9df71d7-8667-4921-ac5f-afcf2e434ee6" d="M631.61,298.38s-25.5,35.62-37.24,43.71c-2.83,11.34.81,61.93,1.62,81a296.66,296.66,0,0,0,4.86,39.26l7.24,6.21a80.53,80.53,0,0,1-6.71-29c.81-28.07-1.07-47.23-3.5-90.94,13.65-9.81,28.63-38,34.32-49.36Z"/><path class="bf9795b5-3d73-46f5-be86-21e64ff75131" d="M160.12,122.58c.13.57.27,1.13.39,1.69a9.66,9.66,0,0,0,4-.37,40.4,40.4,0,0,1,2.41-17.8,10.62,10.62,0,0,1,3.27-5c2.6-1.94,6.28-1.72,9.4-2.77,8.45-2.85,9.57-15.19,9.33-22.3,2.93,3,7.11,4.84,11.4,5.71a67.34,67.34,0,0,0,13.1.91,87.92,87.92,0,0,1-12.94-3.5c10.34-1.62,21.42,2.6,27.59,10.51a16.11,16.11,0,0,0-3.23-7.45,19.51,19.51,0,0,1,10.5,10.36c-.76-1.84.86-6.61.5-9-2.65-17-21.26-27.8-37.65-31.71-7.65-1.82-14.85-.57-22.2,1.84-5,1.66-10.62,4-12.43,8.69C146.16,63.62,140.7,86,139.38,99.76c-1.59,16.61,9.26,35.86,12.77,37,2.84.92-1.1-6-1.44-6.64-2.57-5-4.23-10.89-2.13-16.43,1.56-4.13,6.37-1.18,8.52,1.69A19.61,19.61,0,0,1,160.12,122.58Z"/><path class="bf9795b5-3d73-46f5-be86-21e64ff75131" d="M682.69,110.72c.14.56.27,1.12.4,1.68a9.66,9.66,0,0,0,4-.37,40,40,0,0,1,2.41-17.71,10.65,10.65,0,0,1,3.27-5c2.6-1.93,6.29-1.71,9.41-2.76,8.44-2.83,9.57-15.11,9.33-22.18,2.93,3,7.11,4.81,11.4,5.67A68.08,68.08,0,0,0,736,71a88.06,88.06,0,0,1-12.93-3.48c10.34-1.61,21.42,2.58,27.59,10.45a16,16,0,0,0-3.23-7.41,19.42,19.42,0,0,1,10.49,10.3c-.76-1.83.87-6.58.51-8.91-2.64-17-21.26-27.64-37.64-31.53-7.65-1.81-14.85-.57-22.2,1.84-5,1.65-10.62,3.94-12.44,8.64C668.75,52.07,663.29,74.3,662,88c-1.6,16.53,13.47,38.66,13.47,38.67-.5-.73-.26-3.6-.56-4.63a60.28,60.28,0,0,0-2.38-6.19c-1.67-4.07-4-9.69-1.43-14,2.33-3.88,6.64-1,8.61,1.62A19.41,19.41,0,0,1,682.69,110.72Z"/><path class="adddcc7a-2083-40e6-befb-acf548a030dc" d="M160.11,118.79a10.84,10.84,0,0,0-8-6.94c-6.49-1.59.08,28.51,10.39,24.82"/><path class="a50318ad-c45f-4ae2-b89a-9b7dfa3570ea" d="M160.11,118.79a11.09,11.09,0,0,0-3.4-4.1,12,12,0,0,0-4.74-2.08.79.79,0,0,0-.67.11,1.7,1.7,0,0,0-.46.73,7.46,7.46,0,0,0-.35,2.39,25.36,25.36,0,0,0,.55,5.24,38.59,38.59,0,0,0,1.37,5.17,31.72,31.72,0,0,0,2.08,4.91,14.59,14.59,0,0,0,3.13,4.18,6.11,6.11,0,0,0,2.24,1.28,5.16,5.16,0,0,0,2.65,0,5,5,0,0,1-2.76.49,6.5,6.5,0,0,1-2.71-1,13.75,13.75,0,0,1-3.9-4.18,31.11,31.11,0,0,1-4.06-10.49,25.59,25.59,0,0,1-.48-5.69,9.14,9.14,0,0,1,.62-3,3.22,3.22,0,0,1,1.16-1.46,2.49,2.49,0,0,1,2-.22,11.91,11.91,0,0,1,5,2.85A9.77,9.77,0,0,1,160.11,118.79Z"/><path class="adddcc7a-2083-40e6-befb-acf548a030dc" d="M155.74,118.53s-2.6,5.52,4.31,10.58"/><path class="a50318ad-c45f-4ae2-b89a-9b7dfa3570ea" d="M155.74,118.53a12.93,12.93,0,0,0,1.21,5.56,20.89,20.89,0,0,0,1.4,2.44c.26.41.56.81.83,1.25a10.91,10.91,0,0,1,.87,1.33,9.37,9.37,0,0,1-1.52-.59,12.44,12.44,0,0,1-1.35-.93,8,8,0,0,1-2-2.65,6.88,6.88,0,0,1-.64-3.34A5,5,0,0,1,155.74,118.53Z"/><path class="adddcc7a-2083-40e6-befb-acf548a030dc" d="M681.92,105.84a10.83,10.83,0,0,0-8-7c-6.49-1.58.07,28.52,10.39,24.83"/><path class="a50318ad-c45f-4ae2-b89a-9b7dfa3570ea" d="M681.92,105.84a11,11,0,0,0-3.4-4.11,12.08,12.08,0,0,0-4.73-2.07.78.78,0,0,0-.68.11,1.66,1.66,0,0,0-.46.72,7.29,7.29,0,0,0-.34,2.4,24.12,24.12,0,0,0,.55,5.24,37.15,37.15,0,0,0,1.37,5.17,32.09,32.09,0,0,0,2.07,4.91,14.44,14.44,0,0,0,3.14,4.18,6,6,0,0,0,2.23,1.27,5.31,5.31,0,0,0,2.66.06,5,5,0,0,1-2.76.49,6.45,6.45,0,0,1-2.71-1A13.87,13.87,0,0,1,675,119a30.9,30.9,0,0,1-4.06-10.49,24.45,24.45,0,0,1-.48-5.69,8.94,8.94,0,0,1,.62-3,3.23,3.23,0,0,1,1.15-1.45,2.45,2.45,0,0,1,2-.22,12,12,0,0,1,5,2.84A9.78,9.78,0,0,1,681.92,105.84Z"/><path class="adddcc7a-2083-40e6-befb-acf548a030dc" d="M677.68,106s-2.6,5.51,4.32,10.58"/><path class="a50318ad-c45f-4ae2-b89a-9b7dfa3570ea" d="M677.68,106a12.93,12.93,0,0,0,1.21,5.56,22.42,22.42,0,0,0,1.4,2.44c.27.41.56.81.83,1.25a12.26,12.26,0,0,1,.88,1.33,8.67,8.67,0,0,1-1.53-.6,11.92,11.92,0,0,1-1.35-.92,8.22,8.22,0,0,1-2-2.65,7,7,0,0,1-.64-3.34A5,5,0,0,1,677.68,106Z"/><polyline class="a983c1e0-0b3e-4677-8ff7-b66ab3e56bd3" points="743.24 549.47 690.62 532.47 689.81 539.75 739.2 550.28"/><path class="ee377336-18f1-49cd-912e-4941eed2c0db" d="M414.79,305.8a85.77,85.77,0,0,1,8.88,4.8c2.84,1.73,5.59,3.56,8.29,5.46s5.32,3.87,7.9,5.91,5.09,4.14,7.57,6.28l3.95,3.41-3.9,3.45-3.73,3.3-3.82,3.21c-2.59,2.1-5.19,4.17-7.9,6.13s-5.46,3.87-8.32,5.67a85.64,85.64,0,0,1-8.92,5,84.44,84.44,0,0,1,5.89-8.36c2.08-2.66,4.26-5.2,6.5-7.69s4.56-4.87,6.91-7.23l3.58-3.47,3.68-3.37,0,6.85c-2.46-2.17-4.88-4.38-7.24-6.66s-4.67-4.63-6.91-7-4.43-4.91-6.52-7.49A86.07,86.07,0,0,1,414.79,305.8Z"/></svg>