<svg id="adf18fb2-c8fa-4b81-ac66-02ce47b362b9" data-name="Layer 1" xmlns="http://www.w3.org/2000/svg" viewBox="0 0 938 938"><defs><style>.b0b1769d-0ddd-4b3a-9ce1-089cc06e1a36,.bab0af78-acab-4da1-bb2e-f4129dc5664b,.bd14921f-c85a-4ced-a506-47aac0733da8{fill:#fcc7b4;stroke-miterlimit:10;}.b0b1769d-0ddd-4b3a-9ce1-089cc06e1a36{stroke:#a67167;stroke-width:0.5px;}.a1df2106-f892-4435-bf30-ea10fa7889bd{fill:#e59c95;}.bab0af78-acab-4da1-bb2e-f4129dc5664b{stroke:#8f6159;}.bab0af78-acab-4da1-bb2e-f4129dc5664b,.bd14921f-c85a-4ced-a506-47aac0733da8{stroke-width:0.75px;}.a4889287-858f-4780-93ba-d5d6cd23c91e{fill:#ef9d0c;}.a7186a42-46cb-414d-8d79-0dc19769a22f{fill:#6b3d35;}.bd14921f-c85a-4ced-a506-47aac0733da8{stroke:#c48579;}.a4fbcd95-0f82-498a-8adb-f34e68f581f8{fill:#848689;}.a0b6cfc8-d593-493d-aa95-4c8382e0e6c4{fill:#616264;}.ed3e189c-8ca3-42af-b49b-ee60f7f72a11{fill:#7cafc4;}.a3468b88-ce03-47dc-8621-08132b88d9e8{fill:none;}.bcbb1bff-2201-4fd9-b8d4-bf5a2c8e2589{fill:#0e7987;}.f4875737-d7be-4a42-82c6-8bfe95ac55cd{fill:#1795a4;}.afd42cef-9d83-4368-932a-a1f2ae187174{fill:#0f7c89;}.a6a5b6cc-6814-40c3-9922-a0d31ba2e07c{fill:#fcfcfc;}</style></defs><path class="b0b1769d-0ddd-4b3a-9ce1-089cc06e1a36" d="M241.17,624.51l.39-3.56c.65-5.59,1.17-11.2,1.6-16.81l-58.06-.44-8.8-.07,6,25.59-.64,1.51s.36,2.43,2.63,16,2.65,43.53,4.94,56.7,5.28,14.78,1.87,33.95-1.89,36.34,2.27,57.5a99.48,99.48,0,0,1,1.49,12.35c1.33,20.62-1.49,53.54-1.49,53.54h25.35a243.36,243.36,0,0,1,1.65-27.26c3.36-29.61,16.54-57.44,16.47-87.75,0-18.77-4.58-41.53-4.58-41.53s3.11-14.37,1.22-26c-1.72-10.54-1.48-20.69,2.27-30.75a89.49,89.49,0,0,0,3.06-10.22q1-4.08,1.71-8.21C240.79,627.58,241,626,241.17,624.51Z"/><path class="b0b1769d-0ddd-4b3a-9ce1-089cc06e1a36" d="M153.24,806.39a94.76,94.76,0,0,1,1.43-11.5c4.16-21.16,5.67-38.34,2.27-57.5s-.41-20.77,1.87-33.95,2.67-43.12,4.94-56.7,2.63-16,2.63-16l-.08-.19,4.64-26.95-8.63-.06-57.79-.44c.62,6.79,1.45,13.48,2.55,20l-.45.12s1.51,13.18,5.67,24.36,4.16,19.17,2.27,30.75,1.22,26,1.22,26-4.54,22.76-4.58,41.53a129.55,129.55,0,0,0,2.18,21.15c1.19,7.2,2.64,14.35,4.15,21.49.5,2.32,1,4.65,1.49,7,1,5,2.73,9.84,4.22,14.72a109,109,0,0,1,3.23,14.84c1.14,7.2,1.86,14.47,2.32,21.75.28,4.36.47,8.74.52,13.11,0,.33,0,.65,0,1h25.35s-2.9-33.61-1.43-54.39m-8.94-1Z"/><path class="a1df2106-f892-4435-bf30-ea10fa7889bd" d="M166.65,603.56c-3.77,18.89-10.35,53.45-11.83,71.53-2.09,25.69-6.11,37.72-1.88,61.78,2.27,12.89,2.11,38.51,1.47,59.5.08-.5.16-1,.26-1.48,4.16-21.16,5.67-38.34,2.27-57.5s-.41-20.77,1.87-33.95,2.67-43.12,4.94-56.7,2.63-16,2.63-16l-.08-.19,4.64-26.95Z"/><path class="a1df2106-f892-4435-bf30-ea10fa7889bd" d="M181.25,604c3.77,18.89,10.35,53.44,11.82,71.52,2.09,25.7,6.11,37.73,1.88,61.78-2.27,12.9-2.11,38.51-1.47,59.5-.08-.49-.16-1-.26-1.47-4.16-21.17-5.67-38.34-2.27-57.51s.41-20.76-1.87-33.94-2.67-43.13-4.94-56.7-2.63-16-2.63-16l.08-.19L177,604Z"/><path class="b0b1769d-0ddd-4b3a-9ce1-089cc06e1a36" d="M852.76,778.66c0-.39,0-.78-.07-1.17-1.55-27.25-4.39-57-16.63-81.49-3.16-6.34-7.25-12.18-9.85-18.8a92,92,0,0,1-4.14-16.05c-3.25-16.71-7.32-33.23-13.6-48.89l-92.79,3.36-11.75.43c9.93,10.12,20.23,19.84,30.23,29.87,14.25,14.29,28.34,27.92,37.35,46.57l19.59,40.57c5.92,12.25,10.18,24.64,17.49,36.16,4.49,7.08,9.37,13.95,13.95,21,3,4.54,5.77,9.16,8.28,14,8.57,16.51,9.39,40.23,9.39,40.23l20.87,8.22,11.47-18.1S854.78,814.86,852.76,778.66Z"/><path class="b0b1769d-0ddd-4b3a-9ce1-089cc06e1a36" d="M581.52,620.48q-2.19,5.61-4.33,11.25c-5.38,14.24-11.69,28.06-17.9,41.91-8.16,18.22-21.9,33.07-29.46,51.42-7.81,19-8.55,41.37-9.67,61.76,0,.29,0,.59,0,.89-2,36.2-19.79,55.9-19.79,55.9l11.47,18.11,20.87-8.22s.82-23.73,9.4-40.24c2.36-4.54,5.53-9.61,9-14.92,9.14-14,20.41-29.63,24.8-41.78,4.32-12,8.72-22.85,15-34l28.37-50c8.15-14.37,20.42-25.83,32-37.24l18.26-18-12.63.45Z"/><path class="b0b1769d-0ddd-4b3a-9ce1-089cc06e1a36" d="M228.18,800.48c.08-.22.07-.24,0-.12S228.16,800.53,228.18,800.48Z"/><path class="bab0af78-acab-4da1-bb2e-f4129dc5664b" d="M148.39,233.64c-1.56,1.45-.63,13.53-.77,16.18-.28,5-.09,10.81-2.57,15.29-1.64,2.95-4.27,3.46-6.36,5.61L128,281.65l37.65,112.64,50-110.61L202.34,273c-8-5.19-5.77-13.57-6.33-25.09l-1-20.1Z"/><path class="bab0af78-acab-4da1-bb2e-f4129dc5664b" d="M206.23,277.28s43.08,12.7,48.34,29.42,7.09,40.67,12.3,47.58,15.95,38.47,19.74,55.61c10.31,28.93,12.36,44.77,9,71.3s-1,41.43-2.31,55.35S284,574,284,574s-8.58,7.07-6.87-10.86a194.79,194.79,0,0,0,.82-29.73l-11,7.84s-4.14-3.46-.43-9,10.08-13.64,9.37-27.56S260.29,468.65,260,444.4s-7.18-26.76-25.11-55.36-27.31-59.94-27.31-59.94Z"/><path class="a1df2106-f892-4435-bf30-ea10fa7889bd" d="M260.59,443.33c-.38-24.24-6.79-25.9-24.77-54.58S208,327.8,208,327.8l-.51-10.52c4.69,19.3,19.41,37.89,19.41,37.89l-1-17.38s6.58,29.11,8.64,38.06,25.18,46.46,25.18,46.46,1.59-10.5,1.68-8.87,3.86,29.36,6.42,45.64c1.37,8.67,3.78,21.67,5.74,31.92C269,477.86,260.86,461.14,260.59,443.33Z"/><path class="a1df2106-f892-4435-bf30-ea10fa7889bd" d="M276.62,506.86v0h0Z"/><path class="bab0af78-acab-4da1-bb2e-f4129dc5664b" d="M127.91,280.39s-43.46,12.17-47.8,29.19-4.84,41-9.66,48.26-13.8,39.38-16.65,56.72c-8.7,29.51-9.87,45.45-5,71.73s3.25,41.3,5.35,55.11,11.33,36.86,11.33,36.86,9,6.53,6.27-11.26a194.11,194.11,0,0,1-2.46-29.63l11.43,7.15s3.94-3.71-.07-9-10.81-13-10.86-26.94,13.55-37,12.56-61.2,5.3-26.24,21.63-55.89,24.36-62.43,24.36-62.43Z"/><path class="a1df2106-f892-4435-bf30-ea10fa7889bd" d="M82.31,447.38c-1-24.23,5.31-26.24,21.64-55.89s24.36-62.43,24.36-62.43l-.09-10.53C124.63,338.06,111,357.45,111,357.45V340s-4.92,29.44-6.47,38.49S82,426.34,82,426.34s-2.19-10.39-2.19-8.75S77.64,447.11,76,463.51c-.87,8.73-2.54,21.85-3.92,32.2C75.9,482.33,83.05,465.18,82.31,447.38Z"/><path class="a1df2106-f892-4435-bf30-ea10fa7889bd" d="M69.91,511.72v0h0Z"/><path class="a4889287-858f-4780-93ba-d5d6cd23c91e" d="M215.31,279.28s-9.94,62.34,15.2,90.73c1.46,11.42-4,17.72-3.8,46.91.12,13.46,1.13,63.09,1.13,63.09s10.4,21.44-29.75,16c-36.66-5-87.68,8.81-88.81-10s7.84-61.12,2.16-81.88-2.86-29.5-2.86-29.5,29.24-32.41,14.33-92.9a28.11,28.11,0,0,1,11.61-7.38s12.4,48.12,36.34,48.12,31.39-49.72,31.39-49.72Z"/><path class="bab0af78-acab-4da1-bb2e-f4129dc5664b" d="M668.13,262.65c-1.56,1.45-.63,13.53-.77,16.18-.28,5-.09,10.81-2.57,15.29-1.64,2.95-3.46,5.22-6.36,5.61-3.63.48-10.65,10.93-10.65,10.93L685.43,423.3l50-110.61L722.08,302c-8-5.19-5.77-13.57-6.33-25.09l-1-20.1Z"/><path class="b0b1769d-0ddd-4b3a-9ce1-089cc06e1a36" d="M679.36,290.28a20.75,20.75,0,0,0,13,2.06c14.72-2.17,25.47-19.17,30.86-33.43,2.32-6.13,2.82-14.82,3.74-21.53,1.51-11.08,2.73-22.75,1.95-34.13a48.25,48.25,0,0,0-12.53-28.95,32.4,32.4,0,0,0-34.49-8.3c-13.84,4.88-21,17.65-24.72,32.63a151.77,151.77,0,0,0-3.5,22.1c-1.89,19.88,3.94,39.09,8.68,48.64C666.69,278.13,671.92,286.4,679.36,290.28Z"/><path class="b0b1769d-0ddd-4b3a-9ce1-089cc06e1a36" d="M658.79,216.37s-4.29-3.45-7.87,1.44-.27,10.21.49,17.13,4.24,9.95,4.94,6.15"/><path class="b0b1769d-0ddd-4b3a-9ce1-089cc06e1a36" d="M729.28,221.45s4.49-2.47,6.62,3-1.87,9.9-4,16.42-5.77,8.74-5.61,4.94"/><path class="a1df2106-f892-4435-bf30-ea10fa7889bd" d="M672,276.9c-5.79-6.68-20.56-36.31-14.08-65.31,4.31-19.3,15.55-36.87,21.2-43.87-11.28,5.77-17.45,17.44-20.77,30.91a153.14,153.14,0,0,0-3.5,22.1c-1.88,19.88,3.94,39.09,8.69,48.64,3.51,7.07,7.57,15.43,14,19.77,6.7,4.57,16.17,3.77,23.08.38,7.5-3.69,13.48-10.64,17.5-18.62-6.69,6.6-14.91,14.77-24,16.43C685.37,288.92,677.83,283.61,672,276.9Z"/><path class="a7186a42-46cb-414d-8d79-0dc19769a22f" d="M655.93,228.5l2.79,0c-.14-3.66.68-14.89,3.27-17.41,4-3.85,7.72-13.12,10.08-18.11,0,0,9.56,4.45,17.68,2.65-.53.35-6.5-3-6.52-3,.73.4,3.08-.23,3.91-.21a35.84,35.84,0,0,1,9.19,1.82c6.28,1.9,11.94,4.56,18.62,4.66,1.44,0,3,0,4.15,1a6.71,6.71,0,0,1,1.48,2.51c2.24,5.6,4.69,12.69,4.49,18.92a84.32,84.32,0,0,0,.41,13.18l1.94-1.14,2.34-7.45c.32-1,.83-4.31,1.66-4.92,1.52-1.15,3.12.45,3.42,2.45l.6-26.26c.15-6.65-2.18-16.74-5.75-22.23-4.37-6.72-11.52-10.89-18.46-13.38a68.92,68.92,0,0,0-21.1-3.5l9.23-2.31a38.87,38.87,0,0,0-22.13,3.08c-3.41,1.55-7,4.09-7.7,8.12a9.65,9.65,0,0,0-8.53-2,9.22,9.22,0,0,1,7.63,4.09C656.08,167.93,651,184.43,649,195.78a92.77,92.77,0,0,0-1.3,16.15c0,2,1.45,9.21.56,10.79,1.56-2.79,1.83-7.4,5.81-7.19C653.73,219.74,655.07,224.36,655.93,228.5Z"/><path class="bab0af78-acab-4da1-bb2e-f4129dc5664b" d="M613.88,369l0,0-5.76-9.61c-4.24-7.05-3.12-15-6.33-22.4C597,326,587,318.45,581.83,307.71c-6.3-13-11.09-37.27-9.58-65.22s-9.59-25-7.82-46.59S584.86,136,596,115s12.36-24,12.36-33.54,2-15.71,8.83-25.83,8.32-20,12.1-30.34,9.08-7.19,7.07,0-4.8,26.08-4.8,26.08,6.81-16.77,13.37-28.48,11.1-6.39,9.59-1.6c0,0,5.29-5.59,8.07-1.06s-11.1,33-11.1,33,1.51,4.52,6.31-1.33S668.1,37.5,674.15,36.7s-6.56,16.24-15.39,28C653,71,652.21,74,652.21,74l.75,9s15-2.66,22.78,1.87S671.63,90,662.8,93.14s-20.18,6.39-31.28,6.39c-16.9,35.14-13.62,43.66-18.91,63.36s-10.35,38.34-12.36,45.52.25,12,.25,12S621.94,246.75,626,275c9.36,7.52,16.81,21.5,27.64,25a3.66,3.66,0,0,1,2,1.18,4,4,0,0,1,.53,2.13,124.8,124.8,0,0,1-2.86,34.54c-.72,3.17-10.08,41.14-12.69,40.67-5.52-1-11-1.57-16.48-2.67-2.48-.49-5.06-1-7-2.69A16.19,16.19,0,0,1,613.88,369Z"/><path class="bab0af78-acab-4da1-bb2e-f4129dc5664b" d="M729.75,298.52s11.82-19.82,25.44-29.14c4-26.62,10.6-38.87,24.47-55.38-5.8-28.48-6.81-39.66-6.56-59.89S760.24,103,760.24,103s-6.31-.27-14.38-7.45-23.21-13.05-23.21-13.05-1.26-6.39,7.07-4.52,16.14,4.26,16.14,4.26a36.39,36.39,0,0,0-10.09-16c-7.57-6.65-20.18-20.76-20.18-26.89s8.07.8,13.12,6.93S743.09,60.4,743.09,60.4a201.72,201.72,0,0,0-9.59-20.77c-4.79-8.52-5.8-13.84-2.77-16.77s10.34,9.58,10.34,9.58-4.54-11.18.25-12.51,19.42,28.49,19.42,28.49-8.32-16.78-5.3-24c1.77-2.4,8.58,7.18,14.13,20.23s19.42,29.82,14.63,49c7.06,23.43,21.69,68.69,25.22,82.27s5.3,35.14,2.27,46.32c-1.51,24-1.76,38.6-13.62,63.09s-23.71,48.45-23.71,48.45-.68,26.48-4.79,38.74c-17.66,19.57-22.2,24.36-22.2,24.36L733.5,327.41Z"/><line class="bd14921f-c85a-4ced-a506-47aac0733da8" x1="287.24" y1="543.58" x2="282.2" y2="575.06"/><line class="bd14921f-c85a-4ced-a506-47aac0733da8" x1="60.19" y1="550.3" x2="66.96" y2="581.41"/><path class="b0b1769d-0ddd-4b3a-9ce1-089cc06e1a36" d="M760.24,103a13.34,13.34,0,0,0,7.82-1.6"/><line class="b0b1769d-0ddd-4b3a-9ce1-089cc06e1a36" x1="740.19" y1="29.91" x2="753.43" y2="55.07"/><line class="b0b1769d-0ddd-4b3a-9ce1-089cc06e1a36" x1="663.98" y1="19.89" x2="649.14" y2="55.07"/><path class="b0b1769d-0ddd-4b3a-9ce1-089cc06e1a36" d="M159.62,261.27a20.75,20.75,0,0,0,13,2.06c14.72-2.17,25.47-19.17,30.86-33.43,2.32-6.13,2.82-14.82,3.74-21.53,1.51-11.08,2.73-22.75,1.95-34.13a48.23,48.23,0,0,0-12.53-29,32.39,32.39,0,0,0-34.48-8.3c-13.85,4.88-21,17.65-24.73,32.63a151.77,151.77,0,0,0-3.5,22.1c-1.88,19.88,3.94,39.09,8.68,48.64C147,249.12,152.18,257.39,159.62,261.27Z"/><path class="b0b1769d-0ddd-4b3a-9ce1-089cc06e1a36" d="M137.26,187.36s-4.29-3.45-7.87,1.44-.27,10.21.49,17.13,4.24,9.95,5,6.15"/><path class="b0b1769d-0ddd-4b3a-9ce1-089cc06e1a36" d="M208.34,192.44s4.49-2.47,6.62,3-1.87,9.9-4,16.42-5.77,8.74-5.61,4.94"/><path class="a1df2106-f892-4435-bf30-ea10fa7889bd" d="M151.07,247.89c-5.79-6.68-20.56-36.31-14.08-65.31,4.31-19.3,15.55-36.87,21.2-43.87-11.28,5.77-17.45,17.44-20.77,30.91a151.77,151.77,0,0,0-3.5,22.1c-1.88,19.88,3.94,39.09,8.69,48.64,3.5,7.06,7.56,15.43,13.94,19.77,6.7,4.57,16.17,3.77,23.08.37,7.51-3.68,13.49-10.63,17.51-18.61-6.69,6.6-14.92,14.77-24,16.43C164.43,259.91,156.89,254.6,151.07,247.89Z"/><path class="a7186a42-46cb-414d-8d79-0dc19769a22f" d="M135,199.49l2.79,0c-.14-3.66.68-14.89,3.27-17.41,4-3.85,7.72-13.12,10.08-18.11,0,0,9.56,4.45,17.67,2.65-.52.35-6.49-3-6.51-3,.72.4,3.08-.23,3.91-.21a35.84,35.84,0,0,1,9.19,1.82c6.28,1.9,11.94,4.56,18.62,4.66,1.44,0,3,0,4.15,1a6.71,6.71,0,0,1,1.48,2.51c2.24,5.6,4.69,12.69,4.48,18.92a85.57,85.57,0,0,0,.42,13.18l1.94-1.14,2.34-7.45c.32-1,.83-4.31,1.65-4.92,1.53-1.15,3.13.45,3.43,2.45l.6-26.26c.15-6.65-2.18-16.74-5.75-22.23-4.38-6.72-11.52-10.89-18.46-13.38a68.92,68.92,0,0,0-21.1-3.5l9.23-2.31a38.86,38.86,0,0,0-22.13,3.08c-3.41,1.55-7,4.09-7.7,8.12a9.66,9.66,0,0,0-8.53-2,9.18,9.18,0,0,1,7.62,4.09C135.14,138.92,130,155.42,128,166.77a92.77,92.77,0,0,0-1.3,16.15c0,2,1.45,9.21.56,10.79,1.56-2.79,1.83-7.4,5.8-7.19C132.79,190.73,134.12,195.35,135,199.49Z"/><path class="a4fbcd95-0f82-498a-8adb-f34e68f581f8" d="M517.62,912.15c-15.79-6.48-14.91,3.71-25.44,1.85-6.92-1.21-11.56-12.44-13.93-20-1.6,10,.17,18.67,6.55,23.6,7.33,5.66,16.8,5,25.29,3.65,7-1.12,18.74-2.12,22.12-10,2.13-5,.31-11.52-2.51-15.77C529.49,906.67,525.52,914.93,517.62,912.15Z"/><path class="a1df2106-f892-4435-bf30-ea10fa7889bd" d="M794.61,127.23c3.61,17.62,14.7,74.18,12.49,92.84-2.63,22.22-16.66,65.74-21.93,80.09s-15.35,28.24-15.35,28.24l-4.38-17.13s-2.64,15.74,0,23.15c2.57,7.24,3.88,26.85-.16,42.86,1.34-1.47,2.76-3,4.29-4.74,4.11-12.26,4.79-38.74,4.79-38.74s11.86-24,23.71-48.45,12.11-39.13,13.62-63.09c3-11.18,1.26-32.75-2.27-46.32C807.25,167.56,800.85,147.15,794.61,127.23Z"/><path class="a1df2106-f892-4435-bf30-ea10fa7889bd" d="M613.19,344c-3.51-14.81.43-24.07.43-24.07l-7,9.26S594.33,312.53,586,294.48s-6.14-62.5-6.14-62.5l-1.28,1.41a65.64,65.64,0,0,1,.64,15c-1.51,28,3.28,52.18,9.59,65.23,2.55,5.27,6.19,9.85,9.75,14.38,1.8,2.29,3.51,3.93,4,6.82s.63,5.79,1.2,8.66a72.74,72.74,0,0,0,14,30.76c2.36-3.27-.59-10.79-1.3-14.45C615.49,354.5,614.42,349.24,613.19,344Z"/><path class="a0b6cfc8-d593-493d-aa95-4c8382e0e6c4" d="M526,885.94s-.29-3.46,5.77-15.71S532,847.61,520.87,842s-24.72,2.13-28.25,9.05.76,6.12-7.82,23.42A69.79,69.79,0,0,0,478.25,894c2.37,7.54,7,18.77,13.93,20,10.53,1.86,9.65-8.33,25.44-1.85,7.9,2.78,11.87-5.48,12.08-16.62C524.4,887.54,526,885.94,526,885.94Z"/><path class="a4fbcd95-0f82-498a-8adb-f34e68f581f8" d="M852.13,898.26c15.79-6.48,14.91,3.71,25.44,1.86,6.92-1.22,11.57-12.44,13.94-20,1.59,10-.17,18.67-6.56,23.6-7.32,5.67-16.8,5-25.29,3.65-7-1.12-18.74-2.12-22.11-10-2.14-5-.31-11.52,2.51-15.77C840.26,892.79,844.24,901,852.13,898.26Z"/><path class="a0b6cfc8-d593-493d-aa95-4c8382e0e6c4" d="M843.8,872.05s.29-3.46-5.76-15.7-.25-22.63,10.84-28.22,24.72,2.13,28.25,9-.75,6.12,7.82,23.43a69.34,69.34,0,0,1,6.56,19.52c-2.37,7.55-7,18.77-13.94,20-10.53,1.85-9.65-8.34-25.44-1.86-7.89,2.78-11.87-5.47-12.07-16.62C845.35,873.65,843.8,872.05,843.8,872.05Z"/><path class="a4889287-858f-4780-93ba-d5d6cd23c91e" d="M628.73,510.1l-.38-6s6.06-31.55-2.27-63.49-7.18-55.11-11.72-70.29c0,0,28.13-4.39,38.87-70.57.1-.62,6.37-.82,6.78-.4,4.42,4.68,7,54.17,35.27,50.35,17.36-2.35,24.85-50.35,24.85-50.35l9.62-2.11s2.4,28.34,7.21,43.57c4.68,14.82,17.76,24.72,32.52,31.51.38,1.6-4.16,10-9.08,28.55s-2.65,19-8.7,46.12,2.64,29.95,3,43.53l.38,13.58S715.75,551.23,628.73,510.1Z"/><path class="a4fbcd95-0f82-498a-8adb-f34e68f581f8" d="M136.16,902c-8.34-5.09-11.84,3.7-18.86,2.78-3.84-.51-6.1-6.68-7.36-12.18-.93,5-1.19,9.9.46,12.64,3.07,5.09,21.49,7.41,31.58,5.55s16.67-6,14.91-13.88c-.08-.4-.15-.78-.22-1.15C152.11,901.94,143,906.13,136.16,902Z"/><path class="a0b6cfc8-d593-493d-aa95-4c8382e0e6c4" d="M158.65,874.66c1.31-9.73.88-21.76-.88-22.23s-2.19-12.49-7-14.81-18,0-18,0,0,11.57-3.51,10.19,3.07-3.71-2.19-7.87c0,0-4.39,13-4.83,21.75s-7,12-9.21,19a103.19,103.19,0,0,0-3.09,11.9c1.26,5.5,3.52,11.67,7.36,12.18,7,.92,10.52-7.87,18.86-2.78,6.81,4.16,16,0,20.51-6.24C155.36,888.54,157.4,883.89,158.65,874.66Z"/><path class="a4fbcd95-0f82-498a-8adb-f34e68f581f8" d="M213.23,902c8.34-5.09,11.85,3.7,18.86,2.78,3.84-.51,6.1-6.68,7.36-12.18.93,5,1.19,9.9-.46,12.64-3.07,5.09-21.49,7.41-31.58,5.55s-16.67-6-14.91-13.88c.08-.4.16-.78.22-1.15C197.28,901.94,206.43,906.13,213.23,902Z"/><path class="a0b6cfc8-d593-493d-aa95-4c8382e0e6c4" d="M190.74,874.66c-1.31-9.73-.87-21.76.88-22.23s2.19-12.49,7-14.81,18,0,18,0,0,11.57,3.51,10.19-3.07-3.71,2.19-7.87c0,0,4.39,13,4.83,21.75s7,12,9.21,19a103.19,103.19,0,0,1,3.09,11.9c-1.26,5.5-3.52,11.67-7.36,12.18-7,.92-10.52-7.87-18.86-2.78-6.8,4.16-15.95,0-20.51-6.24C194,888.54,192,883.89,190.74,874.66Z"/><path class="ed3e189c-8ca3-42af-b49b-ee60f7f72a11" d="M172.88,600.59l2.28,7.36a372.56,372.56,0,0,0,75.55-.21l-4.26-32.68-1.11-8.52c-3.82-29.29-6.7-60.32-17.86-87.8-9.84,3.2-38.79,16.25-116.52,4.47-3.86-.58-16.23,113.52-16.62,122.63a708,708,0,0,0,77.75,2.42A19.87,19.87,0,0,1,172.88,600.59Z"/><polygon class="a3468b88-ce03-47dc-8621-08132b88d9e8" points="170.94 603.59 176.3 603.63 173.21 590.43 170.94 603.59"/><path class="bcbb1bff-2201-4fd9-b8d4-bf5a2c8e2589" d="M175.63,540s-.74,11.28-.25,23.92c.21-.64.25-.78.25-.78Z"/><path class="a3468b88-ce03-47dc-8621-08132b88d9e8" d="M694.82,606.49c-.36-.38-.72-.78-1.1-1.16-1.53-1.56-3.23-3-5.31-3.16-3-.31-5.7,2.06-7.94,4.27l-11,10.86,34.46-1.25Q699.31,611.34,694.82,606.49Z"/><path class="f4875737-d7be-4a42-82c6-8bfe95ac55cd" d="M551.06,798.34c-.81-.1-1.62-.21-2.42-.33C549.44,798.13,550.25,798.24,551.06,798.34Z"/><path class="bcbb1bff-2201-4fd9-b8d4-bf5a2c8e2589" d="M689.44,579.52a21.09,21.09,0,0,0,1-5.31S689.25,575.94,689.44,579.52Z"/><path class="bcbb1bff-2201-4fd9-b8d4-bf5a2c8e2589" d="M548.64,798h0Z"/><path class="afd42cef-9d83-4368-932a-a1f2ae187174" d="M163.48,608.41s8.38-23.85,10.14-34.19,1.59-41.82,1.59-41.82.46,44.83,1.74,53.57,5.44,23.8,5.44,23.8H176.3l-3.42-9.18-.79,7.67Z"/><path class="ed3e189c-8ca3-42af-b49b-ee60f7f72a11" d="M628.35,504.11l-12.1,9.29L572.37,622.6H675.29l13.48-18.69,18.78,18.69,108.79-5.3-49.2-101L754,505.83S703.88,523.38,628.35,504.11Z"/><polygon class="afd42cef-9d83-4368-932a-a1f2ae187174" points="669.47 622.6 686.7 597.03 689.93 565.86 688.77 603.91 675.29 622.6 669.47 622.6"/><path class="a1df2106-f892-4435-bf30-ea10fa7889bd" d="M657.84,622.6s-26,23.58-37.48,39.45-36.13,60.11-44.24,85.78c-5.7,18-17.8,38.86-24.5,49.65,9-13.76,19.94-29,24.24-40.92s8.72-22.85,15-34l28.37-50c8.15-14.37,20.42-25.83,32-37.24L664.1,622.6h-6.26Z"/><path class="a1df2106-f892-4435-bf30-ea10fa7889bd" d="M717.32,622.49s26.48,23,38.29,38.67S793,720.51,801.6,746c6.07,17.93,18.61,38.49,25.52,49.14-9.32-13.57-20.53-28.6-25.07-40.41s-9.19-22.66-15.72-33.64Q771.65,696.37,757,671.64c-8.45-14.2-21-25.4-32.74-36.57l-13.15-12.45h0Z"/><path class="a6a5b6cc-6814-40c3-9922-a0d31ba2e07c" d="M415,437.89a83.7,83.7,0,0,1,8.52,4.61c2.74,1.66,5.38,3.43,8,5.25s5.12,3.72,7.59,5.68,4.9,4,7.28,6l3.79,3.27-3.74,3.31-3.59,3.18-3.67,3.08c-2.48,2-5,4-7.59,5.89s-5.25,3.72-8,5.45a83.61,83.61,0,0,1-8.57,4.8,83.1,83.1,0,0,1,5.65-8c2-2.55,4.1-5,6.25-7.38s4.38-4.68,6.64-6.94l3.44-3.34,3.53-3.24,0,6.59c-2.36-2.09-4.69-4.21-6.95-6.41s-4.49-4.44-6.65-6.76-4.25-4.72-6.26-7.2A82.31,82.31,0,0,1,415,437.89Z"/></svg>