<svg id="a3752f60-b82a-457f-bd26-9c7227d38a19" data-name="Layer 1" xmlns="http://www.w3.org/2000/svg" viewBox="0 0 938 938"><defs><style>.af3fce94-91fd-4799-99a6-442fc14c56ce{fill:#0e7987;}.a4d7e6c6-8371-4e7a-bb04-97960ad56076,.bcfcbce5-5734-42b2-9c40-9b4718868fc0{fill:#fcc7b4;}.ace54d1c-34ce-494e-835f-ca826c30bcf7{fill:#848689;}.a51edb10-85f6-4445-baa7-00752348d39f{fill:#4d4d4f;stroke:#808285;}.a51edb10-85f6-4445-baa7-00752348d39f,.bcfcbce5-5734-42b2-9c40-9b4718868fc0{stroke-miterlimit:10;}.aa86b99d-efc8-48d8-9b0e-430b261f8a15{fill:#e59c95;}.e6f2d53f-0295-4e34-a487-416be0e2aab5{fill:#7cafc4;}.bcfcbce5-5734-42b2-9c40-9b4718868fc0{stroke:#a67167;stroke-width:0.5px;}.ad7638a5-feb9-4799-90f7-6080260da03c{fill:#a67167;}.ba4fb887-5e40-480a-9ad8-d578e7c13541{fill:#6b3d35;}.b2ae2d7c-b383-4d02-9fbc-54626f838eab{fill:#ef9d0c;}.b5d57edd-eb77-472f-a6e6-cfe72414c750{fill:#fff;}</style></defs><path class="af3fce94-91fd-4799-99a6-442fc14c56ce" d="M829.38,745.81h0l-.21,0Z"/><path class="a4d7e6c6-8371-4e7a-bb04-97960ad56076" d="M867.25,589.77c-5.14-8-55.64-17-87.74-19.28l-.17,1.21c-3.05-.41-6.09-.83-9.14-1.21l.45,61.71-2.25,15.63-.71,4.93-.1.47s0,0,0,0l0,.23.3-.08c3,.64,29-5.6,43.35-9.1-2.41.58-4.57,19.78-4.81,21.9a181.62,181.62,0,0,0,1.46,51.49c3,17.41,7.9,34.76,6.44,52.6-.27,3.3-2.27,27.85-5.29,44.37-1.43,5.93-2.44,9.4-2.44,9.4l.34-.05c-1,3.42-2.09,5.61-3.23,5.78l45.33-7s0-1.93-.13-5.27l3-.46s-1.26-43.5.33-77.94c.36-7.91.87-15.34,1.59-21.66,3.83-33.84,16-68.32,16.6-86.19S873,598.71,867.25,589.77Z"/><path class="a4d7e6c6-8371-4e7a-bb04-97960ad56076" d="M867.25,589.77c-5.14-8-55.64-17-87.74-19.28l-.17,1.21c-3.05-.41-6.09-.83-9.14-1.21l.45,61.71-2.25,15.63-.71,4.93-.1.47s0,0,0,0l0,.23.3-.08c3,.64,29-5.6,43.35-9.1-2.41.58-4.57,19.78-4.81,21.9a181.62,181.62,0,0,0,1.46,51.49c3,17.41,7.9,34.76,6.44,52.6-.27,3.3-2.27,27.85-5.29,44.37-1.43,5.93-2.44,9.4-2.44,9.4l.34-.05c-1,3.42-2.09,5.61-3.23,5.78l45.33-7s0-1.93-.13-5.27l3-.46s-1.26-43.5.33-77.94c.36-7.91.87-15.34,1.59-21.66,3.83-33.84,16-68.32,16.6-86.19S873,598.71,867.25,589.77Z"/><path class="ace54d1c-34ce-494e-835f-ca826c30bcf7" d="M797.09,845.87c-.69,9.29,8.35,8.5,19.18,11.12,11.23,2.72,25.82.69,37.92,1.41s67.73,4.22,65.65-8.76a29.77,29.77,0,0,0-.87-3.82c-9.55,6-30.17,6.73-68.24,6C819.33,851.27,804.11,848.14,797.09,845.87Z"/><path class="a51edb10-85f6-4445-baa7-00752348d39f" d="M902.1,833.42c-8.4-3-14.31-8.86-28.63-16.91s-12.07-16.87-16.77-22.25-11.78,2.52-23.83,15.12-21.19-7.83-26.45-7.57-4.94,18.85-4.94,18.85-2.78,13.66-4.27,24.12c-.05.37-.09.74-.12,1.09,7,2.27,22.24,5.4,53.64,6,38.07.7,58.69,0,68.24-6C916.15,836.6,909.57,836.14,902.1,833.42Z"/><path class="a4d7e6c6-8371-4e7a-bb04-97960ad56076" d="M597,724.75c-3.36,0-5.09,31.79-5,34.06-8.57-9.67-22.52-12.86-35.42-12.18-18.18,1-35.32,7.78-53.47,8.9-3.13.2-6.18.33-9.1.39s-5.72,0-8.37-.06c-28.25-1.13-72.33.18-72.33.18l10.89,52.34s37.11-18.85,80.91-12.77c.67.09,1.35.17,2,.28,44.68,7,95.33,16.69,106.29,17.81s32.73.4,39.32-20.91c3.53-11.4,11.59-37.91,20.45-63.09l-9-.58Z"/><path class="aa86b99d-efc8-48d8-9b0e-430b261f8a15" d="M664.28,729.12c-7,19.36-19.19,72-30.58,75-14,3.68-87.58-12.91-115.24-17.39s-74.21,16.93-74.21,16.93l-3.59-1.75c14.93-4.79,38.5-9.93,64.43-6.33.67.09,1.35.17,2,.28,44.68,7,95.33,16.69,106.29,17.81s32.73.4,39.32-20.91c3.53-11.4,11.59-37.91,20.45-63.09Z"/><path class="e6f2d53f-0295-4e34-a487-416be0e2aab5" d="M674.78,701.92c6.91-15.21,11.52-33.19,11.52-33.19s33.19-6.91,75.14-18.9l7-2,11.11-77.34c-3.82-.27-7.39-.45-10.58-.51-20.06-.43-49.49.15-66.89,11.38-4.06,2.62-7.75,6-12.33,7.47a33.38,33.38,0,0,1-8.45,1.23c-26.11,1.54-45-.85-68.75-13.06-.83-.42-14.34,23.54-15.34,25.54-5.63,11.31-9.5,23.62-9.31,36.37.18,12.24,3.77,24.26,4.52,36.57,1,16.37.06,32-5.42,47.67,6.06,1.85,76.1,9.16,77.25,6C668.27,717.84,672.16,707.69,674.78,701.92Z"/><path class="a4d7e6c6-8371-4e7a-bb04-97960ad56076" d="M127.52,768.53c5.08-44.94,12.68-95.95,13.33-106.95s18.34-30.4,18.94-53c.64-23.86,8.64-48.16,14.41-71.72l-77-.63c-1.06,23-4.12,47.56.8,82.72-7.09,38.74-25.09,49.82-22.86,74.62,1.81,20.16,9.4,53.64,12.22,80.65,1.36.09,2.79.16,4.27.21-1.48-.05-2.91-.12-4.27-.21a174.36,174.36,0,0,1,1,17.44c.06,28.27,3.22,72.25,3.22,72.25l51.83-13.06s-20.38-36.29-16.15-80.31C127.39,769.89,127.44,769.21,127.52,768.53Z"/><path class="aa86b99d-efc8-48d8-9b0e-430b261f8a15" d="M87.9,780.06s-.13-2.19-.36-5.8h-.17c.2,2,.37,3.9.52,5.8Z"/><path class="aa86b99d-efc8-48d8-9b0e-430b261f8a15" d="M98,619c-7.09,38.74-25.09,49.82-22.86,74.62,1.81,20.16,9.4,53.64,12.22,80.65h.17c-.89-14-3.19-49.36-4.66-63C81,694,94.56,646.7,103.17,628.87V536.31l-6,0C96.15,559.27,93.09,583.82,98,619Z"/><path class="ace54d1c-34ce-494e-835f-ca826c30bcf7" d="M75,862.89c-.75,9.29,9.37,8.53,21.51,11.18,12.59,2.76,28.92.77,42.47,1.53s75.87,4.44,73.5-8.55a26.65,26.65,0,0,0-1-3.83c-10.68,6-33.77,6.64-76.41,5.82C99.92,868.36,82.86,865.18,75,862.89Z"/><path class="a51edb10-85f6-4445-baa7-00752348d39f" d="M192.56,850.77c-9.41-3.07-16-8.9-32.11-17s-13.58-16.91-18.86-22.3-13.18,2.47-26.63,15-23.77-7.9-29.65-7.65-5.48,18.83-5.48,18.83-3.07,13.65-4.71,24.1a10.86,10.86,0,0,0-.12,1.1c7.86,2.29,24.92,5.47,60.09,6.15,42.64.82,65.73.21,76.41-5.82C208.31,854,201,853.51,192.56,850.77Z"/><path class="bcfcbce5-5734-42b2-9c40-9b4718868fc0" d="M611,380c-.28-4.35,6.75-26.15,6.89-30.67.23-7.78.29-17.94-3.88-24.87-3.94-6.52-9.29-12.15-12.9-18.87-9.23-17.2-4.3-40.93,11.48-52.42,7.82-5.69,17.56-8.33,27.21-8.79,13.18-.62,26.72,2.81,37.3,10.68s17.92,20.35,18.46,33.53a20.82,20.82,0,0,0,.62,5.64c1,2.94,3.49,5,5.83,7s4.75,4.31,5.36,7.34-1.62,6.75-4.7,6.44l1.46,20.59c.41,5.74.57,12.23-3.39,16.41-3.35,3.54-8.55,4.24-13.5,4.39l-1.84,0h-6.64c-.69,6.7-1,13.34-1.47,20-.52,7.89-3,20.61-.16,28.14"/><path class="a4d7e6c6-8371-4e7a-bb04-97960ad56076" d="M638.21,309.62s-6.33-2-9.5.26S624.55,322.16,630,327s17.19,8.51,18.78.76"/><path class="ad7638a5-feb9-4799-90f7-6080260da03c" d="M638.21,309.62a20,20,0,0,0-6.24-.28,6,6,0,0,0-2.71,1,4.73,4.73,0,0,0-1.51,2.25,13.86,13.86,0,0,0-.64,5.88,13,13,0,0,0,1.72,5.6,10.32,10.32,0,0,0,1.78,2.26,20.53,20.53,0,0,0,2.4,1.83,24.12,24.12,0,0,0,5.49,2.69,13,13,0,0,0,6,.76,5.22,5.22,0,0,0,2.68-1.19,5.79,5.79,0,0,0,1.6-2.61,5.58,5.58,0,0,1-1.2,3,5.85,5.85,0,0,1-2.87,1.76,13.1,13.1,0,0,1-6.61-.22,23.12,23.12,0,0,1-6-2.59,19.2,19.2,0,0,1-2.69-2,11.58,11.58,0,0,1-2.2-2.69,15.18,15.18,0,0,1-.8-13.1,5.91,5.91,0,0,1,2.25-2.75,7.07,7.07,0,0,1,3.32-.85A16.66,16.66,0,0,1,638.21,309.62Z"/><path class="a4d7e6c6-8371-4e7a-bb04-97960ad56076" d="M636.13,315.77s-3.65,1.56-3.52,4.89,5.88,6.47,12.3,5.82"/><path class="ad7638a5-feb9-4799-90f7-6080260da03c" d="M636.13,315.77a6.47,6.47,0,0,0-2.66,4,2.9,2.9,0,0,0,.41,1.95,5.92,5.92,0,0,0,1.53,1.6,15.21,15.21,0,0,0,4.4,2.12,30.89,30.89,0,0,0,5.1,1.07,11.75,11.75,0,0,1-5.44.45,11.37,11.37,0,0,1-5.26-2,6.66,6.66,0,0,1-2-2.3,3.42,3.42,0,0,1-.3-.77,3.21,3.21,0,0,1-.15-.83,4.16,4.16,0,0,1,.18-1.58,5,5,0,0,1,1.68-2.46A6,6,0,0,1,636.13,315.77Z"/><path class="aa86b99d-efc8-48d8-9b0e-430b261f8a15" d="M679.19,358.05s-13.59-1.39-19.3-3.95c-1.54-.69-8-15.44-8-15.44a131.91,131.91,0,0,0,10.83,10c3.24,2.46,12.28,7.17,16.25,7.18"/><path class="ba4fb887-5e40-480a-9ad8-d578e7c13541" d="M616.44,334.16l15.24,1.9s-10.18-14.14-7.86-23.21,15.3-8.06,20.73-.33c2.35,3.72,2.27,5,2.27,5l5-2S649,302,647,297.57s8.31-6.67,11.3-18.52c0,0,11.87,7.08,19.73,3.71,0-.51-8.68-.25-12.56-3.8,7.2-.61,13.43,2.06,18.69-.45s11.1-1.66,14.85,4.19c-1.92-15.46-10.74-35.15-34.46-36.27,5.69-1.21,15.09-.15,22,4.09-12.23-9.66-43-16.57-64.56-6.82s-24.54,26.19-24.54,26.19A23,23,0,0,1,601,252.45c-.26,0-10.31,10.14-6.36,21.37-2.59.61-12.08,1.08-12.08,1.08s10.42,1.12,11.27,4-4.88,26.83,13.42,41.95C614.67,329.45,616.44,334.16,616.44,334.16Z"/><path class="b2ae2d7c-b383-4d02-9fbc-54626f838eab" d="M605.73,587.38c2.47-9,2.34-18.66,2.95-28.09,1.2-18.35,2.09-36.73,2.49-55.12.92-42.4-4.61-118-4.61-118l3.22-9.22s10.61-10.14,36.42-7.37,31.8,18.9,35.95,22.12,23.05,30.43,30,40.11,2.3,32.72-1.85,44.71,0,30.42-6.45,50.7c-3.92,12.31-3,26.13-1.37,38.76.69,5.3,5.54,18.28,0,21.62-2.44,1.47-5.39,1.68-8.18,2.19A37.31,37.31,0,0,0,681,594.93c-3.27,2.06-6.22,4.64-9.68,6.37-10.36,5.2-22.84,1.91-33.69-2.19s-22.26-9-33.62-6.67A44.88,44.88,0,0,0,605.73,587.38Z"/><path class="e6f2d53f-0295-4e34-a487-416be0e2aab5" d="M761.44,649.83c-42,12-75.14,18.9-75.14,18.9s-4.61,18-11.52,33.19c-2.62,5.77-6.51,15.92-10.57,27.2l9,.58c7.89-22.44,15-44.15,14.66-54.38,13.13-1.57,55.78-8.68,79.49-15.25l1.07-12.24Z"/><path class="ace54d1c-34ce-494e-835f-ca826c30bcf7" d="M402.56,744c-10.64-.51-9.45,9.79-12.12,22.22-2.77,12.91,0,29.5-.46,43.33s-2.77,77.44,12,74.68a33.32,33.32,0,0,0,4.34-1.11c-7.2-10.72-8.6-34.24-8.95-77.72C397.07,769.49,400.17,752,402.56,744Z"/><path class="a51edb10-85f6-4445-baa7-00752348d39f" d="M419.94,863.43c3.23-9.68,9.68-16.59,18.44-33.19s18.9-14.28,24.89-19.82-3.23-13.36-18-26.73,8.3-24.43,7.84-30.42-21.67-5.07-21.67-5.07-15.67-2.77-27.65-4.15c-.44,0-.85-.08-1.25-.1-2.39,8.08-5.49,25.54-5.21,61.4.35,43.48,1.75,67,8.95,77.72C416.74,879.57,417.07,872.05,419.94,863.43Z"/><polygon class="af3fce94-91fd-4799-99a6-442fc14c56ce" points="904.89 556.6 904.89 556.6 904.89 556.6 904.89 556.6"/><path class="e6f2d53f-0295-4e34-a487-416be0e2aab5" d="M179.56,531.41c3.61-17.89,7-35.9,8.21-54.14.59-8.56-.92-16.72-.54-25.32.26-6.06.93-12.09,1.31-18.14.2-3.19.31-6.39.23-9.6a4.33,4.33,0,0,0-.27-1.68,4.43,4.43,0,0,0-1.21-1.45c-6.36-5.71-9.94-10.92-19-10.47-11.65.59-23.33,3.83-34.85,2.7-2.94-.29-36.57-6.1-35.82-7.72-9.78,21.06-42.51,62.06-6.3,102.86,1.84,12.17,1.83,23.54,1.29,35.3l84.17-.14C177.8,539.52,178.74,535.45,179.56,531.41Z"/><path class="bcfcbce5-5734-42b2-9c40-9b4718868fc0" d="M95.79,194.75c-.28-4.35,6.75-26.16,6.88-30.67.23-7.78.3-18-3.88-24.87-3.94-6.53-9.29-12.15-12.89-18.87-9.23-17.2-4.3-40.94,11.48-52.42,7.81-5.69,17.55-8.34,27.21-8.79,13.17-.62,26.71,2.81,37.3,10.68s17.92,20.35,18.46,33.53A20.06,20.06,0,0,0,181,109c1,2.93,3.49,5,5.83,7s4.75,4.31,5.35,7.34-1.62,6.75-4.69,6.44l1.46,20.58c.4,5.75.56,12.24-3.4,16.42-3.35,3.53-8.54,4.24-13.5,4.39l-1.83,0h-6.65c-.68,6.69-1,13.33-1.46,20-.53,7.9-3,20.61-.17,28.15"/><path class="a4d7e6c6-8371-4e7a-bb04-97960ad56076" d="M123,124.37s-6.33-2-9.5.26-4.16,12.28,1.25,17.14,17.18,8.51,18.78.76"/><path class="ad7638a5-feb9-4799-90f7-6080260da03c" d="M123,124.37a20.25,20.25,0,0,0-6.24-.29,6.08,6.08,0,0,0-2.7,1,4.6,4.6,0,0,0-1.51,2.25,13.86,13.86,0,0,0-.65,5.88,13,13,0,0,0,1.73,5.6,10.26,10.26,0,0,0,1.78,2.26,20,20,0,0,0,2.4,1.83,24.68,24.68,0,0,0,5.48,2.69,13,13,0,0,0,6,.76,5.15,5.15,0,0,0,2.68-1.19,5.86,5.86,0,0,0,1.61-2.61,5.66,5.66,0,0,1-1.21,3,5.77,5.77,0,0,1-2.86,1.76,13,13,0,0,1-6.61-.23,22.82,22.82,0,0,1-6.06-2.58,20.44,20.44,0,0,1-2.69-2,11.79,11.79,0,0,1-2.19-2.69,15.18,15.18,0,0,1-.8-13.1,5.89,5.89,0,0,1,2.24-2.75,7.08,7.08,0,0,1,3.33-.85A16.42,16.42,0,0,1,123,124.37Z"/><path class="a4d7e6c6-8371-4e7a-bb04-97960ad56076" d="M120.89,130.51s-3.65,1.57-3.52,4.9,5.89,6.47,12.3,5.82"/><path class="ad7638a5-feb9-4799-90f7-6080260da03c" d="M120.89,130.51a6.52,6.52,0,0,0-2.66,4,3,3,0,0,0,.41,1.95,6.08,6.08,0,0,0,1.53,1.6,15.34,15.34,0,0,0,4.4,2.12,32,32,0,0,0,5.1,1.07,11.85,11.85,0,0,1-5.43.45,11.43,11.43,0,0,1-5.26-2,6.72,6.72,0,0,1-2-2.31,3.15,3.15,0,0,1-.29-.76,2.9,2.9,0,0,1-.15-.83,4,4,0,0,1,.17-1.58,5,5,0,0,1,1.68-2.46A6.2,6.2,0,0,1,120.89,130.51Z"/><path class="aa86b99d-efc8-48d8-9b0e-430b261f8a15" d="M164,172.8s-13.6-1.4-19.3-4c-1.55-.69-8-15.45-8-15.45a131.37,131.37,0,0,0,10.83,10c3.24,2.46,12.29,7.17,16.25,7.18"/><path class="ba4fb887-5e40-480a-9ad8-d578e7c13541" d="M101.21,148.9l15.23,1.91s-10.17-14.14-7.85-23.21,15.3-8.06,20.73-.33c2.34,3.71,2.27,5,2.27,5l5-2s-2.8-13.46-4.84-17.93S140,105.64,143,93.8c0,0,11.86,7.08,19.73,3.7,0-.51-8.68-.25-12.57-3.8,7.2-.6,13.44,2.06,18.7-.44S180,91.6,183.73,97.44C181.82,82,173,62.3,149.27,61.17c5.7-1.2,15.1-.14,22,4.1-12.22-9.66-43-16.57-64.55-6.83S82.19,84.63,82.19,84.63A23,23,0,0,1,85.76,67.2c-.25,0-10.31,10.14-6.36,21.36-2.59.62-12.08,1.09-12.08,1.09s10.42,1.12,11.28,4-4.89,26.82,13.41,42C99.44,144.2,101.21,148.9,101.21,148.9Z"/><path class="b2ae2d7c-b383-4d02-9fbc-54626f838eab" d="M95.37,402.7a86.17,86.17,0,0,0,.28-9.09C95.5,385,92.86,376.43,92.9,368c0-7,1.75-14.35,2.08-21.49q.63-13.77,1-27.56c.92-42.41-4.61-118-4.61-118l3.23-9.22s10.6-10.14,36.41-7.37,31.81,18.89,36,22.12,23.05,30.42,30,40.1,2.3,32.73-1.84,44.72,0,30.42-6.46,50.7c-3.53,11.09-2.74,22.26-1.1,33.42,1.2,8.25,1.11,16.62.94,24.93-.08,4.28-.24,8.56-.21,12.84,0,1.23.09,9.47.83,9.85-2.2-1.16-6.38-.39-8.86-.61a94.09,94.09,0,0,1-9.45-1.29c-6.18-1.2-12.2-3.19-18.42-4.18-7.53-1.2-15.22-.9-22.84-.59l-18.12.73c-6.68.27-13.46.55-19.82,2.64A60.42,60.42,0,0,0,95.37,402.7Z"/><path class="bcfcbce5-5734-42b2-9c40-9b4718868fc0" d="M18.76,346.26c-.06-.48-.12-.95-.17-1.42C18.63,345.32,18.7,345.79,18.76,346.26Z"/><path class="bcfcbce5-5734-42b2-9c40-9b4718868fc0" d="M99.3,192.7h0a29.42,29.42,0,0,0-10.15,5c2.43-1.36,5.1-2.71,8.06-4C97.21,193.61,98,193.24,99.3,192.7Z"/><path class="bcfcbce5-5734-42b2-9c40-9b4718868fc0" d="M18.85,346.92h0c0-.21-.07-.43-.11-.65C18.8,346.48,18.81,346.69,18.85,346.92Z"/><path class="bcfcbce5-5734-42b2-9c40-9b4718868fc0" d="M98.6,356.28a207.06,207.06,0,0,1-23-19.33,69.26,69.26,0,0,1,9.11-10c9.09-8.29,21.3-16.81,26.82-28.13,22,1.4,52.68-27.28,52.24-61s-30-47.88-40.65-49.7c-8.25-1.41-19.28,2.62-23.81,4.5-1.31.54-2.09.91-2.09.91-3,1.33-5.63,2.68-8.06,4-7.71,5.56-20,14.51-21.83,37.69,0,12.18,1.25,8.77,1.25,8.75-1.68,4.62-5.33,8-8.71,11.35C47.25,268.08,39.66,284.51,31,299.87c-11.68,20.71-14.11,30.08-12.42,45,.05.47.11.94.17,1.42,0,.22.07.44.11.65C20,354,24.92,360.16,30.08,363.48c35.5,22.82,112.23,32.11,115.8,42.75l-6.24-30.32C133.53,372,104.53,360.57,98.6,356.28Z"/><path class="aa86b99d-efc8-48d8-9b0e-430b261f8a15" d="M117.89,293.42s20.9-13.14,18.87-43.79c0,0-3.42,22.81-20.25,36.18-.23.46,0-9.91,0-9.91s-11.43,25.81-25.19,36.41A106.1,106.1,0,0,0,68.8,337s26.37,22.28,59.28,33.26c-10.9-4.9-25.47-11.06-29.48-14a207.06,207.06,0,0,1-23-19.33,69.26,69.26,0,0,1,9.11-10c9.09-8.29,21.3-16.81,26.82-28.13,14.94.95,33.87-12,44.35-30.91C155.37,268.58,134.81,290.44,117.89,293.42Z"/><rect class="bcfcbce5-5734-42b2-9c40-9b4718868fc0" x="132.18" y="369.75" width="27.4" height="36.93" rx="7.86" transform="translate(229.32 -18.02) rotate(32.2)"/><path class="bcfcbce5-5734-42b2-9c40-9b4718868fc0" d="M614.22,547.43a208.14,208.14,0,0,1-23-19.34,69.64,69.64,0,0,1,9.1-10c9.09-8.29,21.3-16.81,26.82-28.14,22,1.4,52.68-27.27,52.24-60.95s-30-47.88-40.65-49.69c-8.25-1.41-19.28,2.62-23.81,4.49-1.31.55-2.08.91-2.08.91-3,1.34-5.63,2.68-8.06,4-7.72,5.57-20,14.51-21.83,37.69,0,12.18,1.24,8.78,1.25,8.76-1.68,4.61-5.33,8-8.71,11.34-12.62,12.64-20.2,29.08-28.86,44.43-11.68,20.72-14.11,30.08-12.42,45,0,.47.11.95.18,1.43,0,.22.07.43.1.65,1.16,7.12,6,13.24,11.22,16.56,35.49,22.82,112.23,32.12,115.79,42.75l-6.24-30.31C649.16,563.13,620.16,551.72,614.22,547.43Z"/><path class="aa86b99d-efc8-48d8-9b0e-430b261f8a15" d="M633.52,484.56s20.9-13.14,18.86-43.79c0,0-3.42,22.82-20.24,36.19-.23.46,0-9.92,0-9.92S620.71,492.86,607,503.46a105.94,105.94,0,0,0-22.52,24.66s26.36,22.28,59.27,33.27c-10.89-4.9-25.46-11.06-29.48-14a208.14,208.14,0,0,1-23-19.34,69.64,69.64,0,0,1,9.1-10c9.09-8.29,21.3-16.81,26.82-28.14,15,.95,33.88-12,44.36-30.9C671,459.72,650.43,481.59,633.52,484.56Z"/><rect class="bcfcbce5-5734-42b2-9c40-9b4718868fc0" x="647.8" y="560.9" width="27.4" height="36.93" rx="7.86" transform="translate(410.49 -263.39) rotate(32.2)"/><path class="aa86b99d-efc8-48d8-9b0e-430b261f8a15" d="M811.24,644.32c-2.41.58-4.57,19.78-4.81,21.9a181.62,181.62,0,0,0,1.46,51.49c1.07,6.14,2.37,12.28,3.53,18.43-9-55.36,8-92.86,8-92.86V628.53l-11.5,7.83-39,7.56-.57,3.91-.71,4.93-.1.47s0,0,0,0l0,.23.3-.08C770.85,654.06,796.84,647.82,811.24,644.32Z"/><path class="aa86b99d-efc8-48d8-9b0e-430b261f8a15" d="M812.72,743.42h0v0Z"/><path class="af3fce94-91fd-4799-99a6-442fc14c56ce" d="M767.59,653.5s-65.24,17-84.35,17C665,670,599.53,680.62,588,642.82c2.63,18.84,18.47,34.1,48.43,34.57a450.38,450.38,0,0,0,54-2.4l76.89-14.92Z"/><path class="b5d57edd-eb77-472f-a6e6-cfe72414c750" d="M371,360.54a86.55,86.55,0,0,1,8.82,4.77c2.83,1.72,5.56,3.55,8.25,5.43s5.29,3.85,7.85,5.88,5.06,4.11,7.53,6.24l3.92,3.39-3.87,3.43L399.8,393l-3.8,3.19c-2.57,2.09-5.16,4.15-7.86,6.09s-5.42,3.85-8.26,5.64a85.7,85.7,0,0,1-8.87,5,85.93,85.93,0,0,1,5.85-8.32c2.07-2.63,4.24-5.16,6.46-7.63s4.53-4.85,6.87-7.19l3.57-3.45,3.65-3.35,0,6.81c-2.44-2.16-4.85-4.35-7.2-6.62s-4.64-4.6-6.87-7-4.4-4.88-6.48-7.45A85.46,85.46,0,0,1,371,360.54Z"/></svg>