<svg id="e95eb212-bc9b-4bef-8e2e-96ed7745a911" data-name="Layer 1" xmlns="http://www.w3.org/2000/svg" viewBox="0 0 938 938"><defs><style>.a79f65db-0a0f-4c6d-a7c4-765176be0ebb,.bd26a6bc-3892-4417-98f4-b06efe19f394{fill:#fcc7b4;}.e71adbb8-2bc7-4d0e-a558-8fb99ae89fa7{fill:#7cafc4;}.bd26a6bc-3892-4417-98f4-b06efe19f394{stroke:#a67167;stroke-width:0.5px;}.bd26a6bc-3892-4417-98f4-b06efe19f394,.eb358134-ac04-4209-b732-45a7cbce44cc{stroke-miterlimit:10;}.b6eb5517-9434-4274-b60c-57f33a999f35{fill:#a67167;}.e7f5f7dd-7bcb-4651-863e-eb895aba34e7{fill:#e59c95;}.bc88b539-00c2-40a4-8df4-b184c0a5495a{fill:#ef9d0c;}.e87a8871-da3f-42b4-a5b3-a7c27fb48d02{fill:#848689;}.eb358134-ac04-4209-b732-45a7cbce44cc{fill:#4d4d4f;stroke:#808285;}.e782a2a2-fcc3-4d48-8e1e-3dc843c5ec2e{fill:#6b3d35;}.fcf09802-6e79-4e21-8c34-a48f25a25d13{fill:#0e7987;}</style></defs><path class="a79f65db-0a0f-4c6d-a7c4-765176be0ebb" d="M297.44,404.87c-21.65,0-55.67-14.23-80.41-11.75-20.8,2.08-43.79,10.27-65.66,15a245.18,245.18,0,0,0-6.77,65c2,.22,3.92.48,5.74.79,29.07,5,76,15.71,93.91,12.62s62.47-1.8,81,1a133.31,133.31,0,0,0,31.2.56l2.32-98.22C352.22,392.24,317,404.87,297.44,404.87Z"/><path class="e71adbb8-2bc7-4d0e-a558-8fb99ae89fa7" d="M542.07,456.83s8.66-69.28,2.78-94.64C508.05,343,493.21,339.31,457.64,348c-20.72,7.11-54.34,34.88-98.42,41.06l0,.62-.46.17L356.48,488c1.59-.16,2.83-.31,3.63-.42,29.17.18,48.12-3,74.22-.58,26.6,2.47,66.08-13.23,89.9-21.6C545.83,457.85,542.07,456.83,542.07,456.83Z"/><path class="bd26a6bc-3892-4417-98f4-b06efe19f394" d="M776,373.61c5-.62,11,1,16.17.81,8.89-.25,20.5-.85,28.12-6.08,7.19-4.93,13.26-11.41,20.68-16,19-11.68,46.44-7.62,60.6,9.63,7,8.54,10.68,19.48,11.84,30.47,1.58,15-1.44,30.67-9.72,43.28s-22,21.81-37,23.29a23.71,23.71,0,0,0-6.4,1.09c-3.28,1.3-5.51,4.31-7.65,7.12s-4.61,5.71-8,6.6-7.81-1.4-7.66-4.93l-23.4,3c-6.53.85-13.92,1.46-19-2.79-4.26-3.58-5.4-9.46-5.9-15.11-.06-.7-.12-1.4-.16-2.09l-.44-7.59c-7.69-.33-15.29-.28-22.92-.34-9-.08-23.73-2.08-32.14,1.68"/><path class="a79f65db-0a0f-4c6d-a7c4-765176be0ebb" d="M838.83,395s1.88-7.36-.92-10.83-14.29-3.93-19.48,2.56-8.57,20.18.38,21.48"/><path class="b6eb5517-9434-4274-b60c-57f33a999f35" d="M838.83,395a22.62,22.62,0,0,0,0-7.16,7.29,7.29,0,0,0-1.28-3.07,5.51,5.51,0,0,0-2.71-1.62,15.94,15.94,0,0,0-6.81-.37,15.07,15.07,0,0,0-6.35,2.35,11,11,0,0,0-1.32,1,16.43,16.43,0,0,0-1.16,1.2,23,23,0,0,0-1.94,2.88,27.49,27.49,0,0,0-2.7,6.48,14.81,14.81,0,0,0-.43,6.89,6.06,6.06,0,0,0,1.57,3,6.64,6.64,0,0,0,3.12,1.62,6.49,6.49,0,0,1-3.48-1.2,6.66,6.66,0,0,1-2.15-3.14,14.76,14.76,0,0,1-.15-7.52,26.54,26.54,0,0,1,2.56-7,23.4,23.4,0,0,1,2.07-3.18c.45-.48.86-1,1.35-1.44a12,12,0,0,1,1.55-1.21,17.34,17.34,0,0,1,14.78-1.8,6.6,6.6,0,0,1,3.25,2.33,8,8,0,0,1,1.19,3.69A18.84,18.84,0,0,1,838.83,395Z"/><path class="a79f65db-0a0f-4c6d-a7c4-765176be0ebb" d="M831.69,393s-2-4.06-5.82-3.7-7,7.16-5.83,14.43"/><path class="b6eb5517-9434-4274-b60c-57f33a999f35" d="M831.69,393a7.4,7.4,0,0,0-4.7-2.89,3.5,3.5,0,0,0-2.29.6,7,7,0,0,0-1.77,1.89,17.21,17.21,0,0,0-2.12,5.22,33,33,0,0,0-.77,5.91,14.07,14.07,0,0,1-.77-6.16,13.22,13.22,0,0,1,2-6.07,7.7,7.7,0,0,1,2.45-2.4,3.91,3.91,0,0,1,.83-.38,3.56,3.56,0,0,1,.91-.22,4.6,4.6,0,0,1,1.78.08,5.72,5.72,0,0,1,2.89,1.7A7.12,7.12,0,0,1,831.69,393Z"/><path class="e7f5f7dd-7bcb-4651-863e-eb895aba34e7" d="M786.28,445s.69-15.61,3.22-22.29c.69-1.81,17.1-10.21,17.1-10.21s-7.32,8-10.69,13c-2.59,3.86-7.36,14.49-7.11,19"/><path class="bd26a6bc-3892-4417-98f4-b06efe19f394" d="M67.35,476.62l0-.11-.15,0Z"/><path class="a79f65db-0a0f-4c6d-a7c4-765176be0ebb" d="M151.37,408.15c-4.14.9-8.24,1.7-12.27,2.29-25.36,3.71-35.88-.62-35.88-.62l-29.07,7.42L56.21,450,67.3,476.51c2.89-.4,48.36-6.53,77.3-3.4A245.18,245.18,0,0,1,151.37,408.15Z"/><path class="bd26a6bc-3892-4417-98f4-b06efe19f394" d="M680.62,468.87s2.48,22.29,5.57,30.94,4.95,29.08,6.18,32.17a14.35,14.35,0,0,0,13.34,9c8,0,44.19,5.83,54.7,7.38s37.42.93,47,0,15.46-1.86,15.46-1.86,1.55,6.5,9.59,6.19a84.47,84.47,0,0,1,16.63,1.35s13-3.94,18.95-3.17c-.69,0,.64-9.31,0-13,.61.93,6.56-17.62.18-21.33,1.35.92-6.38-13.3-17.2-17.63s-16.08-1.24-20.72,5.56-11.14,13-16.7,13.61-48.8-4-61.36-9.26l-17.51-63Z"/><path class="bc88b539-00c2-40a4-8df4-b184c0a5495a" d="M545.22,364S577,355.7,603,346.73s60.92-10.21,94.94-10.83S761,351.37,769.07,360s11.75,24.12,11.14,43-1.24,30.62-8.35,41.14c-16.7,7.73-52.58,22.26-85.05,24.43s-35.88-6.5-63.09-1.24-66.57,2.73-83.85-7.29C539.23,460.87,545.9,396.07,545.22,364Z"/><path class="bd26a6bc-3892-4417-98f4-b06efe19f394" d="M708.46,459.61c0,.06-9.3-3.71-9.82-4-4.64-2.82-5.35-6.75-6.24-12.3a50.58,50.58,0,0,1,6-33.1c7.6-13.12,21.8-22.74,36.94-24.43,12.59-1.42,29.85,2.72,32.53,17.2,3.09,16.76.92,23.88,2.47,32.54s1.55,26.59-4.64,40.2a78,78,0,0,1-14.84,22s3.09,19.17,2.16,31.85-3.71,25.67-.93,28.15,11.14,6.8,34.64,8.66S835,564.76,835,564.76a30.84,30.84,0,0,1,20.41-12.37c13.91-2.16,19.48-2.47,21,1.86s.31,9.76,4,12.61,3.4,14.29,2.47,18.62-3.09,9.28-5.87,12.37c-3.12,3.46-10.54,3-14.77,3.09A31.35,31.35,0,0,1,844,595.53c-1.54-1.12-3-2.49-4.9-2.76a9.45,9.45,0,0,0-4,.62c-16.71,5.12-34.14,7.24-51.15,10.65-18.56,3.71-49.49,6.18-60.62,4s-11.44-31.55-13.92-46.39S705.05,540,704.13,528s2.07-62,2.07-62Z"/><path class="bd26a6bc-3892-4417-98f4-b06efe19f394" d="M708.46,459.61s3.4-23.81,6.8-34S723,411.67,723,411.67"/><path class="bd26a6bc-3892-4417-98f4-b06efe19f394" d="M819.17,528.58s-2.78,10.2,3.71,17.93"/><path class="bd26a6bc-3892-4417-98f4-b06efe19f394" d="M845.77,506s6.8,5.57,0,14.23"/><line class="bd26a6bc-3892-4417-98f4-b06efe19f394" x1="848.79" y1="510.02" x2="864.46" y2="510.02"/><line class="bd26a6bc-3892-4417-98f4-b06efe19f394" x1="851.03" y1="520.23" x2="871.16" y2="518.68"/><line class="bd26a6bc-3892-4417-98f4-b06efe19f394" x1="842.99" y1="528.58" x2="871.16" y2="528.58"/><line class="bd26a6bc-3892-4417-98f4-b06efe19f394" x1="842.99" y1="536.31" x2="868.05" y2="537.85"/><line class="bd26a6bc-3892-4417-98f4-b06efe19f394" x1="845.77" y1="544.97" x2="868.05" y2="545.41"/><path class="bd26a6bc-3892-4417-98f4-b06efe19f394" d="M835.56,527.34s7.43,8.66,0,15.15"/><path class="bd26a6bc-3892-4417-98f4-b06efe19f394" d="M845.77,576.51s1.86,5.26-2.78,12.06"/><path class="bd26a6bc-3892-4417-98f4-b06efe19f394" d="M871.16,559.5a7.87,7.87,0,0,1,0,7.12"/><path class="bd26a6bc-3892-4417-98f4-b06efe19f394" d="M873.3,573.73a17.43,17.43,0,0,1,0,9.9"/><path class="e87a8871-da3f-42b4-a5b3-a7c27fb48d02" d="M27.06,514.63c1.53-7.94,6.72-15.26,8.55-56.79.92-25.35,7.82-38.06,13.23-44.18-1.91-.24-3.42-.39-4.38-.44-6.18-.31-9.28,4.95-9.28,4.95s-6.18,5.26-9.27,15.77-1.55,24.12,2.16,36.8-10.51,38-10.2,48.25,14.53,31.85,25.66,31.85a23.62,23.62,0,0,0,3.93-.31C31.81,544.06,25.71,521.67,27.06,514.63Z"/><path class="eb358134-ac04-4209-b732-45a7cbce44cc" d="M90.85,436.11c8.35-5.26,11.14-10.52,0-14.23-9.4-3.14-31.61-6.93-42-8.22-5.41,6.12-12.31,18.83-13.23,44.18-1.83,41.53-7,48.85-8.55,56.79-1.35,7,4.75,29.43,20.4,35.9,8.89-1.45,14.36-8,12.47-18.86-2.17-12.37,9.27-31.24,16.7-34s19.17-2.47,18.24-10.52-13-13.91-19.48-21.64S82.5,441.36,90.85,436.11Z"/><path class="e87a8871-da3f-42b4-a5b3-a7c27fb48d02" d="M63.33,394.66c-3.71,2.17-15.16,18.55-15.16,18.55l12.3,2.68a175.8,175.8,0,0,1,14.16-20.32C69.26,394.42,64.76,393.83,63.33,394.66Z"/><path class="eb358134-ac04-4209-b732-45a7cbce44cc" d="M98.2,401.78c-4.23-1.14-15-4.38-23.57-6.21a175.8,175.8,0,0,0-14.16,20.32l33.72,7.36s14.6-8.79,14.33-12.16S105.08,403.63,98.2,401.78Z"/><path class="e782a2a2-fcc3-4d48-8e1e-3dc843c5ec2e" d="M809.39,371.75l-1.17,17.51s15.47-12.55,26-10.51,10.21,16.93,1.75,23.64c-4.09,2.92-5.55,2.92-5.55,2.92l2.63,5.55s15.18-4.09,20.14-6.72,8.17,9.05,21.89,11.68c0,0-7.3,14-2.92,22.76.59,0-.29-9.92,3.51-14.59,1.16,8.17-1.46,15.47,1.75,21.31s2.62,12.55-3.8,17.22c17.51-3.21,39.4-14.6,39.11-41.74,1.75,6.42,1.17,17.22-3.21,25.39C919.72,431.58,925.56,396,913,372s-31.52-26.27-31.52-26.27a26.29,26.29,0,0,1,20.14,2.92c0-.29-12.26-11.09-24.81-5.84-.87-2.92-2-13.72-2-13.72s-.58,12-3.79,13.14-30.94-3.8-47,18.09C814.64,369.41,809.39,371.75,809.39,371.75Z"/><polygon class="e7f5f7dd-7bcb-4651-863e-eb895aba34e7" points="99.29 426.42 145.28 430.68 147.71 425.16 94.19 423.25 99.29 426.42"/><path class="e7f5f7dd-7bcb-4651-863e-eb895aba34e7" d="M833.88,593.73c-13.36,2.41-48.93,8.54-67.54,8.89-23.21.44-42.47,1.75-46.85-12.7s-4.81-45.09-8.32-66.11-.43-52.54,2.19-63.48,7-46.41,7-46.41l-12.7,28.9-7.44-11.39s5.25,15.33,5.69,19.7-14.45-6.56-12.26-25.39a29.2,29.2,0,0,0-1.81,6.46,50.71,50.71,0,0,0,.55,11.08c.21,1.37.42,2.63.68,3.8a23.23,23.23,0,0,0,5,8.11l.6.39c.52.32,9.79,4.09,9.82,4s-2.26,6.4-2.26,6.4-3,49.89-2.07,62,2.78,18.86,5.25,33.71,2.79,44.22,13.92,46.39,42.06-.31,60.62-4C800.53,600.71,817.53,598.59,833.88,593.73Z"/><path class="e7f5f7dd-7bcb-4651-863e-eb895aba34e7" d="M244,419.32c-35.61-2.33-96.32,5.84-96.32,5.84L146.54,431s2.92,0,45.54-5.26,64.79,4.67,121.42,3.5a337.31,337.31,0,0,0,44.62-5.05l.27-9.24C316.85,425.27,277.59,421.52,244,419.32Z"/><path class="fcf09802-6e79-4e21-8c34-a48f25a25d13" d="M428.49,392.47S410.4,400.06,366,412.9q-3.82,1.11-7.64,2.05l-.27,9.24c35.46-6.63,54.52-17.69,77.38-25.88,10.51-22.77,33.27-32.69,33.27-32.69C441.34,370.29,428.49,392.47,428.49,392.47Z"/></svg>