<svg id="af052b10-3a23-482b-bb9f-16cb76b65450" data-name="Layer 1" xmlns="http://www.w3.org/2000/svg" viewBox="0 0 938 938"><defs><style>.aaaa23c1-6356-4c73-b19b-3ea325c68d16,.e24aac2c-5d07-49ad-a6c3-9a7e829fbfd5,.e2f8e8b5-02ac-4ea3-a64f-37eb1c7926de{fill:#fcc7b4;}.aaaa23c1-6356-4c73-b19b-3ea325c68d16,.e2f8e8b5-02ac-4ea3-a64f-37eb1c7926de{stroke:#a67167;}.a4f5044f-373b-4cd2-a57a-0329446ab28e,.a91d442c-5851-4017-9358-38e2e9f3f96f,.aaaa23c1-6356-4c73-b19b-3ea325c68d16,.e1cd0b53-8b05-47da-8b2c-b7481bbf3b64,.e2f8e8b5-02ac-4ea3-a64f-37eb1c7926de{stroke-miterlimit:10;}.a91d442c-5851-4017-9358-38e2e9f3f96f,.e1cd0b53-8b05-47da-8b2c-b7481bbf3b64,.e2f8e8b5-02ac-4ea3-a64f-37eb1c7926de{stroke-width:0.5px;}.ba8eedc9-a345-466c-8f56-d2cd9148680f{fill:#a67167;}.f58c46c5-4cf0-418d-8fac-4d436bd7543e{fill:#e59c95;}.ed11e54b-536d-4fbc-aed8-43b0c0f22f8f{fill:#6b3d35;}.aaaa23c1-6356-4c73-b19b-3ea325c68d16{stroke-width:1.5px;}.a4f5044f-373b-4cd2-a57a-0329446ab28e{fill:#4d4d4f;stroke:#808285;}.aa66a1a8-dbf1-472b-9393-0aa56c417427{fill:#c48579;}.e30c9ccf-82f5-460d-91a8-44f74b750e31{fill:#7cafc4;}.ed5aa8e8-b657-4486-a891-b351597d38fa{fill:#0e7987;}.aa4e4bc8-9164-412b-84fe-8b68e88a889e{fill:#ef9d0c;}.e1cd0b53-8b05-47da-8b2c-b7481bbf3b64{fill:#616264;stroke:#000;}.a91d442c-5851-4017-9358-38e2e9f3f96f{fill:none;stroke:#595d5e;}.ab64ff15-d7f4-453c-9fab-d406d699daf2{fill:#848689;}.bbe40eed-ba3c-49da-b87f-2049dc45015a{fill:#fff;}</style></defs><path class="e2f8e8b5-02ac-4ea3-a64f-37eb1c7926de" d="M789.11,678.7c1.16,21.48-29.71,24.35-44.37,24.06-12,8.59-37,6.59-50.15,5.44,9.65,25.78,40.51,57.58,40.51,57.58s19.29-.29,28.93.29,34,4.29,45.14,7.44,22,3.15,22,5.45c-2.7,2.29-14.28.57-14.28.57s8.49.57,7.33,2.29c-6.94,3.44-15.81.86-15.81.86s9.26.57,5.78,2.29c-9.25,1.72-22.76,1.43-37.8,0s-34.34,0-45.52,0S713.5,783,710,778.1s-35.87-26.36-57.09-49.56S625.15,681,631.33,670.1c9.56-8.39,26.68-11.2,40.58-12.89,8.8-1.08,17.7-1.56,26.61-1.81,14.85-.4,14.85-.4,25.81-4.86s29.74-7.46,41.31-2.21"/><path class="e2f8e8b5-02ac-4ea3-a64f-37eb1c7926de" d="M808.4,782.68s-9.26-1.72-18.13-4.3-19.29-2-19.29-2"/><path class="e2f8e8b5-02ac-4ea3-a64f-37eb1c7926de" d="M816.88,779.53s-10.8-.4-18.13-3.21-20.44-3.38-20.44-3.38"/><path class="e2f8e8b5-02ac-4ea3-a64f-37eb1c7926de" d="M733.55,161.82c4-2.13,9.73-2.75,14.1-4.55,7.53-3.1,17.27-7.37,22.1-14.32,4.55-6.55,7.64-14.06,12.52-20.37,12.49-16.16,37.27-21.58,55-11.41,8.77,5,15.45,13.21,20,22.24,6.22,12.32,8.71,26.71,5.71,40.19s-11.78,25.8-24.14,31.94a21.74,21.74,0,0,0-5.13,3c-2.38,2.18-3.31,5.47-4.24,8.57s-2.09,6.38-4.72,8.25-7.14,1.33-8.16-1.73l-19,10.18c-5.32,2.84-11.44,5.76-17.13,3.76-4.81-1.69-7.69-6.35-9.95-11-.28-.58-.55-1.16-.82-1.74l-2.83-6.35c-6.69,2.21-13.18,4.72-19.73,7.14-7.77,2.87-21,5.92-27,11.86"/><path class="e24aac2c-5d07-49ad-a6c3-9a7e829fbfd5" d="M794.25,159.72s-.79-6.91-4.3-9-13.51,1.27-15.85,8.5-.79,20.05,7.3,18.27"/><path class="ba8eedc9-a345-466c-8f56-d2cd9148680f" d="M794.25,159.72a20.93,20.93,0,0,0-2.37-6.1,6.53,6.53,0,0,0-2.09-2.18,5,5,0,0,0-2.81-.5,14.71,14.71,0,0,0-5.92,1.9,13.72,13.72,0,0,0-4.63,4,9.55,9.55,0,0,0-.8,1.29c-.24.44-.39.92-.6,1.38a21.34,21.34,0,0,0-.72,3.09,24.92,24.92,0,0,0-.22,6.4,13.41,13.41,0,0,0,1.83,6,5.5,5.5,0,0,0,2.29,2.06,6.1,6.1,0,0,0,3.19.4,5.88,5.88,0,0,1-3.38.12,6.12,6.12,0,0,1-2.89-2,13.55,13.55,0,0,1-2.59-6.4,24,24,0,0,1-.11-6.88,21.65,21.65,0,0,1,.74-3.41,12.67,12.67,0,0,1,1.63-3.22,15.9,15.9,0,0,1,12.14-6.35,6.22,6.22,0,0,1,3.57,1,7.56,7.56,0,0,1,2.22,2.81A17.26,17.26,0,0,1,794.25,159.72Z"/><path class="e24aac2c-5d07-49ad-a6c3-9a7e829fbfd5" d="M787.49,160.35s-3.06-2.82-6.18-1.27-3.66,8.38-.31,14.23"/><path class="ba8eedc9-a345-466c-8f56-d2cd9148680f" d="M787.49,160.35a6.79,6.79,0,0,0-4.94-.88,3.11,3.11,0,0,0-1.72,1.24,6.25,6.25,0,0,0-.88,2.16,15.89,15.89,0,0,0-.14,5.12,31.89,31.89,0,0,0,1.19,5.32,12.67,12.67,0,0,1-2.72-5,12.1,12.1,0,0,1-.28-5.87,7,7,0,0,1,1.34-2.88,3.41,3.41,0,0,1,.6-.6,3,3,0,0,1,.72-.49,4.2,4.2,0,0,1,1.57-.51,5.23,5.23,0,0,1,3,.54A6.36,6.36,0,0,1,787.49,160.35Z"/><path class="f58c46c5-4cf0-418d-8fac-4d436bd7543e" d="M765.48,219.54S761,206,761,199.42c0-1.78,11.32-14.28,11.32-14.28a138.28,138.28,0,0,0-4.92,14.61c-1,4.15-1.6,14.8.08,18.59"/><path class="ed11e54b-536d-4fbc-aed8-43b0c0f22f8f" d="M761.52,149.4l4.68,15.36S775.37,149,785,147.35s14.24,11.17,9.17,19.66c-2.55,3.83-3.8,4.3-3.8,4.3l4,3.89s11.67-8.41,15.06-12.27,9.93,5.09,22.52,2.89c0,0-1.7,14.36,4.89,20.43.5-.19-3.47-8.4-1.74-13.62,3.65,6.61,3.77,13.71,8.41,17.66s6.32,9.89,2.33,16c14-8.43,29-25.26,19.94-48.4,3.58,4.93,6.58,14.36,5.49,22.77,4-15.8-2.54-48.16-21-64.58s-35.5-12.26-35.5-12.26a24.08,24.08,0,0,1,18.19-4c-.1-.25-14.09-5.51-23.13,3-1.69-2.21-6.2-11.08-6.2-11.08s3.39,10.43,1,12.47S777,111,770.32,134.93C765.26,145.7,761.52,149.4,761.52,149.4Z"/><path class="aaaa23c1-6356-4c73-b19b-3ea325c68d16" d="M110.48,416.9s13.21-11.15,29.25-14.7S126.22,386.79,123.08,387s-33.43,1.21-34.39,3.15S75.15,413.6,75.86,414.73s0,22.68,0,22.68Z"/><path class="a4f5044f-373b-4cd2-a57a-0329446ab28e" d="M98.14,416.9s8.47,1.28,12.34,0,.79,14-1.66,20.75-12.08,14.05,0,25.67,14.07,26.16,0,23c-25.71-9.93-36.12-15-34.91-24.94s7-30.28,9.45-31S98.14,416.9,98.14,416.9Z"/><path class="e2f8e8b5-02ac-4ea3-a64f-37eb1c7926de" d="M339.11,302.27l6.06,11.14S280,346.59,277.11,347.8s-39.72,0-39.72,0l26.3-9.67S324.58,319,339.11,302.27Z"/><path class="e2f8e8b5-02ac-4ea3-a64f-37eb1c7926de" d="M97.29,415.29s19.25-10.82,52.43-14.45,75.32-2.18,94-5.09,32.69-1.45,54.49-2.42,37.54-9,46.74-11.87,27.61-3.15,27.61-3.15,11.14-59.09,10.42-60.06S349,310,349,310s-45.77,21.79-69.75,25.91-47,4.6-62.73,2.66S160.62,357.49,134.7,364,55.26,382,55.26,382s-23.73,4.84-12.11,23.49,22.28,26.64,24.46,26.64S97.29,415.29,97.29,415.29Z"/><path class="f58c46c5-4cf0-418d-8fac-4d436bd7543e" d="M297.63,393.14c21.8-.93,37.55-8.89,46.76-11.78s27.62-3.1,27.62-3.1.9-4.71,2.17-11.49c-11.63,3.39-28,8.3-41.21,12.75-23.06,7.77-30.14,8-53.73,7.49s-104.75,7.45-130.3,9.33-66.73,21.59-66.73,21.59l4.68,2.7c5.41-3.21,9.81-5.88,9.81-5.88S116,404,149.15,400.38s75.33-2,94-4.92S275.83,394.07,297.63,393.14Z"/><path class="e2f8e8b5-02ac-4ea3-a64f-37eb1c7926de" d="M654.93,279.26s-.49,74.35,0,90.82,8,38.27,12.35,52.55,15.5,29.79,26.88,32.46,41.66,0,53.53-1.21,28.58,0,29.06-3.64-23-12.35-35.84-13.32c-4.6.49-7.64.88-7.64.88s-27.48-16.62-31.6-36.72-15.26-122.79-15.26-122.79l-6.54-12.11Z"/><path class="f58c46c5-4cf0-418d-8fac-4d436bd7543e" d="M670.09,420.63c-4.81-20.94-11.38-53.53-10.5-70.09s.35-54.49.35-54.49l23.24-12.43V272.31l-3.31-6.13-24.94,13.08s-.49,74.35,0,90.82,8,38.27,12.35,52.55c3.08,10.09,9.53,20.76,17.06,27.12C678.76,441.82,672.52,431.2,670.09,420.63Z"/><path class="e24aac2c-5d07-49ad-a6c3-9a7e829fbfd5" d="M763.26,189.28l-4.82,5.78"/><path class="aa66a1a8-dbf1-472b-9393-0aa56c417427" d="M763.26,189.28a23.08,23.08,0,0,1-2.19,3.07,21.7,21.7,0,0,1-2.63,2.71,25.74,25.74,0,0,1,4.82-5.78Z"/><path class="e30c9ccf-82f5-460d-91a8-44f74b750e31" d="M339.11,302.27s36.81-18.65,47.71-27.61,23-27.61,35.12-37.06,52.56-12.84,70.72-4.84c7.51,7,15.74,23.49,16,42.14S516.4,320.19,521,327c-11.87,10.66-29.79,18.76-40.69,21.37s-26.64,10.11-39.24,18.83S381,397,381,397s-16-31.24-23.25-46.5-16.2-37-16.2-37l1.76-3.45Z"/><path class="ed5aa8e8-b657-4486-a891-b351597d38fa" d="M345.17,311.82s41.9-24.57,50.61-34.74,11.14-16.47,21.32-27.61"/><path class="aa4e4bc8-9164-412b-84fe-8b68e88a889e" d="M521,327s.48,7.27,5.08,10.17,32.7-8.23,47.47-16.23,64.18-20.82,73.39-26.88,24.46-10.41,24.46-10.41-3.15-53.77,1.45-68.06,10.66-30.76,38.27-33.18c20.34,1,34.63,14.53,36.57,20.83,0-1.94-2.42-27.13-12.11-37.78s-46.5-15.26-79.2-2.18S547.53,232,485,230.3c0,0,17.72,14,21.66,29.18S498.47,290.64,521,327Z"/><path class="e2f8e8b5-02ac-4ea3-a64f-37eb1c7926de" d="M739.21,184.8s7.51,14,8.48,18.41,6,27.12-9.69,48.2-7.75,54.49-7,70,4.36,39.72,1.21,57.16-1.45,58.85,4.84,74.35S763,461.63,786,463.08s39.24,15.74,40.94,20.1-24.22,1.94-39,1.21-27.61,2.18-40.69,2.67-32-5.33-39.47-18.41-17.2-42.62-18.41-53.52-7.51-46.5-6.78-66.12-1.94-43.6-11.14-65.39c-13.56-23.25-14.78-66.85-7-85.74s6.79-23.49,26.65-24.94S739.21,184.8,739.21,184.8Z"/><line class="e2f8e8b5-02ac-4ea3-a64f-37eb1c7926de" x1="741.39" y1="447.82" x2="774.82" y2="447.82"/><line class="e2f8e8b5-02ac-4ea3-a64f-37eb1c7926de" x1="741.39" y1="442.74" x2="764.23" y2="442.74"/><path class="e2f8e8b5-02ac-4ea3-a64f-37eb1c7926de" d="M776.76,473s25.43,4.82,40.44,12.7"/><path class="e2f8e8b5-02ac-4ea3-a64f-37eb1c7926de" d="M783.53,468.89s23.74,4.36,43.36,14.29"/><path class="e1cd0b53-8b05-47da-8b2c-b7481bbf3b64" d="M29.24,397s-.39,18,7.33,28.77,8.1,27,10.8,34.73S56.25,483,94.44,486.77"/><path class="e24aac2c-5d07-49ad-a6c3-9a7e829fbfd5" d="M679.31,443.71l7.75,9"/><path class="aa66a1a8-dbf1-472b-9393-0aa56c417427" d="M679.31,443.71c1.4,1.41,2.72,2.89,4,4.39s2.55,3,3.73,4.65c-1.4-1.41-2.72-2.9-4-4.4S680.49,445.31,679.31,443.71Z"/><path class="a91d442c-5851-4017-9358-38e2e9f3f96f" d="M747.69,200.61s-3-14.89-18-19.76-55.26-23.35-66.31,19.76,8,83,8,83"/><path class="ab64ff15-d7f4-453c-9fab-d406d699daf2" d="M44.67,452c-3.61-15.23-9.62-26-16.43-46.48-2.4-7.19-3-12.49-2.79-16.35-6.76.73-9.91,2-10.39,9.21s5.33,17.43,12.11,30.51,13.32,27.13,16.47,42.63,22,19.62,36.08,19.62c12.28,0,27.14,2.4,28.92-5.56-5.24-.24-21.52-1.08-36.73-2.73C53.48,480.89,48.27,467.26,44.67,452Z"/><path class="a4f5044f-373b-4cd2-a57a-0329446ab28e" d="M108.54,481.49C105.88,468.65,92.32,471.56,88,459s3.15-20.82,6.78-28.33,5.81-16.71,0-16-20.83,0-20.83,0-11.87.24-17.92-7-5.33-15.74-1.21-20.83,2.42-9.44-4.12-6.05-18.41,7.75-25.19,8.47h0c-.21,3.86.39,9.16,2.79,16.35C35.05,426,41.06,436.81,44.67,452s8.81,28.85,27.24,30.85c15.21,1.65,31.49,2.49,36.73,2.73A9.71,9.71,0,0,0,108.54,481.49Z"/><path class="e2f8e8b5-02ac-4ea3-a64f-37eb1c7926de" d="M788.08,647.54c4.43-1.08,10.1-.3,14.78-1,8-1.18,18.54-3,24.91-8.52,6-5.25,10.84-11.78,17.1-16.72,16-12.63,41.4-11.87,56.11,2.3,7.28,7,11.77,16.57,14,26.44,3,13.46,2,28-4.23,40.37S893,712.6,879.56,715.55a21,21,0,0,0-5.7,1.67c-2.84,1.53-4.55,4.5-6.2,7.28s-3.58,5.68-6.59,6.85-7.25-.44-7.49-3.66l-20.94,5.24c-5.85,1.47-12.5,2.81-17.53-.51-4.25-2.81-5.92-8-7-13.11-.13-.63-.25-1.26-.37-1.88l-1.2-6.85c-7,.51-13.93,1.37-20.87,2.12-8.23.9-21.79.64-29,4.95"/><path class="e24aac2c-5d07-49ad-a6c3-9a7e829fbfd5" d="M847.46,660.26s.92-6.89-2-9.74-13.41-2.06-17.43,4.39-5.65,19.26,2.63,19.49"/><path class="ba8eedc9-a345-466c-8f56-d2cd9148680f" d="M847.46,660.26a20.84,20.84,0,0,0-.82-6.49,6.42,6.42,0,0,0-1.49-2.63,4.93,4.93,0,0,0-2.61-1.16,14.65,14.65,0,0,0-6.2.4,13.82,13.82,0,0,0-5.47,2.8,9.93,9.93,0,0,0-1.09,1.06c-.35.37-.61.8-.92,1.2a19.61,19.61,0,0,0-1.45,2.81,25.15,25.15,0,0,0-1.77,6.16,13.43,13.43,0,0,0,.31,6.28,5.42,5.42,0,0,0,1.72,2.54,6,6,0,0,0,3,1.17,5.81,5.81,0,0,1-3.31-.71,6.05,6.05,0,0,1-2.31-2.62,13.53,13.53,0,0,1-1-6.84,23.87,23.87,0,0,1,1.57-6.7,20.18,20.18,0,0,1,1.54-3.13,12.61,12.61,0,0,1,2.36-2.73,15.89,15.89,0,0,1,13.32-3.21,6.1,6.1,0,0,1,3.23,1.8,7.58,7.58,0,0,1,1.48,3.26A17.35,17.35,0,0,1,847.46,660.26Z"/><path class="e24aac2c-5d07-49ad-a6c3-9a7e829fbfd5" d="M840.75,659.23s-2.28-3.48-5.68-2.74-5.6,7.25-3.76,13.73"/><path class="ba8eedc9-a345-466c-8f56-d2cd9148680f" d="M840.75,659.23a6.83,6.83,0,0,0-4.58-2.06,3.15,3.15,0,0,0-2,.79,6.28,6.28,0,0,0-1.38,1.88,15.59,15.59,0,0,0-1.38,4.93,31.68,31.68,0,0,0-.14,5.45,12.59,12.59,0,0,1-1.42-5.51,11.94,11.94,0,0,1,1.16-5.77,6.89,6.89,0,0,1,2-2.47,4,4,0,0,1,.73-.44,3.64,3.64,0,0,1,.82-.3,4.4,4.4,0,0,1,1.65-.11,5.23,5.23,0,0,1,2.82,1.27A6.32,6.32,0,0,1,840.75,659.23Z"/><path class="f58c46c5-4cf0-418d-8fac-4d436bd7543e" d="M805,711.29s-1-14.26.56-20.6C806,689,820,679.59,820,679.59a138.82,138.82,0,0,0-8.34,13c-1.94,3.78-5.15,14-4.44,18"/><path class="ed11e54b-536d-4fbc-aed8-43b0c0f22f8f" d="M818.23,642.29l.8,16.05s12.72-13.06,22.49-12.32,11.09,14.3,4.11,21.3c-3.4,3.09-4.73,3.25-4.73,3.25l3,4.76s13.36-5.33,17.59-8.25,8.39,7.36,21.14,8.28c0,0-5.14,13.51-.23,21,.53-.07-1.32-9,1.63-13.64,1.93,7.3.32,14.22,3.86,19.18S891.59,713,886.25,718c15.58-4.79,34.26-17.46,31.11-42.1,2.27,5.65,2.89,15.52-.22,23.42,7.73-14.35,9.25-47.34-4.7-67.76S881,611,881,611a24,24,0,0,1,18.61.51c0-.27-12.32-8.78-23.17-2.67-1.1-2.56-3.31-12.25-3.31-12.25s.74,10.94-2,12.34-28.53-.15-40.79,21.45C822.75,639.61,818.23,642.29,818.23,642.29Z"/><path class="aaaa23c1-6356-4c73-b19b-3ea325c68d16" d="M121.68,743.46s15.53-7.6,31.95-7.14-9.36-18.23-12.47-18.76-32.71-6.95-34.12-5.31-18.82,19.42-18.41,20.69-5.54,22-5.54,22Z"/><path class="a4f5044f-373b-4cd2-a57a-0329446ab28e" d="M109.71,740.46s7.9,3.31,12,3-2.63,13.75-6.66,19.73-15.13,10.69-6.24,24.9,7.29,28.8-5.59,22.32c-22.52-15.88-31.39-23.35-27.8-32.69S89.57,750.07,92.09,750,109.71,740.46,109.71,740.46Z"/><path class="e2f8e8b5-02ac-4ea3-a64f-37eb1c7926de" d="M371.32,687.86l3.17,12.28S303.23,716.49,300.11,717s-38.53-9.65-38.53-9.65l27.86-3S353.16,700.54,371.32,687.86Z"/><path class="e2f8e8b5-02ac-4ea3-a64f-37eb1c7926de" d="M109.27,738.7s21.31-5.82,54.38-1.27,73.59,16.2,92.38,17.91,32.07,6.54,53.45,10.9,38.59.44,48.23-.14,27.54,3.66,27.54,3.66S410.43,715.14,410,714s-30.89-16.23-30.89-16.23-49.7,10-74,8.17-46.69-7-61.49-12.67S184.76,698,158,698.07s-81.41-1.93-81.41-1.93S52.42,695.06,59.16,716s15.14,31.26,17.25,31.79S109.27,738.7,109.27,738.7Z"/><path class="f58c46c5-4cf0-418d-8fac-4d436bd7543e" d="M309.48,766.24c21.38,4.36,38.59.44,48.23-.14s27.54,3.66,27.54,3.66,2-4.36,4.88-10.63c-12.11.48-29.2,1.29-43.07,2.42-24.25,2-31.18.5-53.95-5.69s-103.45-18.07-128.69-22.4-70,4.83-70,4.83L98.33,742c6-1.81,10.94-3.34,10.94-3.34s21.31-5.82,54.38-1.27,73.59,16.2,92.38,17.91S288.1,761.88,309.48,766.24Z"/><path class="e24aac2c-5d07-49ad-a6c3-9a7e829fbfd5" d="M810.22,681.4l-6.08,4.43"/><path class="aa66a1a8-dbf1-472b-9393-0aa56c417427" d="M810.22,681.4a25.76,25.76,0,0,1-6.08,4.43,21.41,21.41,0,0,1,2.87-2.44A22.36,22.36,0,0,1,810.22,681.4Z"/><path class="e30c9ccf-82f5-460d-91a8-44f74b750e31" d="M371.32,687.86s40.25-9.13,53-15.18,29-21.18,43.07-27.4,54.1.33,69.78,12.5c5.57,8.63,9.55,26.61,5.25,44.76s-3.49,45.81-.68,53.51c-14.1,7.45-33.45,11-44.66,10.83s-28.3,3.34-42.64,8.73-65.5,14.3-65.5,14.3-7.91-34.2-11.25-50.76S371,699.32,371,699.32l2.54-2.91Z"/><path class="ed5aa8e8-b657-4486-a891-b351597d38fa" d="M374.87,698.6s46.62-13.64,57.55-21.39,14.81-13.26,27.39-21.6"/><path class="aa4e4bc8-9164-412b-84fe-8b68e88a889e" d="M541.74,756.05s-1.29,7.17,2.46,11.1,33.72,0,50-4.19,67.32-4.6,77.73-8.24c16.42-5.74,35.28-6.34,52.55-7.22,4.41-.23,9.1-.47,12.72-3,3-2.1,4.06-4.92,5.27-8.17,1.12-3,3.21-4.65,6-6.4,5.94-3.7,13-5.38,19.82-6.44a56.45,56.45,0,0,0,8.57-1.68c16.92-5.36,16.25-26.22,16.93-40.38.48-10.08.24-20.78-4.65-29.89-6.8-12.69-41.39-26.1-76.28-21.37s-122.3,40.18-182.57,23.36c0,0,13.79,17.9,13.92,33.58S528.73,715.34,541.74,756.05Z"/><path class="e2f8e8b5-02ac-4ea3-a64f-37eb1c7926de" d="M787.15,671.61a42,42,0,0,1,4.57,19.51c-.5,18.56-19.16,40.38-33.71,50.4-11,7.59-28,10.17-39.73,2.83-5.85-3.66-10-9.46-13.41-15.48s-9.57-16.42-8.94-23.69c.51-5.92,3.75-13.37,5.75-19,4.4-12.37,11.4-24.8,23.73-30.66C746.76,645.37,775.87,649,787.15,671.61Z"/><path class="e1cd0b53-8b05-47da-8b2c-b7481bbf3b64" d="M47.72,704.37s-4.74,17.33.12,29.69,1.29,28.17,2,36.31,3.13,24,39.26,37"/><path class="ab64ff15-d7f4-453c-9fab-d406d699daf2" d="M49.3,761.55c.2-15.65-3-27.6-4.63-49.08-.58-7.56.12-12.84,1.27-16.53-6.74-.94-10.09-.53-12.32,6.39s.93,18.21,4.32,32.55,6.33,29.55,5.61,45.35S60.16,804.62,73.79,808c11.91,3,25.74,8.93,29.4,1.64-5-1.5-20.62-6.27-35-11.57C50.83,791.67,49.09,777.19,49.3,761.55Z"/><path class="a4f5044f-373b-4cd2-a57a-0329446ab28e" d="M104.1,805.64c.54-13.09-13.33-13.57-14.49-26.85s8.12-19.44,13.46-25.84,9.71-14.79,3.89-15.5-20.2-5.07-20.2-5.07-11.57-2.65-15.68-11.17S69.74,704.65,75,700.72s4.65-8.58-2.52-6.88-19.74,3-26.49,2.1h0c-1.15,3.69-1.85,9-1.27,16.53C46.3,734,49.5,745.9,49.3,761.55s1.53,30.12,18.92,36.55c14.35,5.3,29.94,10.07,35,11.57A10,10,0,0,0,104.1,805.64Z"/><path class="e2f8e8b5-02ac-4ea3-a64f-37eb1c7926de" d="M789.11,701.55c1.16,28.93-29.71,32.79-44.37,32.4-12,11.57-37,8.87-50.15,7.33,9.65,34.72,40.51,77.54,40.51,77.54s19.29-.38,28.93.39,34,5.78,45.14,10,22,4.24,22,7.33c-2.7,3.08-14.28.77-14.28.77s8.49.77,7.33,3.09c-6.94,4.62-15.81,1.15-15.81,1.15s9.26.77,5.78,3.09c-9.25,2.31-22.76,1.93-37.8,0s-34.34,0-45.52,0S713.5,842,710,835.41s-35.87-35.49-57.09-66.74-27.78-64-21.6-78.7c9.56-11.31,26.68-15.08,40.58-17.37a211.68,211.68,0,0,1,26.61-2.42c14.85-.55,14.85-.55,25.81-6.55s29.74-10,41.31-3"/><path class="e2f8e8b5-02ac-4ea3-a64f-37eb1c7926de" d="M808.4,841.58a169.75,169.75,0,0,1-18.13-5.78c-8.88-3.48-19.29-2.7-19.29-2.7"/><path class="e2f8e8b5-02ac-4ea3-a64f-37eb1c7926de" d="M816.88,837.34s-10.8-.53-18.13-4.32-20.44-4.55-20.44-4.55"/><path class="f58c46c5-4cf0-418d-8fac-4d436bd7543e" d="M686.12,802c-13.89-17.1-30.57-39.05-42.12-64.41s-8.68-42.5,4.68-49.68,25.69-9,53.46-10.75c16-1.77,20.84-15.15,48.58-20.21a56.93,56.93,0,0,0-26.39,6.73c-11,6-11,6-25.81,6.55a211.68,211.68,0,0,0-26.61,2.42c-13.9,2.29-31,6.06-40.58,17.37-6.18,14.66.38,47.45,21.6,78.7,20.42,30.08,51.2,58,56.57,65.9A350.89,350.89,0,0,0,686.12,802Z"/><path class="f58c46c5-4cf0-418d-8fac-4d436bd7543e" d="M695.73,420.63c-5.87-39.11-2.39-94.51-8.67-110.61s-7.75-46-7.75-46l5-41.14-10,34.73s-9.49-5.34-12.22-34.73c-.34-3.58-1.07-5-2.06-4.73-1.86,21.08,1.47,48.63,11.31,65.49,9.2,21.79,11.87,45.77,11.14,65.39s5.57,55.22,6.78,66.12,10.9,40.44,18.41,53.52c4.63,8.07,13.59,13.37,22.84,16.13C730.57,484.78,701.61,459.73,695.73,420.63Z"/><path class="bbe40eed-ba3c-49da-b87f-2049dc45015a" d="M511,485.61a86.07,86.07,0,0,1-5.09,8.6c-1.82,2.74-3.74,5.39-5.72,8s-4,5.12-6.15,7.59-4.29,4.87-6.51,7.25L484,520.81l-3.26-4L477.63,513l-3-3.9c-2-2.64-3.92-5.3-5.76-8.05s-3.62-5.55-5.29-8.44a87.75,87.75,0,0,1-4.6-9,85.32,85.32,0,0,1,8.05,6.14c2.54,2.17,5,4.42,7.35,6.73s4.64,4.69,6.88,7.11l3.29,3.68,3.2,3.76-6.78-.21c2.24-2.34,4.52-4.66,6.87-6.9s4.76-4.44,7.23-6.57,5-4.19,7.66-6.16A86.32,86.32,0,0,1,511,485.61Z"/></svg>