<svg id="e40f95c3-56c0-4ba6-8b2b-505c6426ea69" data-name="Layer 1" xmlns="http://www.w3.org/2000/svg" viewBox="0 0 938 938"><defs><style>.a1eb13f3-a04a-4116-9c81-b6542cb81108,.a550410b-2c75-4b25-9905-6b772c5b5a3d,.b47d1189-d5b0-4590-911d-70291c945ea0{fill:#fcc7b4;}.a1eb13f3-a04a-4116-9c81-b6542cb81108,.a550410b-2c75-4b25-9905-6b772c5b5a3d{stroke:#a67167;}.a1eb13f3-a04a-4116-9c81-b6542cb81108,.a550410b-2c75-4b25-9905-6b772c5b5a3d,.a58d48b6-35e4-4c69-98ed-a4800c809a15,.e4643fb1-5ec0-4782-90f8-669984add3d3{stroke-miterlimit:10;}.a550410b-2c75-4b25-9905-6b772c5b5a3d{stroke-width:1.5px;}.a1eb13f3-a04a-4116-9c81-b6542cb81108,.e4643fb1-5ec0-4782-90f8-669984add3d3{stroke-width:0.5px;}.b93ac6df-2590-495f-a396-ded3068579de{fill:#e59c95;}.b0285774-95f9-4811-9279-8b3f24a67070{fill:#7cafc4;}.a264e5b0-6957-4181-97d9-69a55f91532d{fill:#ef9d0c;}.a58d48b6-35e4-4c69-98ed-a4800c809a15{fill:#4d4d4f;stroke:#808285;}.a9344a39-5b7c-4035-896d-5299b071c4ec{fill:#848689;}.b8460f4f-599b-4174-bf59-337aade15c81{fill:#9d2324;opacity:0.46;}.ae5deccd-2845-4546-99b3-238bb10837f3{fill:none;}.aaf9e068-df88-4cdb-9115-dc864b2a80a1{fill:#6b3d35;}.a07aaf9a-9dbb-44e6-84ce-93f7914151d1{fill:#a67167;}.a7966fc9-50fe-4142-9ad7-5c253ff67b98{fill:#c48579;}.ab80f8ff-8f6c-490c-9883-3757ce920241{fill:#0e7987;}.e4643fb1-5ec0-4782-90f8-669984add3d3{fill:#616264;stroke:#000;}.a9515f5b-337e-473d-873f-0d06e03645a7{fill:#fff;}</style></defs><path class="a550410b-2c75-4b25-9905-6b772c5b5a3d" d="M90.91,274.49s11.59-5.7,23.85-5.36-7-13.68-9.31-14.07S81,249.84,80,251.07s-14,14.58-13.73,15.53-4.14,16.5-4.14,16.5Z"/><path class="a1eb13f3-a04a-4116-9c81-b6542cb81108" d="M277.27,232.78l2.37,9.21s-53.2,12.26-55.53,12.61-28.76-7.24-28.76-7.24l20.8-2.24S263.72,242.29,277.27,232.78Z"/><path class="a1eb13f3-a04a-4116-9c81-b6542cb81108" d="M81.65,270.92s15.9-4.37,40.59-1,54.93,12.15,69,13.44,23.94,4.91,39.9,8.18,28.81.33,36-.11,20.56,2.74,20.56,2.74,18.8-41,18.45-41.8-23.06-12.18-23.06-12.18-37.11,7.51-55.22,6.13-34.85-5.22-45.9-9.5S138,240.4,118,240.43,57.27,239,57.27,239s-18.07-.81-13,14.88,11.3,23.45,12.88,23.85S81.65,270.92,81.65,270.92Z"/><path class="b93ac6df-2590-495f-a396-ded3068579de" d="M231.11,291.58c16,3.27,28.81.33,36-.11s20.56,2.74,20.56,2.74l1.75-3.81-.39-2.33s-34.23,0-51.54-1.5-27.83-5-44.7-8.14S122.24,270,122.24,270c24.68,3.41,54.93,12.15,69,13.44S215.15,288.31,231.11,291.58Z"/><path class="b47d1189-d5b0-4590-911d-70291c945ea0" d="M567.84,635.84c-5.08,2.71-11.71,6.46-17.94,10.62-12.5,8.35-24.61,11.42-30.31,14s-3.27,7.4-24.65,13c-26.91,3.68-34.88,14.82-48.55,20.11-1.94.75-4.25,1.74-6.77,2.87h0c-15.25,6.83-38.54,19.12-38.54,19.12s-4.36,8.57-5,16c11.06-3.65,32.05-10.18,50.8-12.31h0c2.29-.26,4.55-.46,6.76-.57,28.72-2.53,66.52-14.43,78.69-19.95s21.3-6.13,31.83-9.9q11.52-2.14,21.79-4.86Z"/><path class="b93ac6df-2590-495f-a396-ded3068579de" d="M585.92,683.76l-1.68-4.47c-7.77,2-40.31,10.63-49,14.59-9.87,4.51-54.44,22.24-80.16,22.24-4.56,1.16-8.43,2.31-11.64,3.35,1.14-.16,2.27-.3,3.39-.43h0c2.29-.26,4.55-.46,6.76-.57,28.72-2.53,66.52-14.43,78.69-20s21.3-6.13,31.83-9.9C571.81,687.19,579.06,685.55,585.92,683.76Z"/><path class="a1eb13f3-a04a-4116-9c81-b6542cb81108" d="M823.86,560.6a8.1,8.1,0,0,1,2.81,1.49,12.08,12.08,0,0,1,2.66,3.89c5.71,11.21,13.4,25.62,6.84,38.14a11.36,11.36,0,0,0-1.56,3.75,9.33,9.33,0,0,0,.51,3.5,91.57,91.57,0,0,1,.9,44.11c-1.4,6.13-.23,12.83.37,19.22q1.2,12.75,1.33,25.57c.1,10.29,1.24,19.94.63,30.31-.17,2.86-1.08,30.75,1.9,31.11,0,0,39.92,4.81,42.31,8.42s-34.09,4.21-43.07,3-12.56,1.2-15.55-18.64-17.35-72.13-15.55-90.17c.91-9.18-2.33-18.09-4.55-26.85-2.67-10.54-2.8-21.1-4-31.84a9,9,0,0,0-1.42-4.68c-2.63-3.37-7.89-1.48-11.83.16a46.39,46.39,0,0,1-20.89,3.4c.83-9,1.82-18.45,7-25.86,4.22-6,10.79-10,17.49-13.09,9.84-4.49,20.81-7.39,31.45-5.48A19,19,0,0,1,823.86,560.6Z"/><path class="a1eb13f3-a04a-4116-9c81-b6542cb81108" d="M800.77,474.76c3.2-12.1-4.38-25.33-13.93-29.82,1.19-13.22-6.38-31.65-14-46.48-4-27.65-15.16-60.12-22.34-80.55,2-4,.4-14,.4-14,4.39-5.21,2.8-13.63,0-13.63s-4,8.82-4,8.82-8-18-12-22.44-13.56-.4-16.35,7.42,0,23.84,3.19,29.85S733,322.16,733,322.16s3.17,26.72,4.36,47.12,4.68,20.16,8.67,45.4c-4.68,31.55,12.89,60.72,12.89,60.72s-33,22.34-41.43,41.67,46.59,15,46.59,15l48.26-38.73Z"/><path class="b93ac6df-2590-495f-a396-ded3068579de" d="M762.09,470.27c-11.17-12.42-11.17-47.69-10.37-52.9s-4.39-19.23-6.78-33.66C742.86,371.16,733,322.16,733,322.16s3.17,26.72,4.36,47.12,4.68,20.16,8.67,45.4c-4.68,31.55,12.89,60.72,12.89,60.72s-26.35,17.85-38,35.44c2,.79,4,.31,5.65-2.09,8.77-12.43,44.27-30.81,44.27-30.81S768.47,475.88,762.09,470.27Z"/><path class="b0285774-95f9-4811-9279-8b3f24a67070" d="M567.24,633.94,548,582.64c2.08-1.52,4.14-3,6.15-4.27,18.36-12,79.24-27.21,79.24-27.21,8.67,2.41,13.78,1,13.78,1s3.79,47.68,31.59,79.49c-4.2,8.61-32.9,42.91-92.85,58.58l-18.08-54.73c5.1-2.72,8.64-4.39,8.64-4.39S573.23,631.89,567.24,633.94Z"/><path class="b47d1189-d5b0-4590-911d-70291c945ea0" d="M389.53,689.51c10.24-2.38,18.84-7.63,38.37-20.62a103.21,103.21,0,0,0,7,19.09c-16,5.89-36.86,15-36.86,15S388.11,698.22,389.53,689.51Z"/><path class="b93ac6df-2590-495f-a396-ded3068579de" d="M812.1,597.41c-2.35-1.55-7.71-1.34-10.52-1.85,4.42,4.08,2.75,7.53,1.75,13a60.78,60.78,0,0,0-.63,11l0,16.17a152.52,152.52,0,0,1-4.82-31.93c-.06-1.33-.27-2.93-1.47-3.49a3.45,3.45,0,0,0-1.69-.18c-4.45.28-9,1.09-13.34,1.79-3.44.55-7.2,2.35-10.7,2.15-.63,0-1-.54-1.29-1.38L792,593.56l-10.44-1.37,8.26-1.43C799.78,589.29,812.1,597.41,812.1,597.41Z"/><path class="a1eb13f3-a04a-4116-9c81-b6542cb81108" d="M759.21,531.12s14-16.09,15.38-16.57,22-13.57,22-13.57l15.78-7.61,3.35,7.24,17.83-6.51,14,37.62-20.39,8.65s2.12,6.72-2.48,15.32c-22.1,11.39-54.64,19.95-57.37,18.22s-13.21-27.49-13.21-27.49Z"/><path class="a264e5b0-6957-4181-97d9-69a55f91532d" d="M643.3,552.22s3,26.83,9.5,40.35,9.68,26.31,16.07,33.35,7.15,11.46,4.39,16.16c13.75-10.51,32.7-19,44.49-22s17.11-9.79,36.2-11.79c14.38-1.19,16.78-4.21,16.78-4.21s3.79-27,54.92-44.32c.14-3-1-4.06-1-4.06S789,569,776,542c-3.85-13,10-35.92,36.37-48.61-1.33-4-2.12-4.84-2.12-4.84s-50,33.38-84.05,14.21C713.57,512.4,702,518.63,693,528.65S643.3,552.22,643.3,552.22Z"/><path class="a58d48b6-35e4-4c69-98ed-a4800c809a15" d="M409.44,724.4a12.84,12.84,0,0,0-2.1-9.41c-3.23-.41-4.14-1.48-4.14-1.48s3.52-5-6.35-1.59-23.51,11.64-32.36,12.44-13.27,7.66-13.69,18,9.63,19.33,23.49,13.75,37-23.49,41.15-27.86C412.18,729.05,408.31,727.76,409.44,724.4Z"/><path class="a9344a39-5b7c-4035-896d-5299b071c4ec" d="M350.8,742.35c.42-10.33,4.83-17.2,13.69-18a24.47,24.47,0,0,0,3.23-.57c-4.69,2-10.78,5.61-13,11.53,0,0,7.09,7.32,3.5,13.32-1.83,3.49,5.65,11.71,22.61,2.92a2.34,2.34,0,0,1,.06,1.4,66,66,0,0,1-6.58,3.14C360.43,761.68,350.39,752.67,350.8,742.35Z"/><path class="b8460f4f-599b-4174-bf59-337aade15c81" d="M731.22,606c12.71-8,32-.64,38.21-9.53C778.14,576.43,800,570.7,800,570.7l-.21.62c-26.65,15.69-29,32.75-29,32.75s-2.4,3-16.77,4.21c-19.1,2-24.42,8.77-36.21,11.79s-30.74,11.5-44.49,22c2.76-4.7,2-9.13-4.39-16.16-3.6-4-6.18-9.78-8.92-16.52-3.29-12.34-6.76-22.11-6.76-22.11s20.83,25.2,26.85,32S718.51,614.08,731.22,606Z"/><path class="a1eb13f3-a04a-4116-9c81-b6542cb81108" d="M825.41,530.64s-6.24-7.47-5.32-16.6c1.26-12.42,13.08-24.38,13.08-24.38,3.3-3.35,8.82-6.05,12.93-8.53,6.77-4.08,14-8.12,21.68-10.6a32.19,32.19,0,0,1,22.62,1.39c9,4,14.91,13.19,15.73,23,1,11.45-5.23,20.15-13.89,26.88a96.19,96.19,0,0,1-13.37,8.5A62.15,62.15,0,0,1,844.55,537C836.9,536.14,828,533.91,825.41,530.64Z"/><path class="a1eb13f3-a04a-4116-9c81-b6542cb81108" d="M880.71,526.7a4.53,4.53,0,0,1,1.42,6.16c-2.12,3.93-6.58,2.94-11.32,4.24s-7.76-.43-5.49-2"/><path class="a1eb13f3-a04a-4116-9c81-b6542cb81108" d="M856.23,475.94a4.51,4.51,0,0,0-4.38-4.53c-4.44-.34-6,4-9.69,7.25s-3.85,6.78-1.33,5.7"/><path class="b93ac6df-2590-495f-a396-ded3068579de" d="M837.11,532.87c3.55,1,31.74,2.72,48.72-9.82a67.26,67.26,0,0,0,20.36-24.75c-.39,9.81-6.16,17.46-14,23.52a96.19,96.19,0,0,1-13.37,8.5A62.15,62.15,0,0,1,844.55,537c-7.65-.9-16.6-3.13-19.14-6.4,0,0-6.24-7.47-5.32-16.6.63-6.24,3.94-12.37,7.06-16.92a.77.77,0,0,1,0,.83c-1.75,3.71-4.95,16.48-3.56,23.44S833.55,531.88,837.11,532.87Z"/><path class="ae5deccd-2845-4546-99b3-238bb10837f3" d="M498.16,667.47c12.92-7.76,18.74-9.74,27.18-11.53s20.35-11.66,34.59-19.32a133.8,133.8,0,0,1,16.55-5.47,241,241,0,0,0-26.58,15c-12.5,8.35-24.61,11.42-30.31,14s-3.27,7.4-24.65,13c-26.91,3.68-34.88,14.82-48.55,20.11-1.94.75-4.25,1.73-6.77,2.87.32.76.64,1.57,1,2.42-2.24-3.73-4.13-7.3-5.73-10.66a114.19,114.19,0,0,1,14.52-4.59C461.6,681,480,678.75,498.16,667.47Z"/><path class="a58d48b6-35e4-4c69-98ed-a4800c809a15" d="M401.32,697.81a12.79,12.79,0,0,0-2.1-9.41c-3.23-.41-4.14-1.48-4.14-1.48s3.52-5-6.34-1.58S365.22,697,356.37,697.77s-13.26,7.66-13.68,18,9.62,19.33,23.49,13.76,37-23.5,41.14-27.87C404.06,702.46,400.2,701.17,401.32,697.81Z"/><path class="a9344a39-5b7c-4035-896d-5299b071c4ec" d="M342.69,715.76c.42-10.33,4.83-17.2,13.68-18a22.72,22.72,0,0,0,3.24-.56c-4.7,2-10.79,5.6-13,11.52,0,0,7.08,7.32,3.49,13.32-1.83,3.49,5.65,11.71,22.61,2.92a2.27,2.27,0,0,1,.06,1.4,69.63,69.63,0,0,1-6.57,3.15C352.31,735.09,342.27,726.08,342.69,715.76Z"/><path class="aaf9e068-df88-4cdb-9115-dc864b2a80a1" d="M868.83,534.17l.85-3.08s8.21-3.36,13.32-8.57c1.32-3.94,6.25-9.18,8.8-12.25,0,0-5.76-5.8-7-12.23-.07.48,3.91,4,3.91,4s-1.71-7.27-7.76-11.17-8.85-5.89-8.85-10.37c-.29.05-1.7,2.61,1.33,6-1.12-.27-5-8.56-3.77-11.24-3.49.29-5.81,3.78-11,4.83s-9.9,2.33-9.9,2.33l.16-1.72,7.07-6.32s-1.34-4.25-5.5-2.45c7.83-4.6,22.82-9.51,32.74-9.06s20,9.05,21.47,14.05a33.16,33.16,0,0,1,1.15,9.39s4.37,2.18,7.57,9.19l-6.73-5.17s6.36,4.77.35,19.1-21.74,24.77-27.46,26.38c.24-.35,4.45-3.26,2.93-6.22Z"/><path class="ae5deccd-2845-4546-99b3-238bb10837f3" d="M576.48,631.15s-3.54,1.67-8.64,4.39l-.6-1.6C573.23,631.89,576.48,631.15,576.48,631.15Z"/><path class="b47d1189-d5b0-4590-911d-70291c945ea0" d="M559.93,636.62c-14.24,7.66-26.15,17.54-34.59,19.32s-14.26,3.77-27.18,11.53C480,678.75,461.6,681,449.38,683.39A114.19,114.19,0,0,0,434.86,688a103.21,103.21,0,0,1-7-19.09l4-2.65c22.38-14.94,41.09-30.54,52.46-34.13s15.52-2,20.27-8.39c8-10.37,26.5-28.74,43.41-41.08l19.23,51.3C565.13,634.66,562.69,635.54,559.93,636.62Z"/><path class="a1eb13f3-a04a-4116-9c81-b6542cb81108" d="M570.43,223.5c.73,18.31-18.74,20.75-28,20.5-7.54,7.33-34.34,1.32-42.61.34,6.08,22,3.19,56.41,3.19,56.41s12.17-.24,18.25.25,15.48,3.66,22.54,6.34S557.68,310,557.68,312c-1.7,1.95-9,.49-9,.49s5.35.49,4.62,1.95c-4.38,2.93-10,.73-10,.73s5.84.49,3.65,2c-5.84,1.46-14.35,1.22-23.84,0s-15.73,0-22.79,0-10.95-1.71-13.14-5.86-6.55-29.34-12.65-47.45c-7.61-22.65-7.54-38.35-3.65-47.63,6-7.15,16.83-9.54,25.6-11a132.78,132.78,0,0,1,16.78-1.53c9.37-.35,9.37-.35,16.28-4.15s18.76-6.35,26.06-1.88"/><path class="a1eb13f3-a04a-4116-9c81-b6542cb81108" d="M543.32,315.15a105.8,105.8,0,0,1-11.43-3.66c-5.6-2.19-6.24-1.71-6.24-1.71"/><path class="a1eb13f3-a04a-4116-9c81-b6542cb81108" d="M548.68,312.47s-6.82-.34-11.44-2.73-12.9-2.89-12.9-2.89"/><path class="a1eb13f3-a04a-4116-9c81-b6542cb81108" d="M588.4,202.53c3.3-.81,7.54-.23,11-.74,6-.88,13.84-2.22,18.6-6.39,4.49-3.93,8.09-8.83,12.76-12.54,12-9.48,30.91-8.9,41.89,1.73,5.43,5.26,8.79,12.43,10.45,19.83,2.27,10.1,1.46,21-3.15,30.29s-13.23,16.63-23.29,18.84a15.78,15.78,0,0,0-4.25,1.25c-2.13,1.15-3.4,3.38-4.63,5.47s-2.68,4.25-4.92,5.13-5.41-.33-5.59-2.74l-15.64,3.93c-4.37,1.1-9.33,2.11-13.09-.38-3.17-2.11-4.42-6-5.2-9.84-.1-.47-.19-1-.28-1.41l-.9-5.14c-5.24.39-10.4,1-15.58,1.6-6.14.67-16.26.47-21.67,3.71"/><path class="b47d1189-d5b0-4590-911d-70291c945ea0" d="M632.73,212.07s.68-5.17-1.49-7.31-10-1.54-13,3.3-4.22,14.44,2,14.62"/><path class="a07aaf9a-9dbb-44e6-84ce-93f7914151d1" d="M632.73,212.07a16.32,16.32,0,0,0-.73-4.83,4.91,4.91,0,0,0-1.11-1.89,3.63,3.63,0,0,0-1.87-.8,10.9,10.9,0,0,0-4.53.34,10,10,0,0,0-4,2.07,7.25,7.25,0,0,0-1.45,1.63,18.37,18.37,0,0,0-1.07,2.07,19.28,19.28,0,0,0-1.34,4.54,10.31,10.31,0,0,0,.15,4.63,4,4,0,0,0,3.4,2.85,9.05,9.05,0,0,1-1.27-.05,3.73,3.73,0,0,1-1.23-.45,4.49,4.49,0,0,1-1.81-2,10.41,10.41,0,0,1-.79-5.18,17.81,17.81,0,0,1,1.14-5.09,16.32,16.32,0,0,1,1.16-2.38,9.36,9.36,0,0,1,1.8-2.11,11.55,11.55,0,0,1,4.83-2.39,11.34,11.34,0,0,1,5.34,0,4.7,4.7,0,0,1,2.49,1.43,5.73,5.73,0,0,1,1.09,2.52A12.55,12.55,0,0,1,632.73,212.07Z"/><path class="b47d1189-d5b0-4590-911d-70291c945ea0" d="M627.72,211.3s-1.7-2.61-4.24-2.05-4.18,5.43-2.81,10.3"/><path class="a07aaf9a-9dbb-44e6-84ce-93f7914151d1" d="M627.72,211.3a5.19,5.19,0,0,0-3.44-1.35,2.07,2.07,0,0,0-1.3.59,4.67,4.67,0,0,0-1,1.33,12.88,12.88,0,0,0-1.06,3.6,30.91,30.91,0,0,0-.3,4.08,9.28,9.28,0,0,1-.43-8.57,5.34,5.34,0,0,1,1.56-1.92,2.8,2.8,0,0,1,.58-.35,2.88,2.88,0,0,1,.66-.24,3.24,3.24,0,0,1,1.31-.07A4.23,4.23,0,0,1,627.72,211.3Z"/><path class="b93ac6df-2590-495f-a396-ded3068579de" d="M601,250.36s-.77-10.7.41-15.46c.33-1.29,10.8-8.33,10.8-8.33a103,103,0,0,0-6.22,9.74c-1.45,2.84-3.85,10.47-3.32,13.54"/><path class="aaf9e068-df88-4cdb-9115-dc864b2a80a1" d="M610.9,198.59l.6,12s9.5-9.79,16.79-9.24,8.28,10.73,3.07,16c-2.54,2.32-3.53,2.43-3.53,2.43l2.22,3.57s10-4,13.13-6.18,6.27,5.52,15.79,6.21c0,0-3.84,10.14-.18,15.76.4,0-1-6.74,1.22-10.23,1.44,5.48.24,10.66,2.88,14.39s2.78,8.34-1.2,12c11.62-3.59,25.57-13.09,23.22-31.58a26.32,26.32,0,0,1-.16,17.57c5.77-10.77,6.9-35.51-3.52-50.83s-23.47-15.39-23.47-15.39a17.84,17.84,0,0,1,13.89.38c0-.2-9.2-6.59-17.29-2-.83-1.92-2.48-9.19-2.48-9.19s.55,8.2-1.53,9.26-21.3-.12-30.45,16.09C614.28,196.58,610.9,198.59,610.9,198.59Z"/><path class="a58d48b6-35e4-4c69-98ed-a4800c809a15" d="M82,272.24s5.9,2.48,8.94,2.25-2,10.31-5,14.8-11.3,8-4.66,18.68,5.44,21.6-4.18,16.74C60.29,312.8,53.67,307.2,56.35,300.19s10.58-20.75,12.47-20.83S82,272.24,82,272.24Z"/><path class="b47d1189-d5b0-4590-911d-70291c945ea0" d="M604.92,227.93l-4.53,3.33"/><path class="a7966fc9-50fe-4142-9ad7-5c253ff67b98" d="M604.92,227.93a14.19,14.19,0,0,1-4.54,3.33,12.53,12.53,0,0,1,2.11-1.89A12.86,12.86,0,0,1,604.92,227.93Z"/><path class="b0285774-95f9-4811-9279-8b3f24a67070" d="M277.27,232.78s30.05-6.86,39.57-11.39S338.51,205.5,349,200.83s40.39.25,52.09,9.38c4.16,6.48,7.14,20,3.93,33.58s-2.61,34.37-.51,40.14c-10.53,5.59-25,8.22-33.34,8.13s-21.13,2.5-31.83,6.55-48.9,10.72-48.9,10.72-5.91-25.65-8.4-38.08-5-29.87-5-29.87l1.91-2.19Z"/><path class="ab80f8ff-8f6c-490c-9883-3757ce920241" d="M279.92,240.84s34.8-10.24,43-16.05,11.06-9.95,20.45-16.2"/><path class="a264e5b0-6957-4181-97d9-69a55f91532d" d="M404.5,283.93s-1,5.38,1.84,8.33,25.17,0,37.32-3.15,50.25-3.45,58-6.17c12.26-4.31,26.34-4.76,39.23-5.42,3.29-.17,6.79-.36,9.5-2.26,2.23-1.57,3-3.69,3.93-6.13.84-2.25,2.4-3.49,4.5-4.8,4.44-2.78,9.68-4,14.8-4.83a42.11,42.11,0,0,0,6.4-1.26c12.63-4,12.13-19.67,12.64-30.29.35-7.57.17-15.59-3.47-22.42-5.08-9.53-30.91-19.59-57-16S441,219.64,396,207c0,0,10.3,13.42,10.4,25.18S394.78,253.39,404.5,283.93Z"/><path class="a1eb13f3-a04a-4116-9c81-b6542cb81108" d="M587.7,220.59a31.62,31.62,0,0,1,3.42,14.64c-.38,13.92-14.31,30.29-25.17,37.8-8.22,5.69-20.91,7.63-29.66,2.13-4.37-2.75-7.5-7.1-10-11.62s-7.14-12.31-6.68-17.77c.38-4.44,2.81-10,4.3-14.26,3.28-9.28,8.51-18.61,17.71-23C557.55,200.9,579.28,203.63,587.7,220.59Z"/><path class="e4643fb1-5ec0-4782-90f8-669984add3d3" d="M35.7,245.17s-3.54,13,.08,22.27,1,21.13,1.52,27.23,2.34,18,29.31,27.74"/><path class="a9344a39-5b7c-4035-896d-5299b071c4ec" d="M36.87,288.06c.15-11.74-2.23-20.71-3.46-36.82a33.72,33.72,0,0,1,1-12.4c-5-.71-7.53-.4-9.2,4.8s.7,13.66,3.23,24.41,4.73,22.17,4.19,34,12.4,18.3,22.57,20.86c8.89,2.24,19.22,6.7,21.95,1.23-3.75-1.13-15.39-4.71-26.1-8.68C38,310.66,36.72,299.79,36.87,288.06Z"/><path class="a58d48b6-35e4-4c69-98ed-a4800c809a15" d="M77.78,321.14c.4-9.83-10-10.19-10.82-20.15S73,286.41,77,281.61s7.24-11.1,2.9-11.63-15.08-3.8-15.08-3.8-8.64-2-11.71-8.38-1-12.43,2.91-15.38,3.47-6.43-1.89-5.15-14.73,2.28-19.77,1.57h0a33.72,33.72,0,0,0-1,12.4c1.23,16.11,3.61,25.08,3.46,36.82S38,310.66,51,315.48c10.71,4,22.35,7.55,26.1,8.68A7.44,7.44,0,0,0,77.78,321.14Z"/><path class="a1eb13f3-a04a-4116-9c81-b6542cb81108" d="M589.17,243c.86,21.71-22.18,24.6-33.12,24.31-8.93,8.69-40.65,1.56-50.44.4,7.2,26.05,3.78,66.88,3.78,66.88a85.27,85.27,0,0,1,11.43.29c7.2.58,25.34,4.34,33.7,7.52s16.41,3.19,16.41,5.5c-2,2.32-10.65.58-10.65.58s6.33.58,5.47,2.32c-5.19,3.47-11.81.86-11.81.86s6.91.58,4.32,2.32c-6.91,1.74-17,1.45-28.22,0s-15.47,0-23.82,0-13-2-15.55-6.95-7.76-34.77-15-56.25c-9-26.85-8.93-45.46-4.33-56.46,7.15-8.48,19.93-11.32,30.3-13a159.33,159.33,0,0,1,19.86-1.82c11.09-.41,11.09-.41,19.27-4.91s22.21-7.53,30.85-2.23"/><path class="a1eb13f3-a04a-4116-9c81-b6542cb81108" d="M553.94,351.7a125.53,125.53,0,0,1-13.54-4.34c-6.62-2.6-14.4-2-14.4-2"/><path class="a1eb13f3-a04a-4116-9c81-b6542cb81108" d="M560.28,348.52s-8.07-.4-13.54-3.24-15.26-3.42-15.26-3.42"/><path class="b93ac6df-2590-495f-a396-ded3068579de" d="M555.35,262.37s-8.43,4.41-15.38,5.38c-14.37-1.37-41.3-7.79-41.3-7.79s-.8,2,1.59,4.94c7.18,15.35,9.13,69.73,9.13,69.73s3.42-40.83-3.78-66.88c9.79,1.16,41.51,8.29,50.44-.4,5.88.16,15.25-.61,22.53-4.72A38,38,0,0,1,555.35,262.37Z"/><polygon class="ab80f8ff-8f6c-490c-9883-3757ce920241" points="566.19 631.15 581.92 625.07 609.74 615.73 615.42 609.12 613.39 617.46 576.48 631.15 567.24 633.94 566.19 631.15"/><path class="b93ac6df-2590-495f-a396-ded3068579de" d="M498.16,667.47c12.92-7.76,18.74-9.74,27.18-11.53s20.35-11.66,34.59-19.32c2.76-1.08,5.2-2,7.31-2.68l-3-8.14s-16.37,11-25.34,16.28-21.24,6.11-29,11.82-24.52,13.23-37.68,18-37.29,16-37.29,16a114.19,114.19,0,0,1,14.52-4.59C461.6,681,480,678.75,498.16,667.47Z"/><path class="a9515f5b-337e-473d-873f-0d06e03645a7" d="M479.06,434.88a62.91,62.91,0,0,1-3.79,6.44c-1.36,2.06-2.8,4.05-4.27,6s-3,3.84-4.6,5.69-3.2,3.66-4.85,5.44l-2.63,2.83-2.44-3-2.33-2.87-2.26-2.92c-1.47-2-2.93-4-4.3-6.05s-2.7-4.16-3.95-6.33a65.86,65.86,0,0,1-3.43-6.76,61.21,61.21,0,0,1,6,4.61c1.9,1.62,3.71,3.31,5.48,5s3.47,3.53,5.14,5.34l2.46,2.76,2.39,2.82-5.07-.16c1.68-1.76,3.38-3.49,5.14-5.18s3.54-3.33,5.39-4.92,3.75-3.14,5.72-4.62A63.75,63.75,0,0,1,479.06,434.88Z"/></svg>