<svg id="e4df8948-6402-45bb-a990-d0fa891580d2" data-name="Layer 1" xmlns="http://www.w3.org/2000/svg" viewBox="0 0 938 938"><defs><style>.e7d87215-9996-4d29-ae13-3c683e3cb4ed,.f87b6e3b-56a5-41ef-82dd-8aa91cd08d0b{fill:#fcc7b4;}.f3883b00-f7b5-4e30-999f-1eec1441e0e0{fill:#e59c95;}.bf55e946-82b4-4633-9ea0-a1e50aeddbb6{fill:#4d4d4f;stroke:#808285;}.bf55e946-82b4-4633-9ea0-a1e50aeddbb6,.e7d87215-9996-4d29-ae13-3c683e3cb4ed{stroke-miterlimit:10;}.eb805a5f-fa66-490a-9667-5e6ba47c47f1{fill:#848689;}.bcb1a57a-a9b5-44fe-a4c5-7bcab4883731{fill:none;}.e6a8344a-52e6-459e-b0d4-fde2a4b42e4e{fill:#7cafc4;}.e7d87215-9996-4d29-ae13-3c683e3cb4ed{stroke:#a67167;stroke-width:0.5px;}.b343d2b1-2fff-4b6e-b804-f68a92c09505{fill:#a67167;}.b08d5314-69e3-4b19-b261-637087d4a037{fill:#ef9d0c;}.add07b86-d794-429c-8cf4-430f6de70464{fill:#9d2324;opacity:0.46;}.b33148c3-73bf-48ec-964d-fcd1dfeb7dec{fill:#6b3d35;}.a5edbdc4-d1b2-44b9-bcd0-95f2c609b950{fill:#0e7987;}</style></defs><path class="f87b6e3b-56a5-41ef-82dd-8aa91cd08d0b" d="M378.75,516.32c-8.49,2.63-19.62,6.38-30.27,10.88-21.36,9-40.62,10.16-50,12.47s-7.08,10.24-41.15,12.63c-41.88-2.19-57.17,12.35-79.43,16.42-3.17.58-7,1.4-11.1,2.38h0c-25.1,5.94-64,17.81-64,17.81s-9.07,11.69-12.22,22.73c17.84-2.33,51.56-6.16,80.63-4h0c3.56.26,7,.61,10.42,1.07,44.32,4.45,105.1-2.67,125.16-7.51s34.08-3.13,51.14-5.8c12.07.05,23.54-.34,34.46-1.07Z"/><path class="f3883b00-f7b5-4e30-999f-1eec1441e0e0" d="M392.47,593.9l-1.26-7.25c-12.38.83-64.23,4.47-78.52,8-16.27,4-89,17.95-128,10.55-7.25.44-13.45,1.06-18.61,1.72,1.76.08,3.52.19,5.26.32h0c3.55.27,7,.62,10.42,1.08,44.31,4.44,105.1-2.67,125.15-7.52S341,597.64,358,595C370.08,595,381.56,594.63,392.47,593.9Z"/><path class="f87b6e3b-56a5-41ef-82dd-8aa91cd08d0b" d="M92.75,546.12C109,545.47,123.53,540,156.89,526a157.75,157.75,0,0,0,5.1,30.84C136,561.13,101.74,569,101.74,569S88.1,558.86,92.75,546.12Z"/><path class="bf55e946-82b4-4633-9ea0-a1e50aeddbb6" d="M113,604.53a19.6,19.6,0,0,0-.49-14.8c-4.79-1.56-5.86-3.43-5.86-3.43s6.76-6.54-9.18-4.22-39,10.81-52.69,9.47-22.32,7.76-25.91,23.24,9.08,32,31.72,27.54S113.5,617.49,121,612.07C115.81,612.35,110.31,609.3,113,604.53Z"/><path class="eb805a5f-fa66-490a-9667-5e6ba47c47f1" d="M18.85,614.79c3.59-15.48,12.25-24.58,25.91-23.24a35.27,35.27,0,0,0,5.08.09c-7.7,1.65-18,5.36-23.07,13.67,0,0,8.66,13.09,1.5,21.11-3.78,4.74,5.22,19.32,33.48,10.92a3.53,3.53,0,0,1-.3,2.12,103.33,103.33,0,0,1-10.88,2.87C27.93,646.76,15.26,630.27,18.85,614.79Z"/><path class="bcb1a57a-a9b5-44fe-a4c5-7bcab4883731" d="M263.93,544.06c21.84-8,31.23-9.34,44.55-9.61s34.23-11.75,58-19.24c17.32-3.16,26.69-3.5,26.69-3.5a371.44,371.44,0,0,0-44.64,15c-21.36,9-40.61,10.17-50,12.48s-7.08,10.24-41.15,12.62c-41.89-2.18-57.18,12.36-79.44,16.43-3.16.57-6.94,1.39-11.09,2.38.25,1.25.52,2.57.78,3.94-2.34-6.28-4.19-12.22-5.65-17.75,9.64-1.6,18.15-2.71,23.35-2.75C204.58,553.92,233.15,555.88,263.93,544.06Z"/><path class="bf55e946-82b4-4633-9ea0-a1e50aeddbb6" d="M108.27,562a19.6,19.6,0,0,0-.5-14.81c-4.78-1.56-5.86-3.42-5.86-3.42s6.77-6.55-9.17-4.23-39,10.82-52.69,9.48-22.32,7.76-25.91,23.24,9.08,32,31.72,27.53,62.93-24.84,70.42-30.26C111.09,569.85,105.6,566.8,108.27,562Z"/><path class="eb805a5f-fa66-490a-9667-5e6ba47c47f1" d="M14.14,572.3c3.59-15.48,12.25-24.58,25.91-23.24a36.84,36.84,0,0,0,5.08.08c-7.71,1.65-18,5.36-23.07,13.67,0,0,8.66,13.09,1.5,21.11-3.78,4.75,5.22,19.32,33.48,10.92a3.46,3.46,0,0,1-.31,2.12,100.2,100.2,0,0,1-10.87,2.87C23.22,604.26,10.55,587.77,14.14,572.3Z"/><path class="f87b6e3b-56a5-41ef-82dd-8aa91cd08d0b" d="M366.51,515.21c-23.8,7.49-44.71,19-58,19.24s-22.71,1.59-44.55,9.61c-30.78,11.82-59.35,9.86-78.59,10-5.2,0-13.71,1.15-23.35,2.75a157.75,157.75,0,0,1-5.1-30.84l6.78-2.86c38.24-16.12,71.1-34.31,89.39-36.47s24.14,1.39,33.16-6.84c15.15-13.36,48.45-35.8,77.65-49.58l14.51,83C375,513.76,371,514.38,366.51,515.21Z"/><path class="f3883b00-f7b5-4e30-999f-1eec1441e0e0" d="M263.93,544.06c21.84-8,31.23-9.34,44.55-9.61s34.23-11.75,58-19.24c4.51-.83,8.46-1.45,11.87-1.94l-2.3-13.18S348.09,512,333,517.41s-34,3.12-47.42,9.51-41,12.92-62.36,16.41S162,556.84,162,556.84c9.64-1.6,18.15-2.71,23.35-2.75C204.58,553.92,233.15,555.88,263.93,544.06Z"/><path class="e6a8344a-52e6-459e-b0d4-fde2a4b42e4e" d="M374.81,513.6l-15.9-82.77c3.57-1.75,7.07-3.39,10.48-4.85,31.07-13.31,127.72-20.46,127.72-20.46,12.58,5.91,20.72,5.18,20.72,5.18s-6.66,73.23,27.37,128.71c-8.63,12-60.22,53.12-155.59,61.15l-14.3-84.37c8.48-2.79,14.3-4.4,14.3-4.4S384.47,512.06,374.81,513.6Z"/><path class="e7d87215-9996-4d29-ae13-3c683e3cb4ed" d="M759,467.41l28.61,1.48a102.6,102.6,0,0,0,8.87,17.75c5.43,8.38,10.36,36.49-4.43,51.29,5.42,16.27,12.32,26.63,12.82,39.94s-1.48,19.73,2,29.59-.49,39.95-17.26,47.34a212.07,212.07,0,0,0-18.25,18.74l-20.71.5s-3.82-2.59-2.53-8.14c-1.85-2.59-2.77-3-1.85-6.1-2.4-5-3-10,.37-13.32-1.84-5.36-3.14-8.88,1.11-13.5-3.32-1.48-1.11-8.51,6.11-13.68-1.3-3.7,4.62-10.17,2.22-23.67-12.39-16.09-18.13-30.7-14.8-57.33-1.11-16.09-2-20.72-8.14-24.6-8.5,3.88-34.21,9.43-40.68,7.95s7.77-34.21,9.25-35.87,10.35-8,10.35-8Z"/><path class="f3883b00-f7b5-4e30-999f-1eec1441e0e0" d="M727.54,511.3,712,506.49h13c15.53.37,32.18,15.9,32.18,15.9l-15.54-5.54s5.18,6.28,4.07,23.3c-2.59,29.58,8.14,39.94,12.58,47.34a27.44,27.44,0,0,1,3.69,15.16s12.21,1.85,23.31,3c-8.88,0-23.68,4.07-23.68,4.07l-2.95,5.18,10.72,2.22,12.58,13.31s-15.17-9.61-17.39-11.09-10.72,0-10.72,0c-1.3-3.7,4.62-10.18,2.22-23.67-12.39-16.09-18.13-30.7-14.8-57.33-1.11-16.09-2-20.72-8.14-24.6-8.5,3.88-34.21,9.43-40.68,7.95-.94-.21-1.43-1.1-1.6-2.44Z"/><line class="f87b6e3b-56a5-41ef-82dd-8aa91cd08d0b" x1="747.69" y1="632.98" x2="763.04" y2="628.54"/><polygon class="b343d2b1-2fff-4b6e-b804-f68a92c09505" points="747.63 632.74 763.04 628.54 747.76 633.22 747.63 632.74"/><path class="f87b6e3b-56a5-41ef-82dd-8aa91cd08d0b" d="M746.58,646.48s17.57-3.51,19-3.88"/><polygon class="b343d2b1-2fff-4b6e-b804-f68a92c09505" points="746.54 646.24 765.63 642.6 746.63 646.73 746.54 646.24"/><line class="f87b6e3b-56a5-41ef-82dd-8aa91cd08d0b" x1="747.51" y1="659.98" x2="769.33" y2="657.39"/><polygon class="b343d2b1-2fff-4b6e-b804-f68a92c09505" points="747.48 659.73 769.33 657.39 747.54 660.23 747.48 659.73"/><line class="f87b6e3b-56a5-41ef-82dd-8aa91cd08d0b" x1="749.36" y1="667.38" x2="768.59" y2="667.75"/><polygon class="b343d2b1-2fff-4b6e-b804-f68a92c09505" points="749.36 667.13 768.59 667.75 749.35 667.63 749.36 667.13"/><path class="e7d87215-9996-4d29-ae13-3c683e3cb4ed" d="M693.88,408.11S719.4,387.39,721.62,387s37-14.79,37-14.79l26-7.4,3.2,11.84,28.85-5.18,11.47,60.66-33.29,7.76s1.48,10.73-7.77,22.57c-36.61,11.46-88.39,15.9-92.09,12.57s-13-45.12-13-45.12Z"/><path class="b08d5314-69e3-4b19-b261-637087d4a037" d="M511.91,409.71s-2.47,41.42,3.94,63.61,7.89,42.42,15.78,54.74,7.89,19.24,2.47,25.65c23.67-12.33,54.74-20.22,73.48-21.7s28.6-10.36,58.19-8.38c22.19,2,26.63-2,26.63-2s12.82-39.94,95.18-52.76c1-4.44-.5-6.41-.5-6.41s-57.69,10.84-70.52-33.54c-2.46-20.71,24.66-51.78,68.06-64.11-1-6.41-2-7.89-2-7.89s-84.83,37.48-131.67-.49C629.28,367.79,610,374.2,593.77,387S511.91,409.71,511.91,409.71Z"/><path class="e7d87215-9996-4d29-ae13-3c683e3cb4ed" d="M782.65,356.94s-4.07-11.34-9.81-19.48c-2.21-8.69-4.25-17.94-13.68-27.55s-18.49-18.68-40.68-20.16c-15.35-1.85-21.09-8.69-27.37-14.42s-32.92-13.69-69.91-10.73c-20,0-22.19-.18-34.21,10.73s-45.68,20.34-72.49,73.23c-9.43,12.39-21.27,25.33-18.13,37.54,2,8.51,1.85,13.13,1.85,13.13l-7.76,15.9s2,3.52,4.44,2.41,8.87-10.73,8.87-10.73l3.52-9.43s-1.48,14.24-3.7,18.49-7.22,15.17-7,18.5,8.14-1.67,15.35-11.47c3.14-7.21,6.66-17.75,6.66-17.75s-1.85,16.83-3,20.52-7,11.66-6.66,16.09,6.29.19,13.31-10.91c2.78-4.62,3.15-7.39,3.15-7.39s-.56,8.32-3.52,12.76c-3.32,5.54-3.32,6.1-3.32,6.1s7.76,5,12.94-6.66c3.33-9.06,7.77-36.8,6.29-42.35S531,375.19,531,375.19s36.43-38.47,43.27-41.24,27.55-8.69,49.93-31.07c10,12.21,31.07,30.51,70.46,31.25C668.54,348.56,651,356.45,651,356.45s18.67,22.62,75.08,16.7C726.06,373.15,761.19,368.1,782.65,356.94Z"/><path class="f3883b00-f7b5-4e30-999f-1eec1441e0e0" d="M567,333.21C588.28,323,614.18,309,631,291.05c-1.66,5.17,5.18,24.41,25.52,31.62a119.48,119.48,0,0,0,37.17,7l.74-7.4,14.24,14.24-45.18,13.93c7.62-3.77,18.35-9.27,31.13-16.34-39.39-.74-60.47-19-70.46-31.25-22.38,22.38-43.09,28.3-49.93,31.07S531,375.19,531,375.19,551.48,343.38,567,333.21Z"/><path class="add07b86-d794-429c-8cf4-430f6de70464" d="M631.74,514.26c21.46-8.88,48.82,7.39,60.66-4.44,18.49-28.11,53.26-31.07,53.26-31.07l-.49.88c-44.67,16.8-52.77,42-52.77,42s-4.44,4-26.63,2c-29.59-2-39.45,6.9-58.19,8.38s-49.81,9.37-73.48,21.7c5.42-6.41,5.42-13.32-2.47-25.65-4.45-7-6.86-16.43-9.27-27.36-1.8-19.55-4.53-35.27-4.53-35.27s25.15,43.65,32.54,55.48S610.29,523.13,631.74,514.26Z"/><path class="e7d87215-9996-4d29-ae13-3c683e3cb4ed" d="M792.41,419.73s-7.16-12.28-3.57-25.18c4.88-17.53,24.91-31.79,24.91-31.79,5.61-4,14.24-6.51,20.79-9.05,10.79-4.19,22.26-8.19,33.94-9.86a47.53,47.53,0,0,1,32.34,7.62c12,8,18.26,22.68,17,37-1.45,16.7-12.53,27.66-26.71,35.19a142.66,142.66,0,0,1-21.42,8.9c-19.58,6.59-40.42,4.33-51.24,1.13S795.27,425.07,792.41,419.73Z"/><path class="e7d87215-9996-4d29-ae13-3c683e3cb4ed" d="M876,428.66a5.91,5.91,0,0,1,.46,8.25c-3.62,4.6-9.17,2.33-15.6,2.95s-10-2.28-6.68-3.76"/><path class="e7d87215-9996-4d29-ae13-3c683e3cb4ed" d="M850.45,348.77a6.57,6.57,0,0,0-5.2-7.6c-6.32-1.6-9.68,4.19-15.79,8s-7.24,8.79-3.33,7.87"/><path class="f3883b00-f7b5-4e30-999f-1eec1441e0e0" d="M808.76,425.85c4.89,2.31,45.18,11.8,72.81-2a98,98,0,0,0,35.52-30.52c-3,14-13.21,23.58-26,30.35a142.66,142.66,0,0,1-21.42,8.9c-19.58,6.59-40.42,4.33-51.24,1.13s-23.2-8.63-26.06-14c0,0-7.16-12.28-3.57-25.18,2.45-8.81,8.74-16.8,14.38-22.56a1.12,1.12,0,0,1-.22,1.19c-3.45,4.89-11.23,22.45-10.94,32.81S803.86,423.55,808.76,425.85Z"/><path class="b33148c3-73bf-48ec-964d-fcd1dfeb7dec" d="M858.11,430.85l1.8-3.79s11.38-2.5,19.15-8.08c2.59-4.78,10.14-10.45,14.12-13.84,0,0-6.17-8.76-6.37-17.33-.2.6,4.18,6,4.18,6s-.6-9.77-7.57-16.14-10.16-9.57-9.17-15.34c-.4,0-2.79,3,.4,8-1.39-.6-4.58-12.16-2.39-15.35-4.58-.4-8.37,3.59-15.34,3.79s-13.35.8-13.35.8l.6-2.2,10.56-6.57s-.8-5.78-6.58-4.38c11.16-4.19,31.68-7.18,44.43-4.39s23.91,16.14,24.71,22.92c.8,5.38-.6,12.35-.6,12.35s5.18,3.78,7.77,13.55l-7.57-8.17s7.18,7.57-3.78,24.71-33.68,27.09-41.45,27.89c.4-.4,6.5-3.21,5.18-7.37Z"/><path class="bcb1a57a-a9b5-44fe-a4c5-7bcab4883731" d="M389.61,511.79s-5.82,1.61-14.3,4.4l-.5-2.59C384.47,512.06,389.61,511.79,389.61,511.79Z"/><polygon class="a5edbdc4-d1b2-44b9-bcd0-95f2c609b950" points="372.51 501.59 396.39 506.49 452.05 500.09 393.2 511.71 374.81 513.6 372.51 501.59"/></svg>