<svg id="efb6ab1a-825d-4237-8d7a-0b00aadacc79" data-name="Layer 1" xmlns="http://www.w3.org/2000/svg" viewBox="0 0 938 938"><defs><style>.bd4165bc-44c1-42dd-8901-5ea7d5d0fdb8,.bfe26fd0-fa06-47ad-865d-a166db057559{fill:#fcc7b4;}.e4126284-ff0a-4a3d-868f-c0eca441c958{fill:#e59c95;}.f8902642-ae84-4827-98ea-5f7a7e2b7c21{fill:#4d4d4f;stroke:#808285;}.bfe26fd0-fa06-47ad-865d-a166db057559,.f8902642-ae84-4827-98ea-5f7a7e2b7c21{stroke-miterlimit:10;}.bd57b2bf-2e06-4b83-9acb-a07bcc9a54fe{fill:#848689;}.a3c8b2a2-cd87-4e0b-9cad-381f870d4243{fill:none;}.adf5f078-86f4-4edb-a08d-a3bbca872812{fill:#7cafc4;}.bfe26fd0-fa06-47ad-865d-a166db057559{stroke:#a67167;stroke-width:0.5px;}.af79c8af-3e7a-4971-be57-1736d2f57ddb{fill:#a67167;}.af86298e-62b9-4012-9732-bd0394b48b79{fill:#ef9d0c;}.aca148de-78e4-46f4-ad26-da8644e15fd5{fill:#9d2324;opacity:0.46;}.fa6ddd3a-b4f6-4d8d-bc59-7ad621608139{fill:#6b3d35;}.ffcf9e55-b249-4ccb-9215-ab582392581b{fill:#0e7987;}</style></defs><path class="bd4165bc-44c1-42dd-8901-5ea7d5d0fdb8" d="M559.25,516.32c8.48,2.63,19.62,6.38,30.27,10.88,21.36,9,40.62,10.16,50,12.47s7.07,10.24,41.14,12.63c41.89-2.19,57.18,12.35,79.44,16.42,3.16.58,6.94,1.4,11.1,2.38h0c25.1,5.94,64,17.81,64,17.81s9.08,11.69,12.22,22.73c-17.84-2.33-51.56-6.16-80.63-4h0c-3.55.26-7,.61-10.42,1.07-44.31,4.45-105.1-2.67-125.15-7.51s-34.09-3.13-51.15-5.8c-12.06.05-23.54-.34-34.45-1.07Z"/><path class="e4126284-ff0a-4a3d-868f-c0eca441c958" d="M545.53,593.9l1.26-7.25c12.38.83,64.22,4.47,78.52,8,16.27,4,89,17.95,128,10.55,7.26.44,13.45,1.06,18.62,1.72-1.77.08-3.52.19-5.26.32h0c-3.56.27-7,.62-10.42,1.08-44.32,4.44-105.1-2.67-125.16-7.52S597,597.64,580,595C567.91,595,556.44,594.63,545.53,593.9Z"/><path class="bd4165bc-44c1-42dd-8901-5ea7d5d0fdb8" d="M845.25,546.12C829,545.47,814.47,540,781.11,526a157.75,157.75,0,0,1-5.1,30.84c26,4.29,60.25,12.12,60.25,12.12S849.9,558.86,845.25,546.12Z"/><path class="f8902642-ae84-4827-98ea-5f7a7e2b7c21" d="M825,604.53a19.6,19.6,0,0,1,.49-14.8c4.78-1.56,5.86-3.43,5.86-3.43s-6.77-6.54,9.18-4.22,39,10.81,52.69,9.47,22.32,7.76,25.91,23.24-9.08,32-31.72,27.54S824.5,617.49,817,612.07C822.19,612.35,827.69,609.3,825,604.53Z"/><path class="bd57b2bf-2e06-4b83-9acb-a07bcc9a54fe" d="M919.15,614.79c-3.59-15.48-12.25-24.58-25.91-23.24a35.32,35.32,0,0,1-5.08.09c7.7,1.65,18,5.36,23.06,13.67,0,0-8.66,13.09-1.49,21.11,3.78,4.74-5.23,19.32-33.48,10.92a3.46,3.46,0,0,0,.3,2.12,103.33,103.33,0,0,0,10.88,2.87C910.07,646.76,922.74,630.27,919.15,614.79Z"/><path class="a3c8b2a2-cd87-4e0b-9cad-381f870d4243" d="M674.07,544.06c-21.84-8-31.23-9.34-44.55-9.61s-34.23-11.75-58-19.24c-17.32-3.16-26.7-3.5-26.7-3.5a371.28,371.28,0,0,1,44.65,15c21.35,9,40.61,10.17,50,12.48s7.08,10.24,41.15,12.62c41.89-2.18,57.17,12.36,79.44,16.43,3.16.57,6.94,1.39,11.09,2.38-.26,1.25-.52,2.57-.78,3.94,2.34-6.28,4.19-12.22,5.65-17.75-9.64-1.6-18.15-2.71-23.35-2.75C733.42,553.92,704.84,555.88,674.07,544.06Z"/><path class="f8902642-ae84-4827-98ea-5f7a7e2b7c21" d="M829.73,562a19.63,19.63,0,0,1,.49-14.81c4.78-1.56,5.86-3.42,5.86-3.42s-6.77-6.55,9.18-4.23,39,10.82,52.69,9.48,22.32,7.76,25.91,23.24-9.08,32-31.72,27.53S829.21,575,821.72,569.57C826.9,569.85,832.4,566.8,829.73,562Z"/><path class="bd57b2bf-2e06-4b83-9acb-a07bcc9a54fe" d="M923.86,572.3c-3.59-15.48-12.25-24.58-25.91-23.24a36.87,36.87,0,0,1-5.08.08c7.7,1.65,18,5.36,23.06,13.67,0,0-8.65,13.09-1.49,21.11,3.78,4.75-5.23,19.32-33.48,10.92a3.52,3.52,0,0,0,.3,2.12,100.94,100.94,0,0,0,10.88,2.87C914.78,604.26,927.45,587.77,923.86,572.3Z"/><path class="bd4165bc-44c1-42dd-8901-5ea7d5d0fdb8" d="M571.49,515.21c23.8,7.49,44.7,19,58,19.24s22.71,1.59,44.55,9.61c30.77,11.82,59.35,9.86,78.59,10,5.2,0,13.71,1.15,23.35,2.75a157.75,157.75,0,0,0,5.1-30.84l-6.78-2.86c-38.25-16.12-71.11-34.31-89.39-36.47s-24.15,1.39-33.16-6.84c-15.16-13.36-48.45-35.8-77.65-49.58l-14.51,83C563,513.76,567,514.38,571.49,515.21Z"/><path class="e4126284-ff0a-4a3d-868f-c0eca441c958" d="M674.07,544.06c-21.84-8-31.23-9.34-44.55-9.61s-34.23-11.75-58-19.24c-4.51-.83-8.47-1.45-11.87-1.94l2.3-13.18S589.9,512,605,517.41s34,3.12,47.42,9.51,41,12.92,62.37,16.41S776,556.84,776,556.84c-9.64-1.6-18.15-2.71-23.35-2.75C733.42,553.92,704.84,555.88,674.07,544.06Z"/><path class="adf5f078-86f4-4edb-a08d-a3bbca872812" d="M563.18,513.6l15.91-82.77c-3.57-1.75-7.08-3.39-10.48-4.85-31.07-13.31-127.73-20.46-127.73-20.46-12.57,5.91-20.71,5.18-20.71,5.18s6.66,73.23-27.37,128.71c8.63,12,60.22,53.12,155.59,61.15l14.3-84.37c-8.48-2.79-14.3-4.4-14.3-4.4S553.53,512.06,563.18,513.6Z"/><path class="bfe26fd0-fa06-47ad-865d-a166db057559" d="M179,467.41l-28.6,1.48a102.22,102.22,0,0,1-8.88,17.75c-5.42,8.38-10.35,36.49,4.44,51.29-5.42,16.27-12.33,26.63-12.82,39.94s1.48,19.73-2,29.59.49,39.95,17.26,47.34a211,211,0,0,1,18.24,18.74l20.72.5s3.82-2.59,2.52-8.14c1.85-2.59,2.78-3,1.85-6.1,2.41-5,3-10-.37-13.32,1.85-5.36,3.15-8.88-1.11-13.5,3.33-1.48,1.11-8.51-6.1-13.68,1.29-3.7-4.62-10.17-2.22-23.67,12.39-16.09,18.12-30.7,14.8-57.33,1.1-16.09,2-20.72,8.13-24.6,8.51,3.88,34.21,9.43,40.69,7.95s-7.77-34.21-9.25-35.87-10.36-8-10.36-8Z"/><path class="e4126284-ff0a-4a3d-868f-c0eca441c958" d="M210.46,511.3,226,506.49H213.05c-15.54.37-32.18,15.9-32.18,15.9l15.54-5.54s-5.18,6.28-4.07,23.3c2.59,29.58-8.14,39.94-12.58,47.34a27.4,27.4,0,0,0-3.7,15.16s-12.2,1.85-23.3,3c8.88,0,23.67,4.07,23.67,4.07l3,5.18-10.72,2.22-12.58,13.31s15.16-9.61,17.38-11.09,10.73,0,10.73,0c1.29-3.7-4.62-10.18-2.22-23.67,12.39-16.09,18.12-30.7,14.8-57.33,1.1-16.09,2-20.72,8.13-24.6,8.51,3.88,34.21,9.43,40.69,7.95.93-.21,1.43-1.1,1.6-2.44Z"/><line class="bd4165bc-44c1-42dd-8901-5ea7d5d0fdb8" x1="190.3" y1="632.98" x2="174.95" y2="628.54"/><polygon class="af79c8af-3e7a-4971-be57-1736d2f57ddb" points="190.23 633.22 174.95 628.54 190.37 632.74 190.23 633.22"/><path class="bd4165bc-44c1-42dd-8901-5ea7d5d0fdb8" d="M191.41,646.48s-17.57-3.51-19-3.88"/><polygon class="af79c8af-3e7a-4971-be57-1736d2f57ddb" points="191.36 646.73 172.36 642.6 191.46 646.24 191.36 646.73"/><line class="bd4165bc-44c1-42dd-8901-5ea7d5d0fdb8" x1="190.49" y1="659.98" x2="168.67" y2="657.39"/><polygon class="af79c8af-3e7a-4971-be57-1736d2f57ddb" points="190.46 660.23 168.67 657.39 190.52 659.73 190.46 660.23"/><line class="bd4165bc-44c1-42dd-8901-5ea7d5d0fdb8" x1="188.64" y1="667.38" x2="169.41" y2="667.75"/><polygon class="af79c8af-3e7a-4971-be57-1736d2f57ddb" points="188.64 667.63 169.41 667.75 188.63 667.13 188.64 667.63"/><path class="bfe26fd0-fa06-47ad-865d-a166db057559" d="M244.12,408.11S218.6,387.39,216.38,387s-37-14.79-37-14.79l-26-7.4-3.21,11.84-28.85-5.18-11.46,60.66,33.29,7.76s-1.48,10.73,7.76,22.57c36.62,11.46,88.4,15.9,92.1,12.57S256,429.93,256,429.93Z"/><path class="af86298e-62b9-4012-9732-bd0394b48b79" d="M426.09,409.71s2.46,41.42-3.95,63.61-7.89,42.42-15.78,54.74-7.89,19.24-2.46,25.65c-23.67-12.33-54.74-20.22-73.48-21.7s-28.6-10.36-58.19-8.38c-22.2,2-26.63-2-26.63-2s-12.83-39.94-95.18-52.76c-1-4.44.49-6.41.49-6.41s57.7,10.84,70.52-33.54c2.47-20.71-24.65-51.78-68.05-64.11,1-6.41,2-7.89,2-7.89s84.82,37.48,131.67-.49C308.72,367.79,328,374.2,344.23,387S426.09,409.71,426.09,409.71Z"/><path class="bfe26fd0-fa06-47ad-865d-a166db057559" d="M155.35,356.94s4.07-11.34,9.8-19.48c2.22-8.69,4.26-17.94,13.69-27.55s18.49-18.68,40.68-20.16c15.35-1.85,21.08-8.69,27.37-14.42s32.92-13.69,69.9-10.73c20,0,22.2-.18,34.22,10.73s45.67,20.34,72.49,73.23c9.43,12.39,21.27,25.33,18.12,37.54-2,8.51-1.85,13.13-1.85,13.13l7.77,15.9s-2,3.52-4.44,2.41-8.87-10.73-8.87-10.73l-3.52-9.43s1.48,14.24,3.7,18.49,7.21,15.17,7,18.5-8.14-1.67-15.35-11.47c-3.15-7.21-6.66-17.75-6.66-17.75s1.85,16.83,3,20.52,7,11.66,6.66,16.09-6.29.19-13.32-10.91c-2.77-4.62-3.14-7.39-3.14-7.39s.55,8.32,3.51,12.76c3.33,5.54,3.33,6.1,3.33,6.1s-7.77,5-12.94-6.66c-3.33-9.06-7.77-36.8-6.29-42.35S407,375.19,407,375.19,370.61,336.72,363.77,334s-27.56-8.69-49.93-31.07c-10,12.21-31.07,30.51-70.46,31.25C269.45,348.56,287,356.45,287,356.45s-18.68,22.62-75.08,16.7C211.94,373.15,176.8,368.1,155.35,356.94Z"/><path class="e4126284-ff0a-4a3d-868f-c0eca441c958" d="M371,333.21C349.71,323,323.82,309,307,291.05c1.67,5.17-5.17,24.41-25.52,31.62a119.43,119.43,0,0,1-37.17,7l-.74-7.4-14.24,14.24,45.19,13.93c-7.63-3.77-18.35-9.27-31.13-16.34,39.39-.74,60.47-19,70.46-31.25,22.37,22.38,43.08,28.3,49.93,31.07S407,375.19,407,375.19,386.51,343.38,371,333.21Z"/><path class="aca148de-78e4-46f4-ad26-da8644e15fd5" d="M306.25,514.26c-21.45-8.88-48.82,7.39-60.65-4.44-18.5-28.11-53.26-31.07-53.26-31.07l.49.88c44.66,16.8,52.77,42,52.77,42s4.44,4,26.63,2c29.59-2,39.45,6.9,58.19,8.38s49.81,9.37,73.48,21.7c-5.43-6.41-5.43-13.32,2.46-25.65,4.46-7,6.87-16.43,9.28-27.36,1.8-19.55,4.53-35.27,4.53-35.27S395,509.08,387.62,520.91,327.71,523.13,306.25,514.26Z"/><path class="bfe26fd0-fa06-47ad-865d-a166db057559" d="M145.59,419.73s7.16-12.28,3.57-25.18c-4.88-17.53-24.92-31.79-24.92-31.79-5.6-4-14.24-6.51-20.78-9.05-10.8-4.19-22.26-8.19-33.94-9.86a47.53,47.53,0,0,0-32.34,7.62c-12,8-18.27,22.68-17,37,1.45,16.7,12.53,27.66,26.71,35.19a142.66,142.66,0,0,0,21.42,8.9c19.58,6.59,40.42,4.33,51.24,1.13S142.73,425.07,145.59,419.73Z"/><path class="bfe26fd0-fa06-47ad-865d-a166db057559" d="M62,428.66a5.9,5.9,0,0,0-.47,8.25c3.62,4.6,9.18,2.33,15.61,2.95s10-2.28,6.68-3.76"/><path class="bfe26fd0-fa06-47ad-865d-a166db057559" d="M87.54,348.77a6.58,6.58,0,0,1,5.2-7.6c6.33-1.6,9.69,4.19,15.79,8s7.24,8.79,3.34,7.87"/><path class="e4126284-ff0a-4a3d-868f-c0eca441c958" d="M129.24,425.85c-4.89,2.31-45.19,11.8-72.82-2A98.15,98.15,0,0,1,20.9,393.32c3,14,13.22,23.58,26,30.35a142.66,142.66,0,0,0,21.42,8.9c19.58,6.59,40.42,4.33,51.24,1.13s23.2-8.63,26.06-14c0,0,7.16-12.28,3.57-25.18-2.46-8.81-8.74-16.8-14.38-22.56a1.12,1.12,0,0,0,.22,1.19c3.45,4.89,11.22,22.45,10.94,32.81S134.13,423.55,129.24,425.85Z"/><path class="fa6ddd3a-b4f6-4d8d-bc59-7ad621608139" d="M79.88,430.85l-1.79-3.79s-11.38-2.5-19.16-8.08c-2.59-4.78-10.13-10.45-14.12-13.84,0,0,6.18-8.76,6.38-17.33.2.6-4.18,6-4.18,6s.59-9.77,7.57-16.14,10.16-9.57,9.16-15.34c.4,0,2.79,3-.4,8,1.4-.6,4.59-12.16,2.4-15.35,4.58-.4,8.36,3.59,15.34,3.79s13.35.8,13.35.8l-.6-2.2-10.56-6.57s.8-5.78,6.57-4.38c-11.15-4.19-31.68-7.18-44.43-4.39S21.5,358.12,20.71,364.9c-.8,5.38.59,12.35.59,12.35S16.12,381,13.53,390.8l7.57-8.17s-7.17,7.57,3.79,24.71,33.67,27.09,41.44,27.89c-.39-.4-6.5-3.21-5.18-7.37Z"/><path class="a3c8b2a2-cd87-4e0b-9cad-381f870d4243" d="M548.39,511.79s5.82,1.61,14.3,4.4l.49-2.59C553.53,512.06,548.39,511.79,548.39,511.79Z"/><polygon class="ffcf9e55-b249-4ccb-9215-ab582392581b" points="565.49 501.59 541.6 506.49 485.94 500.09 544.79 511.71 563.18 513.6 565.49 501.59"/></svg>