<svg id="bed7f657-b5f3-4e78-bf2d-f202832488f5" data-name="Layer 1" xmlns="http://www.w3.org/2000/svg" viewBox="0 0 938 938"><defs><style>.a0b6b827-5364-4ede-bf45-4abc9fa05e33,.ea48de1b-f2ce-427b-8e52-b3fed6ffd0e2{fill:#fcc7b4;}.ea48de1b-f2ce-427b-8e52-b3fed6ffd0e2{stroke:#a67167;stroke-width:0.5px;}.e7d3d90e-0a0e-49a8-aa71-7033f672d2b1,.ea48de1b-f2ce-427b-8e52-b3fed6ffd0e2{stroke-miterlimit:10;}.f12a401d-b9ce-4607-a906-6e9eeac5deef{fill:#e59c95;}.abe5cfb0-f9f0-48e7-83f1-782fe6e78289{fill:#848689;}.e7d3d90e-0a0e-49a8-aa71-7033f672d2b1{fill:#4d4d4f;stroke:#808285;}.eb4c8b77-ac82-4c1d-89ed-e8cde449999e{fill:#7cafc4;}.e8c375f5-b49a-495e-acf3-35f6eccad879{fill:#a67167;}.a28236ae-39ae-4733-85d2-166baec542f4{fill:#6b3d35;}.eabc445c-606c-4cb1-b0b6-1e4e1230b920{fill:#ef9d0c;}.a65cd648-49a6-4af7-acb9-b51a531e69c5{fill:#fff;}</style></defs><path class="ea48de1b-f2ce-427b-8e52-b3fed6ffd0e2" d="M499.66,236.61s47.59-59.68,58.92-66.48,28.71-3.78,46.08,23.42,80.83,113.31,89.14,126.91,36.26,40,36.26,40l-47.59,16.62s-8.31-34-34-51.37c-31.72-21.15-65-27.19-73.27-60.43-10.58,24.17-19.64,34-19.64,34l-39.28,55.9-32.49-62.7Z"/><path class="f12a401d-b9ce-4607-a906-6e9eeac5deef" d="M571.42,244.92c-1.51,28.7-32.48,61.94-32.48,61.94l8.92,3.4,7.7-10.95s9.06-9.83,19.64-34c8.31,33.24,41.55,39.28,73.27,60.43a65.28,65.28,0,0,1,7.58,6h0s-36.28-34-55.17-44.54S571.42,244.92,571.42,244.92Z"/><path class="abe5cfb0-f9f0-48e7-83f1-782fe6e78289" d="M662.33,392.56c.28,9.58,9.43,7.81,20.77,9.36,11.77,1.6,26.47-2,38.91-2.55s69.66-2.8,66.18-15.85a29.81,29.81,0,0,0-1.3-3.82c-9.12,7.2-30.13,10.06-69.11,13.34C685.63,395.74,669.75,394.15,662.33,392.56Z"/><path class="e7d3d90e-0a0e-49a8-aa71-7033f672d2b1" d="M768.35,368.81c-8.91-2.24-15.55-7.55-31-14.28s-14.11-16-19.48-21-11.77,3.81-22.76,18-22.48-5.78-27.83-5-3.07,19.79-3.07,19.79-1.41,14.25-1.83,25.09c0,.4,0,.77,0,1.13,7.42,1.59,23.3,3.18,55.45.48,39-3.28,60-6.14,69.11-13.34C783,370.58,776.28,370.8,768.35,368.81Z"/><path class="eb4c8b77-ac82-4c1d-89ed-e8cde449999e" d="M502.47,233.13c.63,1.12,41.76,73.86,56.81,61.38-2.21,26.7-39.66,84.11-56.82,95.45-11.47,7.57-24.41,13-38.15,14.56-9.7,1.08-19,.1-28.51-1.76-3.3-.64-24.94-8.46-24-12.14,2.45-9.63,2.37-19.7,3.42-29.49,1.14-10.67,2.32-21.47,2.91-32.19.39-7.18-.69-14.83.59-21.87,1-5.71,1.57-10,.61-15.92l14-.46a28.23,28.23,0,0,0,5.43-.53c13.61-3.2,27.91-23.23,37.56-32.67C478,255.82,502.62,233.4,502.47,233.13Z"/><path class="ea48de1b-f2ce-427b-8e52-b3fed6ffd0e2" d="M230.7,364.24c-4.13-.9-59.74-26.32-63.91-27.66-7.17-2.3-16.62-5.09-24.18-3.06-7.13,1.91-13.8,5.38-21,6.93-18.48,4-39.25-7-45.7-24.74-3.2-8.8-3.05-18.57-.88-27.68,3-12.42,9.78-24.1,20-31.83S118.71,245,131.12,248a19.7,19.7,0,0,0,5.41.94c3-.12,5.62-1.9,8.12-3.54s5.29-3.26,8.27-3,5.84,3.32,4.73,6.1l19.55,4.16c5.45,1.16,11.53,2.76,14.36,7.56,2.39,4.07,1.65,9.09.46,13.74-.15.58-.31,1.15-.46,1.72l-1.79,6.18c6,2.43,12.14,4.53,18.21,6.73,7.21,2.6,18.37,8.33,26.15,7.7"/><path class="a0b6b827-5364-4ede-bf45-4abc9fa05e33" d="M135.29,307s-3.56,5.35-2.31,8.9,10.31,7.17,16.28,3.45,12.53-13.71,5.75-17.27"/><path class="e8c375f5-b49a-495e-acf3-35f6eccad879" d="M135.29,307a19.08,19.08,0,0,0-1.92,5.73,5.8,5.8,0,0,0,.18,2.77,4.62,4.62,0,0,0,1.68,2,13.47,13.47,0,0,0,5.29,2.16,12.6,12.6,0,0,0,5.67-.1,9.86,9.86,0,0,0,2.56-1.05,18.51,18.51,0,0,0,2.35-1.74,23.25,23.25,0,0,0,4-4.37,12.44,12.44,0,0,0,2.31-5.32,5,5,0,0,0-.38-2.81,5.63,5.63,0,0,0-2-2.19,5.37,5.37,0,0,1,2.47,1.92,5.59,5.59,0,0,1,.88,3.14,12.66,12.66,0,0,1-2,6.1,22.34,22.34,0,0,1-4,5,18.38,18.38,0,0,1-2.56,2,11.59,11.59,0,0,1-3.1,1.32,14.72,14.72,0,0,1-12.43-2.78,5.75,5.75,0,0,1-2-2.84,6.91,6.91,0,0,1,.11-3.33A15.84,15.84,0,0,1,135.29,307Z"/><path class="a0b6b827-5364-4ede-bf45-4abc9fa05e33" d="M140.45,310.62s.48,3.82,3.61,4.59,7.6-3.74,8.71-9.88"/><path class="e8c375f5-b49a-495e-acf3-35f6eccad879" d="M140.45,310.62a6.31,6.31,0,0,0,3,3.52,2.76,2.76,0,0,0,1.91.13,5.79,5.79,0,0,0,1.88-1,14.61,14.61,0,0,0,3.15-3.51,31.14,31.14,0,0,0,2.38-4.44,11.31,11.31,0,0,1-1,5.19,11.06,11.06,0,0,1-3.32,4.36,6.41,6.41,0,0,1-2.69,1.24,3.46,3.46,0,0,1-.8.07,2.84,2.84,0,0,1-.81-.09,3.87,3.87,0,0,1-1.43-.59,4.85,4.85,0,0,1-1.84-2.24A5.82,5.82,0,0,1,140.45,310.62Z"/><path class="f12a401d-b9ce-4607-a906-6e9eeac5deef" d="M191.35,281.89s-4.95,12.28-8.85,16.9c-1.06,1.26-16.54,3.35-16.54,3.35a128.36,128.36,0,0,0,12.21-7.4c3.16-2.36,10-9.51,11-13.2"/><path class="a28236ae-39ae-4733-85d2-166baec542f4" d="M152.28,333.87l5.86-13.66s-15.89,5.67-23.71,1.08-3.39-16.4,5.26-19.38c4.08-1.18,5.25-.77,5.25-.77L144.4,296s-13.27-1-18-.31-4-9.52-14.2-15.48c0,0,9.77-9.14,8.74-17.37-.47-.16-2.56,8-6.91,10.67,1.37-6.85,5.52-11.94,4.6-17.51s1.43-10.77,7.88-12.69c-14.9-2.36-35.59.57-43,22.33.4-5.62,3.91-14.08,9.71-19.38C81,255,66.3,281.82,69.59,304.47s17.79,29.86,17.79,29.86a22.3,22.3,0,0,1-15.27-8c-.08.24,6.67,12.32,18.18,11.65-.13,2.58-2.23,11.53-2.23,11.53s3.83-9.39,6.72-9.42,23.65,11.74,42.64-1.23C147.43,334.25,152.28,333.87,152.28,333.87Z"/><path class="eabc445c-606c-4cb1-b0b6-1e4e1230b920" d="M435.14,307.92a35.24,35.24,0,0,0-5.44-18.17A86.53,86.53,0,0,1,404.31,291c-7.44-.72-14.95.58-22.41-.52-6.51-.95-12.48-3.09-19.19-3.31-5.13-.17-10.32.23-15.37-.7-5.62-1-10.79-3.67-16.15-5.66-6.78-2.51-13.89-4-21-5.51-5.56-1.17-11.21-2.34-16.86-1.82-8.31.78-13.1,5.16-21.56,4a99.83,99.83,0,0,0-29.74-.1c-13.22,2.17-26.23,8.54-33.88,19.54-5.91,8.5-5.72,17.92-6.82,27.75s.67,21.07,6.34,29.72c5.48,8.36,15.31,15.68,22.83,22.19,8.3,7.19,23.5,9.1,34,10,32.48,2.77,118.58-11.59,169.62,15.78-10.22-21.9-8.34-46-2.54-68.76C433.76,325.29,435.52,316.38,435.14,307.92Z"/><path class="ea48de1b-f2ce-427b-8e52-b3fed6ffd0e2" d="M383.79,690.67c-2.48-3.43-27-59.42-29.26-63.2-3.82-6.49-9-14.86-16-18.38-6.59-3.32-13.88-5.18-20.29-8.82-16.44-9.34-24.63-31.34-17.62-48.9,3.48-8.69,10.09-15.87,17.78-21.23,10.48-7.3,23.34-11.46,36.08-10.46s25.18,7.44,32.42,18a19.82,19.82,0,0,0,3.41,4.3c2.31,1.9,5.46,2.32,8.41,2.77s6.12,1.09,8.18,3.26,2.15,6.36-.53,7.7l11.81,16.12c3.29,4.5,6.77,9.73,5.67,15.2-.92,4.63-4.81,7.88-8.8,10.56-.5.33-1,.66-1.49,1L408.11,602c2.9,5.85,6,11.46,9.11,17.15,3.64,6.75,8.15,18.45,14.38,23.16"/><path class="a0b6b827-5364-4ede-bf45-4abc9fa05e33" d="M350.71,584.46s-6.23,1.62-7.66,5.1S346,601.78,352.9,603s18.48-1.88,15.79-9.05"/><path class="e8c375f5-b49a-495e-acf3-35f6eccad879" d="M350.71,584.46a19.53,19.53,0,0,0-5.26,3,6.09,6.09,0,0,0-1.71,2.19,4.6,4.6,0,0,0-.07,2.61,13.33,13.33,0,0,0,2.51,5.14,12.46,12.46,0,0,0,4.29,3.7,9.78,9.78,0,0,0,2.61.92,19.79,19.79,0,0,0,2.9.27,23.75,23.75,0,0,0,5.88-.62,12.56,12.56,0,0,0,5.27-2.43,5.06,5.06,0,0,0,1.59-2.34,5.76,5.76,0,0,0,0-3,5.38,5.38,0,0,1,.57,3.08,5.67,5.67,0,0,1-1.44,2.93,12.48,12.48,0,0,1-5.54,3.23,22,22,0,0,1-6.3,1,18.55,18.55,0,0,1-3.23-.23,11.85,11.85,0,0,1-3.2-1.08,14.26,14.26,0,0,1-4.9-4.35,14,14,0,0,1-2.51-6,5.69,5.69,0,0,1,.42-3.42,7,7,0,0,1,2.3-2.42A15.87,15.87,0,0,1,350.71,584.46Z"/><path class="a0b6b827-5364-4ede-bf45-4abc9fa05e33" d="M352.17,590.57s-2.19,3.16-.37,5.82,8.16,2.27,13.08-1.57"/><path class="e8c375f5-b49a-495e-acf3-35f6eccad879" d="M352.16,590.57a6.32,6.32,0,0,0-.1,4.62,2.82,2.82,0,0,0,1.33,1.37,5.63,5.63,0,0,0,2.07.51,14.67,14.67,0,0,0,4.69-.52,30.15,30.15,0,0,0,4.73-1.73,11.22,11.22,0,0,1-4.21,3.2,11,11,0,0,1-5.37,1,6.41,6.41,0,0,1-2.84-.86,3.24,3.24,0,0,1-.64-.48,2.69,2.69,0,0,1-.55-.61,3.91,3.91,0,0,1-.68-1.39,5,5,0,0,1,.12-2.89A5.87,5.87,0,0,1,352.16,590.57Z"/><path class="f12a401d-b9ce-4607-a906-6e9eeac5deef" d="M409.27,603s-11.87,5.87-17.86,6.71c-1.63.23-14.56-8.51-14.56-8.51a129.14,129.14,0,0,0,14,2.61c3.93.34,13.77-.46,17-2.49"/><path class="ea48de1b-f2ce-427b-8e52-b3fed6ffd0e2" d="M580.19,693.73s47.59-59.68,58.93-66.47,28.7-3.78,46.08,23.41S766,764,774.33,777.58s36.26,40,36.26,40L763,834.24s-8.31-34-34-51.37c-31.73-21.15-65-27.19-73.28-60.43-10.57,24.17-19.64,34-19.64,34l-39.28,55.9-32.48-62.7Z"/><path class="f12a401d-b9ce-4607-a906-6e9eeac5deef" d="M652,702c-1.51,28.71-32.48,62-32.48,62l8.92,3.39,7.69-11s9.07-9.82,19.64-34c8.31,33.24,41.55,39.28,73.28,60.43a65.28,65.28,0,0,1,7.58,6h0s-36.29-34-55.17-44.55S652,702,652,702Z"/><path class="eb4c8b77-ac82-4c1d-89ed-e8cde449999e" d="M583,690.24s41.65,74,56.81,61.4c-2.2,26.7-39.66,84.11-56.81,95.44s-66.26,37.77-121.41-27.19c31.73-28.71,58.93-67.24,58.93-67.24S560.12,705.63,583,690.24Z"/><path class="abe5cfb0-f9f0-48e7-83f1-782fe6e78289" d="M742.87,849.69c.27,9.57,9.43,7.81,20.77,9.35,11.77,1.6,26.46-2,38.9-2.54s69.67-2.81,66.18-15.85a29.86,29.86,0,0,0-1.29-3.82c-9.12,7.19-30.13,10-69.11,13.33C766.16,852.87,750.28,851.28,742.87,849.69Z"/><path class="e7d3d90e-0a0e-49a8-aa71-7033f672d2b1" d="M848.88,825.94c-8.9-2.24-15.54-7.56-31-14.28s-14.11-16-19.48-21-11.78,3.81-22.76,18-22.49-5.77-27.83-5-3.07,19.78-3.07,19.78-1.41,14.25-1.84,25.1c0,.39,0,.76,0,1.13,7.41,1.59,23.29,3.18,55.45.47,39-3.28,60-6.14,69.11-13.33C863.58,827.7,856.81,827.92,848.88,825.94Z"/><path class="a28236ae-39ae-4733-85d2-166baec542f4" d="M345.51,615.79,359,609.5s-15.63-6.35-18.41-15,8.39-14.5,16.83-11c3.83,1.84,4.43,2.92,4.43,2.92l3-4.21s-9.23-9.59-13.2-12.2,3.37-9.76-.28-21c0,0,13.37-.31,18.08-7.14-.24-.43-7.24,4.28-12.26,3.37,5.59-4.21,12.07-5.24,15.09-10s8.24-7.07,14.33-4.21c-9.53-11.69-26.92-23.28-46.94-12,4.05-3.93,12.3-7.9,20.15-8-15-1.62-43.81,8.59-56.44,27.68s-6.61,34.12-6.61,34.12a22.25,22.25,0,0,1-6.06-16.14c-.22.12-3.22,13.63,5.8,20.8-1.81,1.84-9.34,7.11-9.34,7.11s9.11-4.45,11.29-2.54,9.82,24.5,32.62,27.47C341.63,612.84,345.51,615.79,345.51,615.79Z"/><path class="eabc445c-606c-4cb1-b0b6-1e4e1230b920" d="M482.4,697.84c0-11.46,0-49.09-28.9-69.81C432.23,616.57,397,609.75,368,647.39c-8.72,23.46-16.43,49.84,25,107.1,9.82,13.58,22.87,29.8,35.07,41.19,7.78,7.26,15.35,15,23.15,22.06,8.81,7.94,19.4,14.52,28.9,21.63A35,35,0,0,1,490.5,811.7c6.12-5.94,14.21-9.43,20.74-14.93a43.68,43.68,0,0,0,14.92-28.69c.56-5.43.43-8.79-3.18-12.67-3.93-4.23-6-8.08-9.06-13.07C504.75,727.23,482.4,717.65,482.4,697.84Z"/><path class="ea48de1b-f2ce-427b-8e52-b3fed6ffd0e2" d="M386.63,647.7c4.46-8,18.28-15.4,27.13-17.87,10.46-2.92,43.48-2.73,58.37,27.71,11.37,23.24,7.22,48-14.35,62.34-19.1,12.7-45.39,20.3-60.58-2.16C384.13,698.4,375.27,668.09,386.63,647.7Z"/><path class="ea48de1b-f2ce-427b-8e52-b3fed6ffd0e2" d="M419.8,644.7c23.54-21.41,44-15.79,61.14-19.05,6.15-13.81,70.73-42.74,70.73-42.74s32.19-22.93,59.53-37,33.33-14,43.47-15.47c0,0,15-9.07,21.64-13.84,12.18-8.71,23.51-13.38,39.74-13.09a4.66,4.66,0,0,1,4,1.56c1.62,2.2-.2,4.61-1.94,5.77-13,8.68-25.66,16-35.32,29.18-10.35,14.17-28.46,11.13-28.46,11.13s-47.22,36.68-58.2,45.09-22.5,24.28-37.72,31.81-24.25,13.17-36.1,27.3S497,689.38,463.27,692"/><path class="ea48de1b-f2ce-427b-8e52-b3fed6ffd0e2" d="M205.64,315.91c-2-8.94-1.51-17.73,3.44-25.47,5.86-9.14,30.62-31,62-18.19,24,9.76,37.35,31,30.81,56.06-5.8,22.19-20.34,45.37-46.63,38.73C232.63,361.33,210.74,338.68,205.64,315.91Z"/><path class="f12a401d-b9ce-4607-a906-6e9eeac5deef" d="M539.4,628.64c-9.64,7.93-16.31,18.32-33.37,31.67s-26.7,25.21-49.69,25.21a24.73,24.73,0,0,0-3.21,3.87c-5.25,7.11-14.59,21.35-14.59,21.35l17.8-17.06s2.94.06,7.41,0c-.14-.55-.29-1.09-.48-1.63,33.74-2.65,47.14-22.58,59-36.72s20.89-19.76,36.1-27.3,26.73-23.39,37.72-31.81,58.2-45.09,58.2-45.09-52.11,36.7-64.95,47S563.88,620.7,539.4,628.64Z"/><path class="ea48de1b-f2ce-427b-8e52-b3fed6ffd0e2" d="M217.49,287.18c17.42-26.63,38.63-26.32,54.4-33.78,2.5-14.91,57.76-59.11,57.76-59.11S355.05,164,378,143.5s28.75-21.89,38.2-25.87c0,0,12.2-12.53,17.47-18.83,9.61-11.49,19.41-18.85,35.19-22.64a4.67,4.67,0,0,1,4.22.52c2.12,1.73,1,4.51-.44,6.07-10.42,11.68-20.83,21.89-26.86,37.1C439.29,136.17,421,137.77,421,137.77s-36.5,47.35-45,58.25-15.69,29.14-28.53,40.25-20.17,18.83-28.1,35.48-15.9,39.31-47.9,50.34"/><path class="f12a401d-b9ce-4607-a906-6e9eeac5deef" d="M329.24,241.63c-7.35,10.1-11.2,21.83-24.37,39s-19.52,31.1-41.77,36.87a23.51,23.51,0,0,0-2.14,4.55c-3.3,8.2-8.77,24.32-8.77,24.32l12.95-21s2.86-.68,7.17-1.88a16.62,16.62,0,0,0-.88-1.46c32-11,40-33.68,47.9-50.34s15.26-24.36,28.1-35.48,20-29.35,28.53-40.25,45-58.25,45-58.25-41.24,48.6-51.08,61.78S350.94,227.81,329.24,241.63Z"/><path class="a65cd648-49a6-4af7-acb9-b51a531e69c5" d="M485.06,457.11a79.12,79.12,0,0,1-4.7,7.95c-1.69,2.54-3.47,5-5.3,7.4s-3.73,4.74-5.69,7-4,4.51-6,6.71l-3.27,3.49-3-3.69-2.89-3.53-2.8-3.62c-1.83-2.44-3.63-4.9-5.33-7.45s-3.35-5.13-4.9-7.81a79.73,79.73,0,0,1-4.25-8.35,79.79,79.79,0,0,1,7.44,5.69c2.36,2,4.61,4.09,6.8,6.22s4.3,4.35,6.37,6.59l3.05,3.4,3,3.49-6.28-.2c2.08-2.17,4.19-4.31,6.36-6.39s4.4-4.11,6.7-6.08,4.64-3.87,7.09-5.7A79.44,79.44,0,0,1,485.06,457.11Z"/></svg>