<svg id="aed4b5c8-9ded-4608-b0c7-39dcf832a891" data-name="Layer 1" xmlns="http://www.w3.org/2000/svg" viewBox="0 0 938 938"><defs><style>.a3ad04e2-02fd-4e6d-a3b4-dc50fe28d8fe,.ad97ab3e-5976-4692-a1a6-313b150c6781{fill:#fcc7b4;}.bbbcff81-91b4-4e9a-a569-75afdd395b93{fill:#e59c95;}.a9b96e5d-149c-4f80-8c93-7ea2cdf540f6{fill:#848689;}.e3282b0d-3864-4c6f-9e4a-71492985a17c{fill:#4d4d4f;stroke:#808285;}.a3ad04e2-02fd-4e6d-a3b4-dc50fe28d8fe,.e3282b0d-3864-4c6f-9e4a-71492985a17c{stroke-miterlimit:10;}.eacfe6de-00a5-492f-b69d-0abc8d8f05a5{fill:#7cafc4;}.a3ad04e2-02fd-4e6d-a3b4-dc50fe28d8fe{stroke:#a67167;stroke-width:0.5px;}.b3fc72ea-f0bc-408d-a5ce-c9109c4bee9f{fill:#a67167;}.e7f25468-1a80-4760-8547-3a73065dbcb9{fill:#6b3d35;}.b16b2c31-fe91-4cbf-8107-c1a287917f79{fill:#ef9d0c;}.b600e4d5-1aa6-4f84-a43a-3dea3a3becf2{fill:none;}.b86e6a96-bf2e-48a7-894f-0174705064fc{fill:#0e7987;}.fc2d7864-a541-485e-9c97-1760ec316763{fill:#fff;}</style></defs><path class="ad97ab3e-5976-4692-a1a6-313b150c6781" d="M106,765.65c5.08-44.91,12.67-95.88,13.32-106.88s18.33-30.38,18.93-52.93c.64-23.84,8.63-48.13,14.4-71.67l-76.94-.64c-1.06,23-4.12,47.53.8,82.67C69.45,654.91,51.47,666,53.69,690.78c1.81,20.13,9.4,53.59,12.21,80.59,1.37.08,2.8.16,4.27.21-1.47-.05-2.9-.13-4.27-.21A174.15,174.15,0,0,1,67,788.79C67,817.05,70.17,861,70.17,861L122,847.94s-20.37-36.26-16.14-80.25C105.9,767,106,766.33,106,765.65Z"/><path class="bbbcff81-91b4-4e9a-a569-75afdd395b93" d="M66.44,777.17s-.14-2.18-.37-5.79H65.9c.21,2,.38,3.89.53,5.79Z"/><path class="bbbcff81-91b4-4e9a-a569-75afdd395b93" d="M76.54,616.2C69.45,654.91,51.47,666,53.69,690.78c1.81,20.13,9.4,53.59,12.21,80.59h.17c-.88-14-3.18-49.33-4.65-63-1.84-17.2,11.67-64.49,20.27-82.3V533.58l-6-.05C74.68,556.54,71.62,581.06,76.54,616.2Z"/><path class="ad97ab3e-5976-4692-a1a6-313b150c6781" d="M655.93,630.8c-8.09-12.59-25.29-14-38.61-16.43-18.4-3.34-36.91-6.25-55.49-8.56L526.34,678l-3.11,13.77c0,2.11,85-13.6,88.86-14.43-2.65,1.39-3.73,4.54-4.67,7.38-6.27,19.13-12,39.07-9.3,59.41,2.78,20.65,9.54,40.19,7.81,61.35-.41,5-4.77,58.56-10.61,59.47l45.3-7s-1.26-43.47.32-77.89c.37-7.9.88-15.33,1.6-21.64,3.82-33.82,16-68.27,16.58-86.14S661.68,639.74,655.93,630.8Z"/><path class="bbbcff81-91b4-4e9a-a569-75afdd395b93" d="M610.52,808.05c-4.85-34.67-2.78-94.3,0-108.16s16.64-43,16.64-43-6.94,9-12.89,11.79c-4.41,2-72.68,11.76-89.21,15l-1.83,8.11c0,2.11,85-13.6,88.86-14.43-2.65,1.39-3.73,4.54-4.67,7.38-6.27,19.13-12,39.07-9.3,59.41,2.44,18.13,7.94,35.39,8.08,53.65C607.59,801.21,609,804.64,610.52,808.05Z"/><path class="a9b96e5d-149c-4f80-8c93-7ea2cdf540f6" d="M585.88,879.62c-.74,9.29,9.33,8.52,21.42,11.18,12.54,2.75,28.8.76,42.3,1.52s75.55,4.42,73.19-8.55a26.31,26.31,0,0,0-1-3.83c-10.63,6-33.63,6.64-76.09,5.82C610.69,885.08,593.71,881.92,585.88,879.62Z"/><path class="e3282b0d-3864-4c6f-9e4a-71492985a17c" d="M703,867.51c-9.37-3.08-16-8.9-32-17s-13.51-16.91-18.77-22.29-13.13,2.47-26.53,15-23.66-7.89-29.52-7.64-5.45,18.82-5.45,18.82-3.07,13.64-4.7,24.09c-.06.38-.1.74-.12,1.09,7.83,2.3,24.81,5.46,59.84,6.14,42.46.82,65.46.21,76.09-5.82C718.63,870.72,711.3,870.24,703,867.51Z"/><path class="a9b96e5d-149c-4f80-8c93-7ea2cdf540f6" d="M53.54,859.94c-.74,9.29,9.37,8.53,21.5,11.18,12.58,2.76,28.91.77,42.45,1.53s75.81,4.43,73.45-8.55a26.45,26.45,0,0,0-1-3.82c-10.67,6-33.75,6.63-76.36,5.81C78.45,865.41,61.4,862.24,53.54,859.94Z"/><path class="e3282b0d-3864-4c6f-9e4a-71492985a17c" d="M171,847.84c-9.41-3.07-16-8.9-32.1-17s-13.56-16.91-18.84-22.29-13.17,2.47-26.62,15-23.74-7.89-29.62-7.65-5.48,18.82-5.48,18.82-3.07,13.64-4.7,24.09c-.06.38-.1.74-.13,1.09,7.86,2.3,24.91,5.47,60.05,6.15,42.61.82,65.69.21,76.36-5.81C186.76,851.06,179.4,850.58,171,847.84Z"/><path class="eacfe6de-00a5-492f-b69d-0abc8d8f05a5" d="M529.31,699.56l39-97.32q-6-.75-12.08-1.42c-13.61-1.53-27.23-3-40.82-4.68-5.21-.65-12.13-3-17.29-2.54-4.88.46-8.42,5.07-13.13,6.6a33.37,33.37,0,0,1-8.45,1.22c-12,.71-24.16.68-36-1.52a106.25,106.25,0,0,1-16.81-4.56q-4.38-1.58-8.63-3.49c-2.06-.93-3.8-2.54-6.22-2.08-7.09,1.36-11.23,11.07-12.2,17.41-6.47,42.56,22.88,85.15,66.2,89.41,22,2.17,44.47,3.82,66.5,3"/><path class="a3ad04e2-02fd-4e6d-a3b4-dc50fe28d8fe" d="M552.59,425.63c2.41-3.63,21.2-16.71,24-20.22,4.9-6,11.1-14.08,12-22.11.83-7.58,0-15.29,1.18-22.81,3.08-19.27,21.37-35.15,40.87-34.73,9.66.21,19,4,27,9.49,10.85,7.49,19.54,18.42,23.19,31.08s1.92,27-5.63,37.84a19.94,19.94,0,0,0-2.92,4.86c-1,2.92-.28,6.11.36,9.13s1.17,6.3-.19,9.07-5.37,4.39-7.63,2.28l-11.3,17.25c-3.16,4.82-7,10.07-12.64,11-4.8.78-9.36-1.8-13.39-4.68L626,452l-5.28-4c-4.6,4.91-8.89,10-13.27,15-5.2,6-14.88,14.55-17.18,22.27"/><path class="ad97ab3e-5976-4692-a1a6-313b150c6781" d="M616.81,386.14s-3.81-5.43-7.7-5.55-10.75,7.24-9.39,14.38,8.5,17.17,14.47,12"/><path class="b3fc72ea-f0bc-408d-a5ce-c9109c4bee9f" d="M616.81,386.14a20.16,20.16,0,0,0-4.78-4,6.26,6.26,0,0,0-2.74-.86,4.66,4.66,0,0,0-2.57.87,14,14,0,0,0-4.07,4.29,13,13,0,0,0-2,5.5,10.22,10.22,0,0,0,0,2.87,19.05,19.05,0,0,0,.8,2.91,24.46,24.46,0,0,0,2.73,5.46,12.79,12.79,0,0,0,4.27,4.2,5.07,5.07,0,0,0,2.85.68,5.82,5.82,0,0,0,2.86-1.1,5.6,5.6,0,0,1-2.78,1.65,5.8,5.8,0,0,1-3.34-.33,13,13,0,0,1-5.12-4.18,23.17,23.17,0,0,1-3.25-5.73,18.76,18.76,0,0,1-.94-3.2,12.19,12.19,0,0,1-.12-3.46,14.62,14.62,0,0,1,2.43-6.3,14.4,14.4,0,0,1,4.87-4.6,5.85,5.85,0,0,1,3.45-.83,7.13,7.13,0,0,1,3.16,1.34A16.33,16.33,0,0,1,616.81,386.14Z"/><path class="ad97ab3e-5976-4692-a1a6-313b150c6781" d="M611.44,389.76s-3.85-1-5.76,1.76.76,8.71,6.25,12.08"/><path class="b3fc72ea-f0bc-408d-a5ce-c9109c4bee9f" d="M611.44,389.76a6.58,6.58,0,0,0-4.53,1.56,2.94,2.94,0,0,0-.85,1.8,6,6,0,0,0,.25,2.19,14.94,14.94,0,0,0,2.22,4.35,30.8,30.8,0,0,0,3.4,3.94,12,12,0,0,1-4.6-2.93,11.48,11.48,0,0,1-2.94-4.81,6.72,6.72,0,0,1-.19-3,3.75,3.75,0,0,1,.23-.79,3.31,3.31,0,0,1,.38-.75,4.17,4.17,0,0,1,1.1-1.15,5,5,0,0,1,2.82-.93A6.15,6.15,0,0,1,611.44,389.76Z"/><path class="bbbcff81-91b4-4e9a-a569-75afdd395b93" d="M620.07,449.46s-10-9.34-13-14.83c-.81-1.48,3-17.15,3-17.15A133.36,133.36,0,0,0,612.63,432c1.09,3.91,5.43,13.13,8.57,15.54"/><path class="e7f25468-1a80-4760-8547-3a73065dbcb9" d="M584.66,392.47l11,10.74s.48-17.41,7.81-23.22,17.05,2.86,16.68,12.3c-.39,4.37-1.22,5.34-1.22,5.34l5.18,1.41s5.93-12.39,7-17.18,10.65-.27,20.2-7.88c0,0,5.14,12.82,13.44,14.9.33-.39-6.75-5.46-7.69-10.63,6.09,3.87,9.44,9.77,15.14,11s9.82,5.4,9.26,12.32c7.84-13.45,12.74-34.45-5.43-49.7,5.26,2.49,12.09,9,15,16.58-3.87-15.08-24.17-39.22-47.19-44.52s-35.37,6-35.37,6a23,23,0,0,1,13.4-11.7c-.19-.17-14.33,1.82-18,13.13-2.43-1.08-10.26-6.45-10.26-6.45s7.6,7.2,6.55,10S580,353.2,585.41,376.31C586.1,387.65,584.66,392.47,584.66,392.47Z"/><path class="b16b2c31-fe91-4cbf-8107-c1a287917f79" d="M417.82,580.18c20.93-18.92,38.86-41.19,50.47-66.81,8.76-19.33,16.16-37.47,29-54.52,11.65-15.52,30.77-28.73,49-35,14.82-5.1,30.11,4.85,40.62,14.79,18.85,17.83,13.84,34.29,15.19,39.36s-.1,38.14-.47,50-18,27.41-28.54,34.42c-8.87,5.9-14.42,15.49-22.9,21.7-9.48,6.93-23,10.71-34.15,13.92-29.69,8.5-64,10.8-94.09,2.84a68.53,68.53,0,0,1-8-3.18c-2.33-1-6.66-1.9-7.92-4.41a3,3,0,0,1,.2-2.76,9,9,0,0,1,1.88-2.17C411.13,585.52,414.64,583.05,417.82,580.18Z"/><path class="a3ad04e2-02fd-4e6d-a3b4-dc50fe28d8fe" d="M537.79,431.43c8-4.26,16.58-6.09,25.29-3.38,10.29,3.21,37.71,21.2,33.68,54.61-3.07,25.51-19.91,43.91-45.62,44.21-22.77.26-48.78-7.59-49.32-34.51C501.36,469.19,517.32,442.29,537.79,431.43Z"/><path class="eacfe6de-00a5-492f-b69d-0abc8d8f05a5" d="M155.43,522c3.62-17.88,7-35.88,8.22-54.11.58-8.55-.92-16.71-.55-25.3.26-6.05.93-12.08,1.31-18.13.19-3.19.31-6.39.23-9.59a4.33,4.33,0,0,0-.27-1.68,4.43,4.43,0,0,0-1.21-1.45c-6.36-5.71-9.93-10.92-19-10.46-11.64.58-23.31,3.83-34.83,2.7-2.93-.29-36.54-6.11-35.79-7.72-9.77,21-42.48,62-6.29,102.79,1.84,12.17,1.82,23.52,1.28,35.27l84.12-.13C153.68,530.08,154.62,526,155.43,522Z"/><path class="a3ad04e2-02fd-4e6d-a3b4-dc50fe28d8fe" d="M71.72,185.54c-.28-4.35,6.74-26.14,6.88-30.65.23-7.77.29-17.93-3.88-24.85-3.93-6.52-9.28-12.14-12.88-18.86C52.61,94,57.54,70.27,73.31,58.79c7.81-5.68,17.54-8.32,27.19-8.78,13.17-.62,26.7,2.81,37.27,10.68S155.69,81,156.22,94.2a20.79,20.79,0,0,0,.62,5.63c1,2.93,3.49,5,5.83,7s4.74,4.31,5.35,7.34-1.62,6.74-4.69,6.44l1.46,20.57c.4,5.74.56,12.22-3.4,16.4-3.34,3.53-8.53,4.23-13.49,4.38l-1.83,0h-6.64c-.68,6.7-1,13.33-1.46,20-.53,7.89-3,20.59-.17,28.13"/><path class="ad97ab3e-5976-4692-a1a6-313b150c6781" d="M98.89,115.21s-6.33-2-9.5.25-4.16,12.28,1.25,17.13,17.17,8.51,18.76.76"/><path class="b3fc72ea-f0bc-408d-a5ce-c9109c4bee9f" d="M98.89,115.21a20.25,20.25,0,0,0-6.24-.29,6.19,6.19,0,0,0-2.7,1,4.64,4.64,0,0,0-1.51,2.25,14,14,0,0,0-.65,5.88,13.16,13.16,0,0,0,1.73,5.6,10,10,0,0,0,1.78,2.25,19.61,19.61,0,0,0,2.39,1.83,24.32,24.32,0,0,0,5.49,2.69,12.91,12.91,0,0,0,5.94.76A5.13,5.13,0,0,0,107.8,136a5.82,5.82,0,0,0,1.6-2.62,5.51,5.51,0,0,1-1.2,3,5.77,5.77,0,0,1-2.86,1.76,13.09,13.09,0,0,1-6.61-.22,23.12,23.12,0,0,1-6-2.59,19.5,19.5,0,0,1-2.69-2,12.24,12.24,0,0,1-2.19-2.69,14.71,14.71,0,0,1-1.89-6.48A14.48,14.48,0,0,1,87,117.55a5.89,5.89,0,0,1,2.24-2.75,7.08,7.08,0,0,1,3.33-.85A16.42,16.42,0,0,1,98.89,115.21Z"/><path class="ad97ab3e-5976-4692-a1a6-313b150c6781" d="M96.81,121.35s-3.65,1.57-3.52,4.89,5.88,6.47,12.29,5.81"/><path class="b3fc72ea-f0bc-408d-a5ce-c9109c4bee9f" d="M96.81,121.35a6.5,6.5,0,0,0-2.66,4,2.9,2.9,0,0,0,.41,2,6.08,6.08,0,0,0,1.53,1.6,15.21,15.21,0,0,0,4.4,2.12,31,31,0,0,0,5.09,1.06,11.84,11.84,0,0,1-5.43.46,11.59,11.59,0,0,1-5.26-2,6.7,6.7,0,0,1-2-2.31,3.65,3.65,0,0,1-.3-.76,3.69,3.69,0,0,1-.15-.83,4.16,4.16,0,0,1,.18-1.58,5,5,0,0,1,1.68-2.45A6,6,0,0,1,96.81,121.35Z"/><path class="bbbcff81-91b4-4e9a-a569-75afdd395b93" d="M139.85,163.61s-13.59-1.4-19.29-4c-1.55-.69-8-15.44-8-15.44a131.15,131.15,0,0,0,10.82,10c3.24,2.46,12.28,7.17,16.24,7.18"/><path class="e7f25468-1a80-4760-8547-3a73065dbcb9" d="M77.14,139.73l15.22,1.9s-10.17-14.13-7.85-23.2,15.29-8.05,20.72-.32c2.34,3.71,2.26,5,2.26,5l5-2s-2.8-13.45-4.84-17.91,8.31-6.67,11.3-18.51c0,0,11.85,7.08,19.72,3.7,0-.51-8.68-.25-12.56-3.8,7.19-.6,13.42,2.06,18.68-.44s11.09-1.66,14.84,4.18c-1.92-15.44-10.74-35.12-34.44-36.24,5.69-1.21,15.09-.15,22,4.09-12.21-9.66-43-16.56-64.51-6.82S58.13,75.5,58.13,75.5A23,23,0,0,1,61.7,58.08c-.25,0-10.3,10.13-6.35,21.35-2.59.61-12.08,1.08-12.08,1.08s10.42,1.12,11.27,4S49.66,111.3,68,126.41C75.37,135,77.14,139.73,77.14,139.73Z"/><path class="b16b2c31-fe91-4cbf-8107-c1a287917f79" d="M71.3,393.35a88.75,88.75,0,0,0,.29-9.08c-.16-8.56-2.8-17.17-2.76-25.63,0-7,1.76-14.34,2.09-21.47.42-9.17.75-18.36.94-27.54.93-42.38-4.6-117.92-4.6-117.92l3.22-9.22s10.6-10.13,36.39-7.37S138.66,194,142.8,197.23s23,30.41,29.94,40.08S175.05,270,170.9,282s0,30.4-6.45,50.67c-3.52,11.08-2.74,22.25-1.1,33.4,1.2,8.24,1.11,16.61.94,24.91-.08,4.28-.24,8.56-.21,12.84,0,1.23.09,9.45.83,9.84-2.2-1.17-6.38-.4-8.85-.62a90.71,90.71,0,0,1-9.44-1.28c-6.18-1.2-12.2-3.19-18.41-4.18-7.53-1.2-15.21-.9-22.83-.59l-18.11.73c-6.67.27-13.45.55-19.8,2.64A60.26,60.26,0,0,0,71.3,393.35Z"/><path class="a3ad04e2-02fd-4e6d-a3b4-dc50fe28d8fe" d="M61.73,198.62s9.67-13.82,19.81-17.51,42.84-6,59.88,23,4.61,69.1-15.2,78.77c.92,14.28-14.28,46.53-13.36,54.36s2.3,37.31,1.84,60.8S123,463,130.37,475,140.5,491.12,141,497.11s-.46,21.65-.46,21.65-6.91,7.37-13.36,3.22c-1.84,2.31-8.75,4.61-17.5,1.39-2.77,2.3-10.14-1.85-12-4.15-2.3,3.68-8.29.46-9.21-2.3,1.84-9.22,6-10.14,3.68-18.89a245.79,245.79,0,0,1,5.53-31.78S65.42,387,64.49,368.59s-3.68-9.21-2.3-41.46-10.13-35-11.51-54.35S43.31,224,61.73,198.62Z"/><line class="a3ad04e2-02fd-4e6d-a3b4-dc50fe28d8fe" x1="101.81" y1="510.93" x2="97.66" y2="519.22"/><line class="a3ad04e2-02fd-4e6d-a3b4-dc50fe28d8fe" x1="113.78" y1="514.15" x2="109.64" y2="523.37"/><line class="a3ad04e2-02fd-4e6d-a3b4-dc50fe28d8fe" x1="125.3" y1="513.69" x2="124.84" y2="521.52"/><path class="bbbcff81-91b4-4e9a-a569-75afdd395b93" d="M149.44,234q-1.29-3.54-2.95-7.27c3.68,29.48-17.05,47.44-17.05,47.44l-4.6-18,3.68-12.9-8.29,10.13s0,1.38,1.84,22.57-13.35,49.75-13.35,49.75l-4.15-6c2.3,20.27,3.69,35,6.45,80.15,1.65,27,7.26,44.13,11.51,53.52-4.56-17.4-8.12-40.14-7.83-55.36.46-23.49-.92-53-1.84-60.8s14.28-40.08,13.36-54.36C139.7,276.33,149.76,255.66,149.44,234Z"/><path class="b600e4d5-1aa6-4f84-a43a-3dea3a3becf2" d="M696.3,701.86v.65"/><path class="a3ad04e2-02fd-4e6d-a3b4-dc50fe28d8fe" d="M555.66,446.47c32.5-5.13,47.05,11,63.74,17.79,13.14-8.33,85.45,3,85.45,3s40.84-1.61,72.52,1.58,36.77,6.63,46.4,11c0,0,18.08.6,26.58.25,15.47-.64,27.93,1.69,41.83,11,1.16.78,2.44,1.85,2.54,3.53.15,2.77-2.78,3.81-5,3.83-16.19.15-31.25-.69-47.09,5.19-17,6.31-30.95-6.36-30.95-6.36s-61.65,5-75.93,6-33.21,8.14-50.66,6.1-28.45-2.29-46.71,3.15-49,6.26-71.87-1.55"/><path class="bbbcff81-91b4-4e9a-a569-75afdd395b93" d="M668.37,499.31c-12.84,1.4-24.5,6.52-46.82,8.4s-37.39,6.61-57.31-6.18a26.13,26.13,0,0,0-5,1.51c-8.56,3.14-24.71,10.06-24.71,10.06l25.07-4.62s2.51,1.68,6.43,4.1a15.68,15.68,0,0,0,.5-1.65c26.81,8,52.2,5.25,71.87,1.55,18.73-3.51,29.27-5.2,46.71-3.15s36.39-5.05,50.66-6.1,75.93-6,75.93-6-65.9,2.26-82.85,3.88S694.06,506.17,668.37,499.31Z"/><path class="b86e6a96-bf2e-48a7-894f-0174705064fc" d="M452.33,689.08c-21.37-7.62-44.48-19.41-53.07-46.56,8.66,28.29,32.52,51,63.55,54.07,22,2.17,44.47,3.82,66.5,3l4.2-10.48S473.74,696.71,452.33,689.08Z"/><path class="fc2d7864-a541-485e-9c97-1760ec316763" d="M324.31,332.34a89.44,89.44,0,0,1,9.22,5c3,1.79,5.81,3.7,8.62,5.67s5.53,4,8.21,6.14,5.29,4.31,7.86,6.53l4.1,3.55-4,3.58-3.88,3.43-4,3.33c-2.69,2.18-5.4,4.34-8.21,6.37s-5.67,4-8.64,5.9a92.45,92.45,0,0,1-9.27,5.19,86.59,86.59,0,0,1,6.12-8.69c2.16-2.76,4.43-5.41,6.75-8s4.74-5.06,7.18-7.51l3.73-3.6,3.81-3.51.05,7.12c-2.55-2.25-5.07-4.55-7.52-6.92s-4.85-4.81-7.18-7.32-4.6-5.09-6.77-7.78A88.48,88.48,0,0,1,324.31,332.34Z"/></svg>