<svg id="ae4112c8-9134-4050-a3b8-b3dc807a08bf" data-name="Layer 1" xmlns="http://www.w3.org/2000/svg" viewBox="0 0 938 938"><defs><style>.b4ad9f9a-f8ee-4305-98e2-510e19d20a75,.fffe1c4f-a48e-450b-b3d7-0f4c02cf923f{fill:#fcc7b4;}.fffe1c4f-a48e-450b-b3d7-0f4c02cf923f{stroke:#a67167;stroke-width:0.5px;}.abb2c56f-bfca-4073-bfef-1ee5d70646a7,.fffe1c4f-a48e-450b-b3d7-0f4c02cf923f{stroke-miterlimit:10;}.ef00f420-6318-4bc8-bac5-9cb0104ff04d{fill:#a67167;}.ac1715de-2621-4cbf-b60e-055db5b3b0ce{fill:#e59c95;}.a39b80f1-e3f9-49b1-9eaf-93fd5715b0e6{fill:#6b3d35;}.ab3e8556-e696-4dc4-91ee-ad27ef446aa4{fill:#ef9d0c;}.a4ca6e50-d607-4fe5-ba8e-b8994f237263{fill:#7cafc4;}.a238d407-83c1-44a9-86d5-9e0336160a9a{fill:#0e7987;}.abb2c56f-bfca-4073-bfef-1ee5d70646a7{fill:#4d4d4f;stroke:#808285;}.e3c2577e-c2ba-46da-8edd-34f32b62e77c{fill:#ededed;}.fe6b5d45-ea5b-4caa-8dd0-18ffe8fe296a{fill:#848689;}.a0c73a0b-1ddc-4be6-aabe-a11c7de9f60d{fill:#fff;}</style></defs><path class="fffe1c4f-a48e-450b-b3d7-0f4c02cf923f" d="M150.77,323c-.24-3.67,5.68-22,5.8-25.83.19-6.54.24-15.1-3.27-20.93-3.32-5.49-7.82-10.23-10.85-15.89-7.78-14.48-3.62-34.46,9.66-44.13,6.58-4.79,14.78-7,22.91-7.4,11.09-.52,22.49,2.37,31.4,9S221.51,235,222,246a17.14,17.14,0,0,0,.52,4.75c.82,2.47,2.94,4.24,4.91,5.93s4,3.63,4.51,6.18-1.37,5.68-4,5.43l1.22,17.33c.35,4.83.48,10.29-2.85,13.81-2.82,3-7.19,3.57-11.37,3.7l-1.54,0h-5.6c-.57,5.64-.86,11.23-1.23,16.84-.44,6.65-2.54,17.35-.14,23.7"/><path class="b4ad9f9a-f8ee-4305-98e2-510e19d20a75" d="M173.66,263.75s-5.33-1.69-8,.21-3.5,10.34,1.05,14.43,14.46,7.17,15.81.64"/><path class="ef00f420-6318-4bc8-bac5-9cb0104ff04d" d="M173.66,263.75a17.23,17.23,0,0,0-5.25-.17,5.15,5.15,0,0,0-2.23.83,3.9,3.9,0,0,0-1.21,1.86,11.64,11.64,0,0,0-.51,4.89,10.88,10.88,0,0,0,1.44,4.65,8.55,8.55,0,0,0,1.47,1.86,16.67,16.67,0,0,0,2,1.53,20.37,20.37,0,0,0,4.58,2.27,10.85,10.85,0,0,0,4.95.69,4.37,4.37,0,0,0,2.25-1,4.89,4.89,0,0,0,1.38-2.17,4.68,4.68,0,0,1-1,2.56,4.87,4.87,0,0,1-2.42,1.52,10.91,10.91,0,0,1-5.62-.14,19.37,19.37,0,0,1-5.14-2.17,15.28,15.28,0,0,1-2.29-1.68,10.3,10.3,0,0,1-1.88-2.29,12.47,12.47,0,0,1-1.6-5.53,12.3,12.3,0,0,1,.95-5.63,5,5,0,0,1,1.95-2.36,6.18,6.18,0,0,1,2.85-.7A13.69,13.69,0,0,1,173.66,263.75Z"/><path class="b4ad9f9a-f8ee-4305-98e2-510e19d20a75" d="M171.91,268.92s-3.08,1.32-3,4.12,5,5.45,10.36,4.9"/><path class="ef00f420-6318-4bc8-bac5-9cb0104ff04d" d="M171.91,268.92a5.59,5.59,0,0,0-2.13,3.37,2.41,2.41,0,0,0,.37,1.55,4.9,4.9,0,0,0,1.25,1.29,13.22,13.22,0,0,0,3.63,1.79,31,31,0,0,0,4.27,1,10.1,10.1,0,0,1-9.1-1.21,5.71,5.71,0,0,1-1.72-2,2.81,2.81,0,0,1-.25-.67,3,3,0,0,1-.13-.72,3.5,3.5,0,0,1,.17-1.38A4.56,4.56,0,0,1,171.91,268.92Z"/><path class="ac1715de-2621-4cbf-b60e-055db5b3b0ce" d="M208.16,304.52s-11.44-1.18-16.25-3.32c-1.3-.59-6.77-13-6.77-13a110.53,110.53,0,0,0,9.12,8.42c2.73,2.07,10.34,6,13.68,6"/><path class="a39b80f1-e3f9-49b1-9eaf-93fd5715b0e6" d="M155.34,284.4,168.16,286s-8.57-11.91-6.61-19.55,12.88-6.78,17.45-.27c2,3.12,1.91,4.2,1.91,4.2l4.19-1.7s-2.36-11.33-4.08-15.09,7-5.62,9.52-15.59c0,0,10,6,16.61,3.12,0-.43-7.3-.21-10.57-3.2,6-.51,11.3,1.73,15.73-.38s9.34-1.39,12.5,3.53c-1.61-13-9-29.59-29-30.54A28.11,28.11,0,0,1,214.33,214c-10.29-8.13-36.22-14-54.35-5.75s-20.66,22-20.66,22a19.37,19.37,0,0,1,3-14.68c-.22,0-8.68,8.54-5.35,18-2.19.52-10.17.92-10.17.92s8.77.94,9.49,3.35-4.11,22.58,11.29,35.32C153.84,280.44,155.34,284.4,155.34,284.4Z"/><path class="ab3e8556-e696-4dc4-91ee-ad27ef446aa4" d="M147,497.78s3.11-34.54,3.88-70.24S147,328.19,147,328.19l2.72-7.76s8.92-8.54,30.66-6.21,26.77,15.91,30.26,18.63,19.41,25.61,25.23,33.76,1.94,27.55-1.55,37.64,0,25.61-5.44,42.69.78,43.85.78,43.85,6.6,23.67,3.49,24.06-41.91.39-41.91.39Z"/><path class="b4ad9f9a-f8ee-4305-98e2-510e19d20a75" d="M366.48,499.6c-4.32-6.73-46.84-14.31-73.86-16.23l-9.35,65.11-.69,4.77c4.31-1.19,7.88-2.11,10.26-2.59,13.44-2.69,23.12-8.6,26.34-7.53s-15.05,26.88,5.38,73.1c.45,5.41.59,10.87.5,16.28-.5,33.31-9.64,64.35-9.64,64.35l38.16-5.92s-1.06-36.61.27-65.61c.31-6.66.74-12.92,1.34-18.23,3.23-28.49,13.44-57.52,14-72.57S371.32,507.12,366.48,499.6Z"/><path class="ac1715de-2621-4cbf-b60e-055db5b3b0ce" d="M324.91,637.7h0s4.49-18.33,1.31-34c-10.42-21.86-2.51-60.93-2.51-60.93l10.71-16.56L316,537.1l-32.06,7-.62,4.35-.69,4.77c4.31-1.19,7.88-2.11,10.26-2.59,13.44-2.69,23.12-8.6,26.34-7.53s-15.05,26.88,5.38,73.1c.45,5.41.59,10.87.5,16.28C325,634.25,325,636,324.91,637.7Z"/><path class="b4ad9f9a-f8ee-4305-98e2-510e19d20a75" d="M141.67,799.91c8.86-37.66,20.45-80.23,22.13-89.51s18.45-24,21.27-43.08c3-20.21,12.17-40,19.42-59.48l-64.29-8.32c-3.25,19.45-8.33,40-7.83,70.35-9.91,32.2-26.09,39.79-26.78,61.09-.55,17.31,2.35,46.52,1.93,69.75,1.13.21,2.32.42,3.55.61-1.23-.19-2.42-.4-3.55-.61-.1,5.37-.37,10.42-.91,14.92-2.86,24-4.74,61.71-4.74,61.71l44.67-5.86s-13.31-32.89-5.25-69.85C141.42,801.05,141.53,800.48,141.67,799.91Z"/><path class="ac1715de-2621-4cbf-b60e-055db5b3b0ce" d="M107.37,805.7s.11-1.87.29-5l-.14,0c0,1.7-.09,3.35-.16,5Z"/><path class="ac1715de-2621-4cbf-b60e-055db5b3b0ce" d="M132.37,669.87c-9.91,32.2-26.09,39.79-26.78,61.09-.55,17.31,2.35,46.52,1.93,69.75l.14,0c.7-12,2.41-42.26,2.59-54,.23-14.81,16.39-53.64,25.41-67.92l9.52-78.64-5-.64C137,619,131.87,639.51,132.37,669.87Z"/><path class="a4ca6e50-d607-4fe5-ba8e-b8994f237263" d="M204.45,594a196.69,196.69,0,0,0,9.7-27.95s27.94-5.82,63.25-15.91l5.87-1.68,9.35-65.11c-3.22-.23-6.22-.38-8.91-.44-16.89-.36-41.66.13-56.32,9.59-3.41,2.2-6.52,5-10.38,6.29a28.27,28.27,0,0,1-7.11,1c-22,1.3-37.89-.72-57.88-11-.69-.36-12.07,19.81-12.91,21.5-4.74,9.52-8,19.88-7.84,30.62.15,10.3,3.17,20.42,3.81,30.78.84,13.79,0,27-4.57,40.14,5.1,1.56,64.07,7.71,65,5C199,607.42,202.24,598.87,204.45,594Z"/><path class="a4ca6e50-d607-4fe5-ba8e-b8994f237263" d="M277.4,550.16c-35.31,10.09-63.25,15.91-63.25,15.91a196.69,196.69,0,0,1-9.7,27.95c-2.21,4.85-5.48,13.4-8.9,22.89l7.55.49c6.65-18.89,12.6-37.17,12.35-45.78,11.05-1.33,46.95-7.3,66.91-12.84l.91-10.3Z"/><path class="a238d407-83c1-44a9-86d5-9e0336160a9a" d="M282.58,553.25s-45.9,12-69.44,12.86c-19.18.7-77.92,8.32-81.53-31.86-.24,9.32.11,20.77,8.22,28.67s60.46,11,76.43,8.6,66.1-12.74,66.1-12.74Z"/><path class="b4ad9f9a-f8ee-4305-98e2-510e19d20a75" d="M696.34,630.32c4.28-38.46,10.67-82.11,11.22-91.52s15.44-26,16-45.33c.54-20.42,7.27-41.21,12.13-61.38l-64.82-.54c-.89,19.7-3.47,40.7.67,70.79-6,33.15-21.12,42.63-19.24,63.86,1.52,17.25,7.91,45.9,10.28,69q1.74.12,3.6.18-1.86-.06-3.6-.18a148.54,148.54,0,0,1,.89,14.93c.05,24.19,2.71,61.83,2.71,61.83l43.64-11.18s-17.16-31.06-13.6-68.72C696.23,631.48,696.27,630.9,696.34,630.32Z"/><path class="ac1715de-2621-4cbf-b60e-055db5b3b0ce" d="M663,640.18s-.11-1.87-.3-5h-.15c.18,1.69.32,3.34.45,5Z"/><path class="ac1715de-2621-4cbf-b60e-055db5b3b0ce" d="M671.49,502.34c-6,33.15-21.12,42.63-19.24,63.86,1.52,17.25,7.91,45.9,10.28,69h.15c-.75-12-2.69-42.24-3.92-53.94-1.55-14.72,9.83-55.22,17.08-70.47V431.59l-5,0C669.93,451.25,667.35,472.25,671.49,502.34Z"/><path class="abb2c56f-bfca-4073-bfef-1ee5d70646a7" d="M751.1,700.7c-7.93-2.63-13.51-7.62-27-14.55s-11.43-14.48-15.88-19.09-11.1,2.12-22.42,12.87-20-6.75-25-6.54-4.61,16.11-4.61,16.11-2.59,11.68-4,20.63c-.05.33-.09.63-.11.93,6.62,2,21,4.69,50.59,5.27,35.9.7,55.34.18,64.33-5C764.35,703.45,758.15,703,751.1,700.7Z"/><path class="a4ca6e50-d607-4fe5-ba8e-b8994f237263" d="M738.2,420.93c3-15.06,5.86-30.23,6.91-45.58.5-7.21-.77-14.08-.46-21.32.22-5.09.79-10.17,1.11-15.26.16-2.69.26-5.39.19-8.09a3.72,3.72,0,0,0-.22-1.41,3.77,3.77,0,0,0-1-1.22c-5.35-4.81-8.36-9.2-16-8.82-9.81.5-19.64,3.23-29.35,2.28-2.47-.24-30.78-5.14-30.15-6.5-8.23,17.72-35.79,52.24-5.3,86.59A148.06,148.06,0,0,1,665,431.32l70.86-.12C736.72,427.76,737.51,424.33,738.2,420.93Z"/><path class="e3c2577e-c2ba-46da-8edd-34f32b62e77c" d="M517.11,534.25H492.66l-29.1,181.62L301.74,718.2l-4.66,200.24L318,916.11l1.09-40.75H472.34l1.7,43.08,23.28-1.17L488,715.87ZM319.68,854.41l3-112.93H467.05l4.46,112.93Z"/><path class="fe6b5d45-ea5b-4caa-8dd0-18ffe8fe296a" d="M90.27,891.93c-.42,9,8.24,8,18.71,10.21,10.87,2.33,24.84,0,36.48.39s65.19,2.32,62.87-10.09a27,27,0,0,0-.94-3.66c-9,6.06-28.82,7.24-65.42,7.54C111.78,896.56,97.07,893.94,90.27,891.93Z"/><path class="abb2c56f-bfca-4073-bfef-1ee5d70646a7" d="M190.86,877.3c-8.15-2.72-14-8.15-27.94-15.52s-12-15.91-16.68-21S135,843.54,123.73,856s-20.57-7-25.61-6.6-4.27,18.24-4.27,18.24-2.33,13.19-3.5,23.28c0,.37-.06.72-.08,1,6.8,2,21.51,4.63,51.7,4.39,36.6-.3,56.4-1.48,65.42-7.54C204.45,880,198.12,879.72,190.86,877.3Z"/><path class="fe6b5d45-ea5b-4caa-8dd0-18ffe8fe296a" d="M305.65,707.6c-.43,9,8.24,8,18.71,10.21,10.86,2.33,24.83,0,36.47.39s65.2,2.32,62.87-10.09a27,27,0,0,0-.93-3.66c-9,6.06-28.83,7.24-65.43,7.54C327.15,712.23,312.45,709.61,305.65,707.6Z"/><path class="abb2c56f-bfca-4073-bfef-1ee5d70646a7" d="M406.24,693c-8.15-2.72-14-8.15-27.94-15.52s-12-15.91-16.69-21-11.25,2.72-22.51,15.14-20.56-7-25.61-6.6-4.27,18.24-4.27,18.24-2.33,13.19-3.49,23.28c0,.37-.07.72-.08,1.05,6.8,2,21.5,4.63,51.69,4.39,36.6-.3,56.41-1.48,65.43-7.54C419.82,695.66,413.49,695.39,406.24,693Z"/><path class="fffe1c4f-a48e-450b-b3d7-0f4c02cf923f" d="M142.36,334s8.14-11.64,16.68-14.74,36.09-5,50.45,19.4,3.88,58.21-12.81,66.36c.78,12-12,39.19-11.25,45.79S187.37,482.25,187,502s7,54.72,13.2,64.81,8.53,13.58,8.92,18.63-.39,18.24-.39,18.24-5.82,6.21-11.25,2.71c-1.55,1.94-7.37,3.88-14.75,1.17-2.32,1.94-8.53-1.55-10.09-3.49-1.94,3.1-7,.38-7.76-2,1.56-7.76,5-8.53,3.11-15.91a206.28,206.28,0,0,1,4.65-26.77s-27.16-66.75-27.94-82.27-3.1-7.76-1.94-34.93-8.53-29.49-9.7-45.79S126.83,355.36,142.36,334Z"/><line class="fffe1c4f-a48e-450b-b3d7-0f4c02cf923f" x1="176.12" y1="597.12" x2="172.62" y2="604.11"/><line class="fffe1c4f-a48e-450b-b3d7-0f4c02cf923f" x1="186.21" y1="599.84" x2="182.71" y2="607.6"/><line class="fffe1c4f-a48e-450b-b3d7-0f4c02cf923f" x1="195.91" y1="599.45" x2="195.52" y2="606.05"/><path class="ac1715de-2621-4cbf-b60e-055db5b3b0ce" d="M216.24,363.81c-.72-2-1.54-4-2.48-6.12,3.1,24.83-14.36,40-14.36,40l-3.88-15.14,3.1-10.86-7,8.53s0,1.17,1.55,19-11.25,41.91-11.25,41.91l-3.49-5.05c1.94,17.08,3.1,29.5,5.43,67.53,1.39,22.76,6.12,37.17,9.69,45.08C189.74,534,186.73,514.86,187,502c.39-19.79-.77-44.62-1.55-51.22s12-33.76,11.25-45.79C208,399.48,216.51,382.07,216.24,363.81Z"/><path class="fffe1c4f-a48e-450b-b3d7-0f4c02cf923f" d="M667.67,137.5c-.24-3.66,5.68-22,5.8-25.82.19-6.55.24-15.1-3.27-20.93-3.32-5.5-7.82-10.23-10.85-15.89-7.78-14.48-3.62-34.46,9.66-44.13,6.58-4.79,14.78-7,22.91-7.4,11.09-.53,22.49,2.36,31.4,9s15.09,17.13,15.54,28.23a17.14,17.14,0,0,0,.52,4.75c.82,2.47,2.94,4.23,4.91,5.93s4,3.63,4.51,6.18-1.37,5.68-3.95,5.42l1.22,17.33c.35,4.84.48,10.3-2.85,13.82-2.82,3-7.19,3.57-11.37,3.69l-1.54,0h-5.6c-.57,5.64-.86,11.23-1.23,16.83-.44,6.65-2.54,17.36-.14,23.7"/><path class="b4ad9f9a-f8ee-4305-98e2-510e19d20a75" d="M690.56,78.25s-5.33-1.69-8,.22-3.5,10.34,1.05,14.43,14.46,7.16,15.81.64"/><path class="ef00f420-6318-4bc8-bac5-9cb0104ff04d" d="M690.56,78.25a17.22,17.22,0,0,0-5.25-.16,5,5,0,0,0-2.23.83,3.82,3.82,0,0,0-1.21,1.85,11.69,11.69,0,0,0-.51,4.9,10.88,10.88,0,0,0,1.44,4.64,8.37,8.37,0,0,0,1.47,1.87,17.78,17.78,0,0,0,2,1.53A20.8,20.8,0,0,0,690.84,96a10.84,10.84,0,0,0,4.95.68,4.35,4.35,0,0,0,2.25-1,5,5,0,0,0,1.38-2.17,4.74,4.74,0,0,1-1,2.56A4.94,4.94,0,0,1,696,97.62a11,11,0,0,1-5.62-.14,19.23,19.23,0,0,1-5.14-2.17A16.81,16.81,0,0,1,683,93.63a10.35,10.35,0,0,1-1.88-2.3,12.43,12.43,0,0,1-1.6-5.53,12.26,12.26,0,0,1,.95-5.62,5,5,0,0,1,2-2.36,5.94,5.94,0,0,1,2.85-.7A13.51,13.51,0,0,1,690.56,78.25Z"/><path class="b4ad9f9a-f8ee-4305-98e2-510e19d20a75" d="M688.81,83.42s-3.08,1.33-3,4.12,5,5.45,10.36,4.9"/><path class="ef00f420-6318-4bc8-bac5-9cb0104ff04d" d="M688.81,83.42a5.59,5.59,0,0,0-2.13,3.38,2.43,2.43,0,0,0,.37,1.55,4.87,4.87,0,0,0,1.25,1.28,13.08,13.08,0,0,0,3.63,1.79,31,31,0,0,0,4.27,1,9.58,9.58,0,0,1-4.61.51,9.46,9.46,0,0,1-4.49-1.72,5.77,5.77,0,0,1-1.72-2,3.18,3.18,0,0,1-.25-.67,2.94,2.94,0,0,1-.13-.73,3.45,3.45,0,0,1,.17-1.37A4.59,4.59,0,0,1,688.81,83.42Z"/><path class="ac1715de-2621-4cbf-b60e-055db5b3b0ce" d="M725.06,119s-11.44-1.17-16.25-3.32c-1.3-.58-6.77-13-6.77-13a111.07,111.07,0,0,0,9.12,8.41c2.73,2.07,10.34,6,13.68,6"/><path class="a39b80f1-e3f9-49b1-9eaf-93fd5715b0e6" d="M672.24,98.91l12.82,1.6s-8.57-11.9-6.61-19.54,12.88-6.79,17.45-.28c2,3.13,1.91,4.2,1.91,4.2L702,83.2s-2.36-11.33-4.08-15.09,7-5.62,9.52-15.59c0,0,10,6,16.61,3.11,0-.42-7.3-.21-10.57-3.19,6-.51,11.3,1.73,15.73-.38s9.34-1.4,12.5,3.52c-1.61-13-9-29.58-29-30.53a28.11,28.11,0,0,1,18.53,3.45c-10.29-8.14-36.22-13.95-54.35-5.75s-20.66,22-20.66,22a19.37,19.37,0,0,1,3-14.68c-.22,0-8.68,8.54-5.35,18-2.19.52-10.17.91-10.17.91s8.77.94,9.49,3.35S649.09,75,664.49,87.69C670.74,94.94,672.24,98.91,672.24,98.91Z"/><path class="ab3e8556-e696-4dc4-91ee-ad27ef446aa4" d="M667.32,312.58a72.6,72.6,0,0,0,.24-7.66c-.13-7.21-2.35-14.46-2.32-21.59,0-5.89,1.48-12.08,1.75-18.09q.54-11.6.8-23.2c.78-35.7-3.88-99.34-3.88-99.34l2.72-7.76s8.92-8.54,30.66-6.21,26.77,15.91,30.26,18.62S747,173,752.78,181.12s1.94,27.55-1.55,37.64,0,25.61-5.44,42.69c-3,9.33-2.3,18.74-.93,28.13,1,6.94.94,14,.8,21-.07,3.6-.2,7.21-.18,10.81,0,1,.08,8,.7,8.29-1.85-1-5.38-.33-7.46-.52a75.91,75.91,0,0,1-8-1.08c-5.21-1-10.28-2.69-15.51-3.52-6.35-1-12.81-.75-19.23-.5l-15.26.62c-5.62.22-11.33.47-16.68,2.22A51.06,51.06,0,0,0,667.32,312.58Z"/><path class="e3c2577e-c2ba-46da-8edd-34f32b62e77c" d="M847.74,535H823.29l-29.1,181.61L632.37,719l-4.66,200.24,20.95-2.33,1.09-40.74H803l1.7,43.07L828,918.05l-9.31-201.41ZM650.31,855.18l3-112.92H797.68l4.46,112.92Z"/><path class="fffe1c4f-a48e-450b-b3d7-0f4c02cf923f" d="M659.26,148.52s8.14-11.64,16.68-14.75,36.09-5,50.45,19.41,3.88,58.21-12.81,66.35c.78,12-12,39.2-11.25,45.8s1.94,31.43,1.55,51.22,7,54.72,13.2,64.81S725.61,394.94,726,400s-.39,18.24-.39,18.24-5.82,6.21-11.25,2.72c-1.55,1.94-7.37,3.88-14.75,1.16-2.32,1.94-8.53-1.55-10.09-3.49-1.94,3.11-7,.39-7.76-1.94,1.56-7.76,5-8.54,3.11-15.91A206.24,206.24,0,0,1,689.52,374s-27.16-66.74-27.94-82.27-3.1-7.76-1.94-34.92-8.53-29.49-9.7-45.79S643.73,169.86,659.26,148.52Z"/><line class="fffe1c4f-a48e-450b-b3d7-0f4c02cf923f" x1="693.02" y1="411.63" x2="689.52" y2="418.61"/><line class="fffe1c4f-a48e-450b-b3d7-0f4c02cf923f" x1="703.11" y1="414.34" x2="699.61" y2="422.1"/><line class="fffe1c4f-a48e-450b-b3d7-0f4c02cf923f" x1="712.81" y1="413.95" x2="712.42" y2="420.55"/><path class="ac1715de-2621-4cbf-b60e-055db5b3b0ce" d="M733.14,178.32c-.72-2-1.54-4-2.48-6.13,3.1,24.84-14.36,40-14.36,40L712.42,197l3.1-10.87-7,8.54s0,1.16,1.55,19-11.25,41.91-11.25,41.91l-3.49-5c1.94,17.07,3.1,29.49,5.43,67.52,1.39,22.76,6.12,37.17,9.69,45.09-3.83-14.66-6.84-33.82-6.59-46.64.39-19.79-.77-44.63-1.55-51.22s12-33.77,11.25-45.8C724.94,214,733.41,196.58,733.14,178.32Z"/><polygon class="a238d407-83c1-44a9-86d5-9e0336160a9a" points="135.53 803.69 135.53 803.69 135.53 803.69 135.53 803.69"/><path class="a238d407-83c1-44a9-86d5-9e0336160a9a" d="M334.6,631h0l-.18,0Z"/><path class="fe6b5d45-ea5b-4caa-8dd0-18ffe8fe296a" d="M652.12,711.06c-.63,8,7.89,7.3,18.11,9.58,10.6,2.36,24.35.65,35.76,1.31s63.87,3.79,61.88-7.32a23,23,0,0,0-.83-3.28c-9,5.16-28.43,5.68-64.33,5C673.1,715.75,658.74,713,652.12,711.06Z"/><path class="a0c73a0b-1ddc-4be6-aabe-a11c7de9f60d" d="M465.19,337.21a80.56,80.56,0,0,1,8.51,4.6c2.73,1.66,5.37,3.42,7.95,5.23s5.11,3.72,7.58,5.67,4.88,4,7.26,6l3.78,3.26-3.73,3.31L493,368.48l-3.66,3.07c-2.48,2-5,4-7.58,5.88s-5.23,3.71-8,5.44a81.48,81.48,0,0,1-8.56,4.78,81.45,81.45,0,0,1,5.65-8c2-2.55,4.09-5,6.23-7.37s4.37-4.67,6.62-6.93l3.44-3.32,3.52-3.24.05,6.57c-2.35-2.08-4.68-4.2-6.94-6.39s-4.47-4.43-6.63-6.75-4.24-4.7-6.24-7.18A83.78,83.78,0,0,1,465.19,337.21Z"/></svg>