<svg id="e8782e90-bb32-4cf5-963d-7fbb56ec2d73" data-name="Layer 1" xmlns="http://www.w3.org/2000/svg" viewBox="0 0 938 938"><defs><style>.a73389ba-a41e-4652-9a11-c71f6f50dd1f,.fe026f72-c366-41d9-9bc8-5b665cd3e87b{fill:#fcc7b4;}.fe026f72-c366-41d9-9bc8-5b665cd3e87b{stroke:#a67167;stroke-width:0.5px;}.bc123a6a-ebe9-47c3-921b-6c06428405ed,.fe026f72-c366-41d9-9bc8-5b665cd3e87b{stroke-miterlimit:10;}.a0f0cf32-155b-4b6c-81ef-43b3b182c1e0{fill:#e59c95;}.ba22fdf1-9da7-4669-b1c6-8586492767ce{fill:#7cafc4;}.f7694b9e-b31d-4230-937c-c16bf6c857b2{fill:#848689;}.bc123a6a-ebe9-47c3-921b-6c06428405ed{fill:#4d4d4f;stroke:#808285;}.e6867844-1488-499e-9f9e-56f219808156{fill:#ededed;}.eef86dc7-dbf8-45cf-ae47-f7379ac7619f{fill:#a67167;}.f944e9e6-d993-40e8-a6e6-af7be9b7b39a{fill:#6b3d35;}.b0e42c5e-0bb7-444c-95b2-205a8d0adfe2{fill:#ef9d0c;}.a84c6f1a-fe6d-49a9-83e1-65d997e22403{fill:#0e7987;}.edb23745-ce0b-487d-8e70-ed199bc7c6e6{fill:#fff;}</style></defs><path class="fe026f72-c366-41d9-9bc8-5b665cd3e87b" d="M621.57,698.8s-13.51-3.89-23.42-6.35-15.92-4.06-22.45,0-23,19.19-30.79,24.93-41,30.28-50.11,34.19a50.73,50.73,0,0,1-16.44,4.18l5.48,22.18s41.23-20.09,47.23-21.4,36.8-16.47,40.72-26.11c25.31,4.45,65.73,14.89,65.73,14.89Z"/><path class="fe026f72-c366-41d9-9bc8-5b665cd3e87b" d="M628.42,705.64s-28.45-6.89-36-8-18.27-2.87-26.1,4-9.66,11.58-9.66,11.58S523.77,733.57,517,743.48C510.72,750,480.65,765,480.65,765l-5.95,17.86,1.31,7.57s29.23-15.92,41-20.36,52.46-12.78,62.38-33.92c24.53,10.7,38.88,19.31,38.88,19.31Z"/><path class="a0f0cf32-155b-4b6c-81ef-43b3b182c1e0" d="M619.44,749.65c-5.76-2.32-33.89-13.71-41.22-18-8.86,19.35-37.46,30.75-50.22,35,16.83-5.12,43.57-13.84,51.36-30.42,15.29,6.66,26.62,12.52,33,16l6.94-1.8Z"/><path class="ba22fdf1-9da7-4669-b1c6-8586492767ce" d="M621.64,697.63s-4.15,18.28-15.2,59.6c36.88,25.07,54.51,34,68.88,35.72s49.89,3.2,64.26-55c-29-8.14-59-20.56-59-20.56S640.89,700.15,621.64,697.63Z"/><path class="f7694b9e-b31d-4230-937c-c16bf6c857b2" d="M469.89,798.58c-5.4,3.24-7.66-2.46-12.53-8.2-5.05-6-8.25-15.39-12.36-22.47s-23.09-39.62-14.63-42.3A18.85,18.85,0,0,1,433,725c-.76,7.6,5.08,20.26,17.06,43C459.89,786.79,466.39,795,469.89,798.58Z"/><path class="bc123a6a-ebe9-47c3-921b-6c06428405ed" d="M445.55,731.4c4.39,4.15,9.69,6,18.9,12.16s13.85,2.16,18.52,3.37,2,7.88-1.9,19,11.16,10.42,12.59,13.68-9.88,8.7-9.88,8.7-7.4,5.83-13.26,9.9c-.22.15-.42.28-.63.4-3.5-3.55-10-11.79-19.88-30.57-12-22.77-17.82-35.43-17.06-43C439.37,723.88,441.64,727.71,445.55,731.4Z"/><path class="f7694b9e-b31d-4230-937c-c16bf6c857b2" d="M469.89,805.41c-5.4,3.23-7.66-2.46-12.53-8.21-5.05-6-8.25-15.38-12.36-22.46s-23.09-39.62-14.63-42.3a19,19,0,0,1,2.58-.64c-.76,7.6,5.08,20.26,17.06,43C459.89,793.62,466.39,801.86,469.89,805.41Z"/><path class="bc123a6a-ebe9-47c3-921b-6c06428405ed" d="M445.55,738.23c4.39,4.15,9.69,5.95,18.9,12.15s13.85,2.17,18.52,3.38,2,7.88-1.9,19,11.16,10.42,12.59,13.68-9.88,8.7-9.88,8.7-7.4,5.82-13.26,9.9l-.63.4c-3.5-3.55-10-11.79-19.88-30.57-12-22.78-17.82-35.44-17.06-43C439.37,730.71,441.64,734.54,445.55,738.23Z"/><path class="fe026f72-c366-41d9-9bc8-5b665cd3e87b" d="M687,580.83s9.49-9.43,21.72-5.82c7.22-2.5,18.33-7.5,34.16-7.22s26.38,2.49,29.16,4.44,3.06,3.62,2.78,7.23-12,80.95-12,80.95-11-.13-14.24.43c.08,1.66-1.59,8-1.59,8a11.08,11.08,0,0,1-3.33-9.44c.84-5.83,1.11-9.72,1.11-9.72l5.84-.84,1.94-21.66-64.16-8.89Z"/><polygon class="e6867844-1488-499e-9f9e-56f219808156" points="766.12 691.26 747.52 675.53 747.29 663.79 762.88 660.41 881.56 660.41 881.56 692.56 766.12 691.26"/><path class="e6867844-1488-499e-9f9e-56f219808156" d="M914.2,553.78H896.7l-20.83,130-115.82,1.67-3.34,143.32,15-1.67.78-29.16H882.15l1.22,30.83,16.66-.84-6.67-144.15ZM772.89,782.92,775,702.09H878.37l3.19,80.83Z"/><path class="fe026f72-c366-41d9-9bc8-5b665cd3e87b" d="M704,586.29c-1.1-2.39-11.09-11.91-12.46-14.26-2.36-4.06-5.32-9.42-5.1-14.29.21-4.59,1.43-9.1,1.41-13.7-.06-11.76-9.49-22.91-21.15-24.46a30.17,30.17,0,0,0-16.94,3.17,35.08,35.08,0,0,0-16.68,16.38c-3.34,7.21-3.64,15.93-.14,23.06a12.08,12.08,0,0,1,1.29,3.17c.33,1.83-.4,3.66-1.06,5.4s-1.27,3.65-.72,5.43,2.8,3.11,4.34,2.06l5.14,11.32c1.44,3.16,3.22,6.64,6.52,7.72,2.79.91,5.74-.21,8.41-1.56l1-.51,3.52-1.91c2.28,3.35,4.37,6.77,6.52,10.17,2.55,4,7.52,10,8.18,14.86"/><path class="a73389ba-a41e-4652-9a11-c71f6f50dd1f" d="M669.36,556.84s2.78-2.89,5.1-2.6,5.74,5.31,4.27,9.43-6.65,9.45-9.72,5.8"/><path class="eef86dc7-dbf8-45cf-ae47-f7379ac7619f" d="M669.36,556.84a9.33,9.33,0,0,1,2.91-2.67,4.59,4.59,0,0,1,2.1-.59,3.82,3.82,0,0,1,2.15.83,8.86,8.86,0,0,1,2.63,3.28,9,9,0,0,1,.92,4.14,7.39,7.39,0,0,1-.42,2.17,11.9,11.9,0,0,1-.89,1.87,13.53,13.53,0,0,1-2.58,3.15,8.08,8.08,0,0,1-3.6,2,3.52,3.52,0,0,1-2.1-.21,3,3,0,0,1-.86-.56,6.44,6.44,0,0,1-.61-.77,3.07,3.07,0,0,0,3.31.59,8.11,8.11,0,0,0,2.76-2.14,14.83,14.83,0,0,0,2-3,11.85,11.85,0,0,0,.71-1.6,5.35,5.35,0,0,0,.26-1.59,7.35,7.35,0,0,0-.64-3.29,8.19,8.19,0,0,0-1.88-2.85,2.71,2.71,0,0,0-1.27-.74,3.33,3.33,0,0,0-1.62.19A12.61,12.61,0,0,0,669.36,556.84Z"/><path class="a73389ba-a41e-4652-9a11-c71f6f50dd1f" d="M672.23,559.49s2.38-.22,3.27,1.58-1.26,5.12-4.84,6.62"/><path class="eef86dc7-dbf8-45cf-ae47-f7379ac7619f" d="M672.23,559.49a3.24,3.24,0,0,1,3.5.52,2.78,2.78,0,0,1,.63.86,2.67,2.67,0,0,1,.28,1.1,4.32,4.32,0,0,1-.41,2,6.7,6.7,0,0,1-2.35,2.66,6.21,6.21,0,0,1-3.22,1.09c.81-.8,1.55-1.52,2.18-2.27a10.91,10.91,0,0,0,1.57-2.32,3.58,3.58,0,0,0,.34-1.11,1.36,1.36,0,0,0,0-.46,1.31,1.31,0,0,0-.19-.49A4,4,0,0,0,672.23,559.49Z"/><path class="a0f0cf32-155b-4b6c-81ef-43b3b182c1e0" d="M661.58,594.26s6.8-4.64,9.08-7.64c.62-.81-.18-10.49-.18-10.49a79.73,79.73,0,0,1-2.86,8.41c-1,2.23-4.44,7.32-6.54,8.47"/><path class="f944e9e6-d993-40e8-a6e6-af7be9b7b39a" d="M687.94,563.57,680.42,569s1.32-10.42-2.51-14.55-10.42.13-11.08,5.78c-.17,2.64.24,3.3.24,3.3l-3.22.36s-2.38-7.93-2.59-10.88-6.32-1.15-11.31-6.56c0,0-4.24,7.16-9.38,7.63-.16-.26,4.52-2.62,5.56-5.62-4,1.75-6.52,5-10,5.14a6.61,6.61,0,0,0-6.66,6.48c-3.42-8.73-4.41-21.7,7.83-29.11a20.07,20.07,0,0,0-10.48,8.49c3.69-8.63,18-21.14,32.22-22.17s20.53,6.82,20.53,6.82a13.89,13.89,0,0,0-6.91-8.21c.13-.08,8.38,2.41,9.51,9.49,1.55-.42,6.71-2.9,6.71-2.9S683.66,526,684,527.8s10.3,12.8,5,26.07C687.52,560.57,687.94,563.57,687.94,563.57Z"/><path class="b0e42c5e-0bb7-444c-95b2-205a8d0adfe2" d="M679.69,659.08c-4.53-7.28-19.45-31.2-9.29-55.82,9-15.71,22-36.15,55.28-23.7,14.84,11.44,31.43,33.91,31,80.85-.1,12.55-.51,27.28-3.74,39.35-2.07,7.7-3.8,15.64-6,23.2-2.46,8.53-6.58,16.91-9.8,25.2a26.23,26.23,0,0,0-17.53-13.5c-6.24-1.35-12.77-.36-19.09-1.27a32.7,32.7,0,0,1-20.86-12.32c-2.51-3.23-3.76-5.42-3-9.31.82-4.25.63-7.53.58-11.9C677.14,686.62,687.55,671.67,679.69,659.08Z"/><path class="fe026f72-c366-41d9-9bc8-5b665cd3e87b" d="M722.45,585.19c-5.54-3.06-16.35-2.34-22.45-.55-7.2,2.1-26.49,14.29-24.1,37.59,1.84,17.79,15,28.73,32.9,29.25,15.85.46,32.36-2.62,33.06-21.35C742.46,614,736.57,593,722.45,585.19Z"/><path class="fe026f72-c366-41d9-9bc8-5b665cd3e87b" d="M694.63,599.82c8.61-17.77,26.39-15,40-14.72,11.94-8.05,28-6.11,35.83-5s36.38,3.33,39.16,6.39,3,12.22-1.11,32.22-20.09,56.2-20.09,56.2a14.18,14.18,0,0,1,0,15.92c-5.56,4.81-8.52,6.3-8.52,6.3s-4.07,11.48-13.33,11.48h-7s-8.14-10.74-8.89-14.82,0-11.85,0-11.85l20-10s8.19-24.9,7.63-35.46-1.94-25.27-1.94-25.27-19.16,15.55-43,15.83c-9.72,1.11-15,11.11-15,11.11"/><path class="a0f0cf32-155b-4b6c-81ef-43b3b182c1e0" d="M781.2,603.86c-25.93,23.33-45.55,14.44-50.25,17s-11.16,14.86-11.16,14.86h0c2.22-3,6.79-8,13.45-8.72,23.89-.28,43-15.83,43-15.83s1.39,14.72,1.94,25.27c.31,5.81-2,16-4.2,23.93h0C781.44,646.88,781.94,617.19,781.2,603.86Z"/><path class="a84c6f1a-fe6d-49a9-83e1-65d997e22403" d="M607.44,753.46c-.33,1.23-.66,2.49-1,3.77,36.88,25.07,54.51,34,68.88,35.72,12.53,1.54,41.2,2.82,57.84-35.6-14.33,27.91-47.89,36.17-65.95,29.08S607.44,753.46,607.44,753.46Z"/><polygon class="e6867844-1488-499e-9f9e-56f219808156" points="353.3 396.84 334.71 381.11 334.48 369.36 350.06 365.99 468.74 365.99 468.74 398.14 353.3 396.84"/><path class="e6867844-1488-499e-9f9e-56f219808156" d="M501.38,259.35h-17.5l-20.83,130L347.23,391,343.9,534.32l15-1.66.78-29.17H469.33l1.22,30.83,16.66-.83-6.66-144.15ZM360.07,488.5l2.16-80.83H465.55l3.19,80.83Z"/><path class="fe026f72-c366-41d9-9bc8-5b665cd3e87b" d="M337.63,305.61s10,42.59,10.37,50c-3.34,2.6-14.44,8.52-15.93,8.89s-4.07,9.63-4.07,9.63,6.3,12.59,10,13.7a85.21,85.21,0,0,0,0-14.44s13.3-2.45,19.24-4.44,4.9-10,4.9-10,.2-47.08.07-48.19,0-31.47,0-31.47l-10.18-10.74Z"/><path class="a73389ba-a41e-4652-9a11-c71f6f50dd1f" d="M115.2,473.68c20.56-19.77,43.2-43.14,48.45-47.68s8.2-20.84,19.27-29.8c11.71-9.47,20.81-22.79,30.4-34.72l29.84,38.33c-11.12,9.35-22.24,20.29-41.74,31.31-16.68,18.41-15.33,31.67-28.61,40.07C162,478,142.34,487,127.73,496c-.57-.65-1.15-1.34-1.74-2.06.59.72,1.17,1.41,1.74,2.06-3.37,2.07-6.48,4.13-9.14,6.16C104.41,513,81.17,528.24,81.17,528.24l-13.33-31s26-3.71,46.41-22.7C114.57,474.27,114.89,474,115.2,473.68Z"/><path class="a0f0cf32-155b-4b6c-81ef-43b3b182c1e0" d="M124.62,498l3-2,.07.08c-1.07.66-2.1,1.31-3.11,2Z"/><path class="a0f0cf32-155b-4b6c-81ef-43b3b182c1e0" d="M201.42,431.12c-16.68,18.41-15.33,31.67-28.61,40.07C162,478,142.34,487,127.73,496l-.07-.08C135,491,153.6,478.58,161,474.07c9.33-5.67,27.85-30.59,33.48-41.74l46.36-35.49,2.31,3C232,409.16,220.92,420.1,201.42,431.12Z"/><path class="f7694b9e-b31d-4230-937c-c16bf6c857b2" d="M79.94,536.17c-4.37,3.94-7.87-1.42-13.85-6.48C59.88,524.44,54.61,515.49,49,509s-31.31-36.3-23.9-40.09a16.47,16.47,0,0,1,2.3-1c1.07,7.66,9.62,19.46,26.38,40.5C67.64,525.79,75.77,533.11,79.94,536.17Z"/><path class="bc123a6a-ebe9-47c3-921b-6c06428405ed" d="M40.92,472.64c5.16,3.54,10.62,4.63,20.83,9.57s13.68.31,18.41.89,3.81,7.56,2.68,19.11S95.9,511.08,98,514.13s-7.34,10-7.34,10-5.65,6.77-10.26,11.6c-.17.18-.34.33-.5.48-4.17-3.06-12.3-10.38-26.13-27.74-16.76-21-25.31-32.84-26.38-40.5C33.27,466,36.34,469.5,40.92,472.64Z"/><path class="ba22fdf1-9da7-4669-b1c6-8586492767ce" d="M218.37,355.43c7.58-8.67,15.32-17.26,24-24.88,4.06-3.58,8.73-5.95,12.9-9.44,2.93-2.45,5.69-5.1,8.58-7.61,1.52-1.32,3.08-2.6,4.72-3.79a2.72,2.72,0,0,1,.94-.52,2.82,2.82,0,0,1,1.19.06c5.3,1,9.28.78,12.52,5.49,4.18,6.06,11.49,2.46,16.48,7.8,1.27,1.37,19.5,16.17,20,15.18-6.8,13-21.67,55.58-56,53.09a110.83,110.83,0,0,0-18.17,12.89l-32.21-42.22C215,359.41,216.66,357.38,218.37,355.43Z"/><path class="fe026f72-c366-41d9-9bc8-5b665cd3e87b" d="M357.49,193.74c.11-2.62-4.41-15.66-4.55-18.38-.25-4.68-.42-10.81,2-15,2.29-4,5.44-7.45,7.52-11.54,5.33-10.49,2.05-24.72-7.61-31.43a30.24,30.24,0,0,0-16.51-4.93A35.06,35.06,0,0,0,316,119.36c-6.27,4.88-10.52,12.5-10.67,20.44a12.5,12.5,0,0,1-.3,3.41c-.55,1.78-2,3.08-3.42,4.32s-2.8,2.66-3.13,4.49,1.07,4,2.92,3.82l-.61,12.42c-.17,3.47-.18,7.38,2.26,9.84,2.07,2.09,5.2,2.44,8.19,2.47h1.11l4-.09c.5,4,.79,8,1.15,12,.42,4.75,2.09,12.38.47,16.95"/><path class="a73389ba-a41e-4652-9a11-c71f6f50dd1f" d="M340.18,151.71s3.79-1.29,5.72,0,2.68,7.34-.52,10.34-10.23,5.35-11.3.71"/><path class="eef86dc7-dbf8-45cf-ae47-f7379ac7619f" d="M340.18,151.71a9.39,9.39,0,0,1,3.8-1,4.5,4.5,0,0,1,2.14.44,3.78,3.78,0,0,1,1.54,1.72,8.85,8.85,0,0,1,.83,4.12,9,9,0,0,1-1.07,4.1,7.41,7.41,0,0,1-1.37,1.74A12.14,12.14,0,0,1,344.4,164a13.78,13.78,0,0,1-3.73,1.63,8.05,8.05,0,0,1-4.11.11,3.39,3.39,0,0,1-1.77-1.14,2.94,2.94,0,0,1-.51-.89,5.66,5.66,0,0,1-.2-1,3.09,3.09,0,0,0,2.68,2,8.1,8.1,0,0,0,3.43-.64,15.29,15.29,0,0,0,3.16-1.71,14.83,14.83,0,0,0,1.36-1.1,5.61,5.61,0,0,0,1-1.3,7.45,7.45,0,0,0,.94-3.22,8.2,8.2,0,0,0-.38-3.39,2.64,2.64,0,0,0-.79-1.24,3.38,3.38,0,0,0-1.52-.57A12.72,12.72,0,0,0,340.18,151.71Z"/><path class="a73389ba-a41e-4652-9a11-c71f6f50dd1f" d="M341.51,155.38s2.22.9,2.19,2.9-3.46,4-7.33,3.67"/><path class="eef86dc7-dbf8-45cf-ae47-f7379ac7619f" d="M341.51,155.38a3.23,3.23,0,0,1,2.88,2.07,2.79,2.79,0,0,1,.17,1.05,2.7,2.7,0,0,1-.26,1.11,4.26,4.26,0,0,1-1.27,1.55,6.56,6.56,0,0,1-3.31,1.3,6.18,6.18,0,0,1-3.35-.51c1.09-.34,2.06-.63,3-1a10.6,10.6,0,0,0,2.45-1.34,3.53,3.53,0,0,0,.81-.84,1.4,1.4,0,0,0,.2-.41,1.44,1.44,0,0,0,.05-.52A4,4,0,0,0,341.51,155.38Z"/><path class="a0f0cf32-155b-4b6c-81ef-43b3b182c1e0" d="M316.13,181.43s8.17-1,11.58-2.64c.92-.44,4.64-9.41,4.64-9.41a80.08,80.08,0,0,1-6.39,6.17c-1.92,1.52-7.31,4.48-9.7,4.54"/><path class="f944e9e6-d993-40e8-a6e6-af7be9b7b39a" d="M353.62,166.2l-9.16,1.35s5.94-8.66,4.43-14.09-9.33-4.65-12.5.08c-1.36,2.27-1.29,3-1.29,3l-3-1.14s1.51-8.15,2.68-10.87-5.1-3.91-7.06-11c0,0-7.05,4.42-11.84,2.49,0-.3,5.23-.26,7.52-2.45-4.34-.27-8.06,1.42-11.26,0a6.59,6.59,0,0,0-8.89,2.72c.95-9.34,6-21.32,20.28-22.31a20.09,20.09,0,0,0-13.21,2.76c7.24-6,25.7-10.56,38.8-5s15.13,15.45,15.13,15.45a13.9,13.9,0,0,0-2.38-10.46c.15,0,6.34,6,4.11,12.79,1.57.34,7.29.49,7.29.49s-6.26.81-6.74,2.55,3.3,16.09-7.52,25.45C354.62,163.34,353.62,166.2,353.62,166.2Z"/><path class="b0e42c5e-0bb7-444c-95b2-205a8d0adfe2" d="M329.68,328.87c2.17-4,3.85-8.21,6-12.22,4.17-7.95,9.9-14.9,15-22.24,5.28-7.58,8.21-16,12.81-23.81,5.62-9.6,6.89-22.76,8.84-33.66a69,69,0,0,0,1.47-14.87,37.87,37.87,0,0,0-11.61-25.39c-7.77-7.49-15.21-10.14-26-8.75-15.51,2-18.91,11.81-21.36,13.81-4,3.23-6.85,8.88-9.71,13-3.56,5.19-10.42,12.46-10.79,18.91-.18,3.16,1.33,6.25,1,9.4-.27,2.7-1.84,5.07-3.26,7.38-3.79,6.12-6.67,12.64-7,19.9-.3,6.45-3,12-6.17,17.62a82,82,0,0,0-5.76,13c-1.32,3.62-3.87,5.91-5.76,9.2a9.91,9.91,0,0,1-1.77,2.71c2.16-1.93,9.6,4.94,11.3,6,4.36,2.75,8.7,5.54,12.91,8.52,8.34,5.9,16.25,12.58,22.42,20.78A56.12,56.12,0,0,0,329.61,329Z"/><path class="fe026f72-c366-41d9-9bc8-5b665cd3e87b" d="M330.65,249.57s-15.24-5.81-17.09-21,13.27-34.78,30.14-34.07S374.79,206,373.24,231,330.65,249.57,330.65,249.57Z"/><path class="fe026f72-c366-41d9-9bc8-5b665cd3e87b" d="M328,238.21s2.59,8.52,3,14.07c5.56,26.29,11.48,29.63,21.48,40-.74,5.55,2.59,24.81,4.82,34.44s8.1,57.4,8.1,57.4l-19.95,10s-.75,7.77,0,11.85,8.88,14.81,8.88,14.81h7c9.26,0,13.33-11.48,13.33-11.48s3-1.48,8.52-6.29a14.19,14.19,0,0,0,0-15.93c-.9-15.16.93-30.76.26-46-1.05-24-3.45-48-4.61-72-.69-14.39-1.32-31.68-8.61-44.53,3-5.56,2.82-18.6-19.4-28.23"/><path class="a0f0cf32-155b-4b6c-81ef-43b3b182c1e0" d="M357.26,326.72c1.67,7.24,5.41,36,7.16,49.88l-7.6-85.06a114.12,114.12,0,0,0-12.92-17.78c-8.11-9.18-14-28.42-14.13-28.77a49.29,49.29,0,0,1,1.19,7.29c5.56,26.29,11.48,29.63,21.48,40C351.7,297.83,355,317.09,357.26,326.72Z"/><path class="edb23745-ce0b-487d-8e70-ed199bc7c6e6" d="M545.38,470.44a60,60,0,0,1,6.09,3.29c1.95,1.19,3.84,2.45,5.7,3.75s3.65,2.66,5.42,4.06,3.49,2.84,5.19,4.31l2.71,2.34-2.67,2.36-2.56,2.27-2.63,2.2c-1.77,1.44-3.56,2.86-5.42,4.21s-3.74,2.66-5.7,3.89a59.63,59.63,0,0,1-6.13,3.43,59.5,59.5,0,0,1,4-5.74c1.43-1.82,2.93-3.57,4.46-5.27s3.13-3.34,4.75-5l2.46-2.38,2.52-2.32,0,4.71c-1.68-1.5-3.35-3-5-4.58s-3.2-3.17-4.74-4.83-3-3.36-4.47-5.14A59.5,59.5,0,0,1,545.38,470.44Z"/></svg>