<svg id="b7ad6d9a-54fb-4d58-915f-d4d778d63d6a" data-name="Layer 1" xmlns="http://www.w3.org/2000/svg" viewBox="0 0 938 938"><defs><style>.e605f63f-a00d-41d5-a623-913028de03ba,.f2189e64-dc37-4322-9dff-c6b3a62b42f8{fill:#fcc7b4;}.b1869be9-073f-40ff-8e59-faf9a3b960a1{fill:#e59c95;}.b3450987-dd9b-46d8-b248-9113ed09178d{fill:#7cafc4;}.e605f63f-a00d-41d5-a623-913028de03ba{stroke:#a67167;stroke-width:0.5px;}.bea9ae8c-0358-4312-b269-b7cda2886879,.e605f63f-a00d-41d5-a623-913028de03ba{stroke-miterlimit:10;}.ab3f402c-7b31-4049-b8b7-ecd4e87256a2{fill:#a67167;}.b6d6caf4-1f4b-4df4-a5f3-9a9805ff98b0{fill:#6b3d35;}.b6a41164-9e88-44b1-85b5-59d641182332{fill:#ef9d0c;}.b843c550-7af4-43e3-a3f2-a262f7bf8964{fill:#848689;}.bea9ae8c-0358-4312-b269-b7cda2886879{fill:#4d4d4f;stroke:#808285;}.b81caf56-96b2-4a85-b245-d344723699b6{fill:#0e7987;}</style></defs><path class="f2189e64-dc37-4322-9dff-c6b3a62b42f8" d="M629.26,548.05c-11.33-17.63-35.4-19.63-54-23-25.76-4.67-51.67-8.74-77.66-12L448.39,616.74,444,636c0,3,118.45-21.67,123.85-22.82-3.71,1.94-5.22,6.35-6.52,10.32-8.79,26.78-16.85,54.69-13,83.16,3.88,28.91,13.35,56.24,10.92,85.87-.57,7-6.67,82-14.84,83.23l63.4-9.83s-1.77-60.83.45-109c.51-11.06,1.23-21.46,2.23-30.29,5.36-47.33,22.32-95.55,23.22-120.56S637.3,560.55,629.26,548.05Z"/><path class="b1869be9-073f-40ff-8e59-faf9a3b960a1" d="M565.7,796.13c-6.79-48.52-3.89-132,0-151.39S589,584.57,589,584.57s-9.7,12.62-18,16.5c-6.16,2.87-101.2,19.09-124.33,23.59L444,636c0,3,118.45-21.67,123.85-22.82-3.71,1.94-5.22,6.35-6.52,10.32-8.79,26.78-16.85,54.69-13,83.16,3.41,25.37,11.11,49.53,11.31,75.09C561.6,786.55,563.61,791.35,565.7,796.13Z"/><path class="b3450987-dd9b-46d8-b248-9113ed09178d" d="M448,649.39l49.53-136.32q-8.44-1.05-16.9-2c-19.05-2.15-38.12-4.17-57.14-6.55-7.29-.92-17-4.23-24.19-3.56-6.84.64-11.8,7.09-18.39,9.24a47,47,0,0,1-11.82,1.71c-36.51,2.16-63-1.19-96.16-18.26-1.22-.63-20.51,33.77-21.92,36.65-8,16.49-13.36,34.39-12.46,52.89,1.51,30.93,17.28,57.94,49.07,64.55,17.6,3.66,35.45-1.3,53.16-1,38.9.55,81.42,4.54,107.22,2.69"/><path class="e605f63f-a00d-41d5-a623-913028de03ba" d="M270.89,218.12c-.4-6.09,9.43-36.58,9.62-42.9.33-10.88.41-25.1-5.43-34.78-5.5-9.13-13-17-18-26.4C244.14,90,251,56.79,273.11,40.72c10.93-8,24.55-11.66,38.05-12.29,18.43-.87,37.37,3.93,52.17,14.94s25.07,28.46,25.82,46.9c.11,2.65,0,5.37.88,7.89,1.35,4.1,4.87,7,8.15,9.85s6.64,6,7.49,10.27-2.27,9.44-6.57,9l2,28.79c.57,8,.79,17.11-4.75,23-4.68,4.94-11.94,5.93-18.88,6.13-.86,0-1.72,0-2.56.05h-9.3c-.95,9.37-1.43,18.65-2,28-.73,11-4.22,28.82-.23,39.37"/><path class="f2189e64-dc37-4322-9dff-c6b3a62b42f8" d="M308.91,119.68s-8.86-2.81-13.29.36-5.82,17.17,1.74,24,24,11.91,26.27,1.06"/><path class="ab3f402c-7b31-4049-b8b7-ecd4e87256a2" d="M308.91,119.68a26.47,26.47,0,0,0-8.75-.59,8.84,8.84,0,0,0-3.91,1.33,6.79,6.79,0,0,0-2.26,3.25,19.55,19.55,0,0,0-1,8.37,18.51,18.51,0,0,0,2.44,8,13.36,13.36,0,0,0,1.17,1.72c.42.55.94,1,1.4,1.52a25.6,25.6,0,0,0,3.42,2.59,33.31,33.31,0,0,0,7.79,3.75,18.1,18.1,0,0,0,8.45,1,7.22,7.22,0,0,0,3.79-1.76,8.34,8.34,0,0,0,2.16-3.75,7.75,7.75,0,0,1-1.78,4.12,8,8,0,0,1-4,2.35,18,18,0,0,1-9.11-.42,32.19,32.19,0,0,1-8.36-3.64,27.14,27.14,0,0,1-3.7-2.73c-.55-.58-1.15-1.11-1.64-1.73a15.38,15.38,0,0,1-1.35-2,20.08,20.08,0,0,1-2.61-8.89,22.43,22.43,0,0,1,0-2.32,19.64,19.64,0,0,1,.2-2.3,16.6,16.6,0,0,1,1.25-4.49,8,8,0,0,1,3-3.75,9.87,9.87,0,0,1,4.53-1.21,21.14,21.14,0,0,1,4.51.38A25.31,25.31,0,0,1,308.91,119.68Z"/><path class="f2189e64-dc37-4322-9dff-c6b3a62b42f8" d="M306,128.27s-5.11,2.2-4.93,6.85,8.24,9,17.21,8.14"/><path class="ab3f402c-7b31-4049-b8b7-ecd4e87256a2" d="M306,128.27c-2,1.42-3.71,3.36-4,5.5a5.15,5.15,0,0,0,0,1.57,2.35,2.35,0,0,0,.2.72,2.67,2.67,0,0,0,.33.68,8,8,0,0,0,2.23,2.37,19.89,19.89,0,0,0,6.33,3,35.85,35.85,0,0,0,7.2,1.19,18.21,18.21,0,0,1-7.54.33,16.46,16.46,0,0,1-7.18-2.88,9.27,9.27,0,0,1-2.7-3.08,4.18,4.18,0,0,1-.4-1,3.9,3.9,0,0,1-.21-1.09,5.66,5.66,0,0,1,.2-2.1,7,7,0,0,1,2.19-3.37A9.07,9.07,0,0,1,306,128.27Z"/><path class="b1869be9-073f-40ff-8e59-faf9a3b960a1" d="M366.23,187.42s-19-1.95-27-5.52c-2.17-1-11.26-21.61-11.26-21.61s9.27,9.52,15.15,14c4.53,3.44,17.19,10,22.73,10"/><path class="b6d6caf4-1f4b-4df4-a5f3-9a9805ff98b0" d="M278.47,154l21.3,2.67s-14.23-19.78-11-32.47,21.4-11.27,29-.46c3.28,5.2,3.17,7,3.17,7l7-2.81s-3.91-18.83-6.76-25.07S332.78,93.49,337,76.92c0,0,16.59,9.91,27.6,5.18,0-.71-12.14-.35-17.58-5.31,10.07-.85,18.79,2.88,26.15-.63s15.51-2.31,20.76,5.86c-2.68-21.62-15-49.16-48.2-50.73,8-1.68,21.12-.2,30.79,5.72-17.1-13.51-60.17-23.17-90.29-9.54S251.86,64.1,251.86,64.1a32.18,32.18,0,0,1,5-24.39c-.36,0-14.42,14.19-8.89,29.89-3.63.86-16.9,1.52-16.9,1.52s14.57,1.56,15.77,5.57S240,114.2,265.6,135.36C276,147.41,278.47,154,278.47,154Z"/><path class="b6a41164-9e88-44b1-85b5-59d641182332" d="M251.91,504.49c7.26-38.82,8.33-78.82-.47-117.19-6.64-28.95-13.78-55.43-14-85.26-.19-27.16,9.89-58.09,24.86-80.52,12.18-18.25,37.64-20.14,57.78-18,36.1,3.87,44.48,26.43,50.28,30.94s32.24,42.56,41.91,56.1,3.22,45.77-2.58,62.53,0,42.56-9,70.92c-10,31.33,14.49,75.1-20.72,93.7-15.52,8.2-33.9,8.43-51.44,7.85-28.25-.94-57.9-3.26-83.45,8.84Q249,519.62,251.91,504.49Z"/><path class="e605f63f-a00d-41d5-a623-913028de03ba" d="M259.33,237.13c5.33-11.56,13.3-20.85,25.3-25.21,14.18-5.16,59.95-8.38,83.81,32.24,12,20.49,14.05,46,7.84,68.7-4.57,16.73-13.8,42.16-34.21,43.19-8.88.45-17.78-2.21-26.73-2.15-10.33.06-21,1.34-30.89-2.52-22.88-8.94-37-40.53-35.54-63.65C250,270.63,252.08,252.84,259.33,237.13Z"/><path class="b843c550-7af4-43e3-a3f2-a262f7bf8964" d="M535.17,898.23c-1,13,11.68,11.89,26.82,15.56,15.71,3.8,36.12,1,53,2s94.73,5.9,91.82-12.25a39.37,39.37,0,0,0-1.22-5.35c-13.35,8.47-42.2,9.42-95.44,8.43C566.27,905.78,545,901.41,535.17,898.23Z"/><path class="bea9ae8c-0358-4312-b269-b7cda2886879" d="M682,880.82c-11.74-4.26-20-12.39-40-23.65s-16.89-23.6-23.46-31.12-16.48,3.52-33.32,21.14-29.65-11-37-10.58S541.31,863,541.31,863s-3.9,19.1-6,33.73c-.07.53-.12,1-.16,1.53,9.82,3.18,31.1,7.55,75,8.36,53.24,1,82.09,0,95.44-8.43C701.69,885.26,692.49,884.62,682,880.82Z"/><path class="e605f63f-a00d-41d5-a623-913028de03ba" d="M358.65,253.89s98,90.26,107,99.28,13.6,21-.58,33.85c-19.76,18-51.91,7.32-73.07-3.51a241.62,241.62,0,0,1-21.58-13.05L338.6,349.63c-8.2-5.36-17.16-13.61-26.11-17.4-5.28-2.24-9.76-.23-15.29-1.23a39.48,39.48,0,0,1-21.48-11.89c-10-10.63-14.28-25.53-13-39.8"/><path class="b1869be9-073f-40ff-8e59-faf9a3b960a1" d="M453.6,388.9c-25.14,6.44-32.88,1.93-80-23.21s-55.37-55.45-55.37-55.45v12.25s-5.23-.64-26.29-5.8-29.26-27.62-29.26-27.62h0a50.34,50.34,0,0,0,13,30A39.48,39.48,0,0,0,297.2,331c5.53,1,10-1,15.29,1.23,8.95,3.79,17.91,12,26.11,17.4l31.84,20.83A241.62,241.62,0,0,0,392,383.51c21.16,10.83,53.31,21.47,73.07,3.51a32.3,32.3,0,0,0,6.49-7.83S469.5,382.29,453.6,388.9Z"/><path class="e605f63f-a00d-41d5-a623-913028de03ba" d="M453.75,347.53c5.74-4.13,5.66-11.9-.18-17.28L433.72,312c-5.84-5.37-15.3-6.4-21-2.28h0a10.08,10.08,0,0,0-3.59,4.58l38.85,35.58A13.79,13.79,0,0,0,453.75,347.53Z"/><path class="b1869be9-073f-40ff-8e59-faf9a3b960a1" d="M409.09,314.25c-1.56,4-.3,8.94,3.77,12.69l19.86,18.31a18.68,18.68,0,0,0,15.22,4.58Z"/><path class="b81caf56-96b2-4a85-b245-d344723699b6" d="M356,638.8c-9.18.48-89.78,16.45-109.74-23.68,7.76,16.22,21.42,28.47,41.43,32.63,17.6,3.66,35.45-1.3,53.16-1,38.9.55,81.42,4.54,107.22,2.69l3.85-10.59S365.39,638.31,356,638.8Z"/><path class="b81caf56-96b2-4a85-b245-d344723699b6" d="M245.3,613.11c-.18-.42-.37-.83-.54-1.27C244.94,612.27,245.11,612.69,245.3,613.11Z"/><path class="b81caf56-96b2-4a85-b245-d344723699b6" d="M391.59,508.43s-.53,4.83-11.63,9.3c18.76,2.16,113.7,2.72,113.7,2.72Z"/></svg>